<?xml version="1.0" encoding="utf-8"?>
<!-- Generator: Adobe Illustrator 22.0.1, SVG Export Plug-In . SVG Version: 6.00 Build 0)  -->
<svg version="1.1" id="Layer_1" xmlns="http://www.w3.org/2000/svg" xmlns:xlink="http://www.w3.org/1999/xlink" x="0px" y="0px"
	 viewBox="0 0 1000 1000" style="enable-background:new 0 0 1000 1000;" xml:space="preserve">
<style type="text/css">
	.st0{fill:#020202;}
</style>
<path class="st0" d="M896.2,726c8,1.2,14.7-3.1,17.3-5.2s3.8-5.3,6.4-5.5s3.7-1.1,5.7-3.3s4.7-10.7,6.7-14.7c2-4-0.6-5-3.9-3.2
	c-3.2,1.9-12.3,2.9-16.9,0.7s-8.1,1.7-8.1,1.7s-11.2-18.8-14.2-26.9c-3.1-8-3.1-20.7-1.1-27.5c2-6.8,8.9-19.9,14.6-29.3
	c5.7-9.4,11.4-25.2,10.7-42.6c-0.6-17.5-16.6-22.1-20-23.3s-15-9.2-15.6-15.5c-0.6-6.3,2.1-7.4,2.1-7.4c1.4,3.2,5.2,3.9,5.2,3.9
	s-1.5,3.3,2.9,5c4.4,1.7,6.3-5.3,6.3-5.3s4.6,3.3,6.6-0.6c2-4-3.5-6.4-3.5-6.4s3.7-3.6,0.3-6.6c-3.4-3-6.7,1.4-6.7,1.4
	s-3-5.1-6.3-2.5c-3.3,2.6-1.1,7-1.1,7c-2.3,0.6-10,4.1-6.9,12.6s13.3,14.2,13.3,14.2c-9.5-0.4-20.3,8-19.9,15.5
	c0.4,7.5,5.9,11.6,5.9,11.6c0.4,3.5,2.3,4.7,2.3,4.7s-4.6,3.8-2,5.9c2.6,2.1,6,0.4,6,0.4s1.2,4.8,5.1,4c4-0.8,1.1-6.8,1.1-6.8
	c1.6,0.7,6.1,0.4,6.2-3.3s-4.4-4.3-4.4-4.3c-0.3-3-0.6-5.9-3-6.4c-2.3-0.5-4.3,3.6-4.3,3.6c-2.7-1.9-6.3,1.5-6.3,1.5
	c-2.6-2.8-5.9-8.2-4.6-12.7c1.3-4.5,6.6-10.8,14.8-11.4c8.2-0.5,18.4,5.4,22.3,12.8c3.9,7.4,3.1,18.7-1.3,32.2
	c-4.3,13.5-12.7,28.3-16.6,35s-7.7,21.8-5.7,36c2,14.2,16.1,32.2,16.1,32.2s-5.8,1.5-10.2,6c-4.4,4.5-4.5,9.3-7.7,15
	s-13.8,9.7-13.8,9.7c4-12.6,10.6-12.1,15.6-19.8c5-7.7,5-13.8,0.9-20.7c-4.1-6.8-10-8.9-10-8.9s-4.5,5-6,14s-3.9,12-3.2,18.3
	c0.7,6.3,3.5,10.1-0.4,15.9c-3.8,5.8-16,10.9-16,10.9s5.9-5.6,9.9-11.6c4-6,0.5-12.6-1.8-13.7c-2.3-1.1-4-1.6-7.8-5.3
	c-3.8-3.8-5-3.3-9.4-6c-4.5-2.7-5.7-3.3-13.8-0.8c-8,2.6-8.9,9.4-10.1,13.6c-1.2,4.1-4.1,5.7-4.1,5.7c-2-8.3-9.9-14.6-13.8-16.5
	s-7-1.1-13.3,7.5s-6.7,19-6.7,19s-8.3-1.2-10.2,2c-1.9,3.2-2.4,11.5-2.4,11.5c-1.3-7.6-4.5-11.3-4.7-13.1c-0.2-1.8,0.4-7.3,1.8-9.2
	c1.4-1.8,4.8-2.8,6.2-7.4s0-10.7,0-10.7s-7.8,6.1-9,9.1c-1.2,3,0.3,5.5,0.3,7.8s-2,6.7-2,6.7s-4.6-13.6-6.7-20.4
	c-2.2-6.8-0.3-9-0.3-9c8-0.4,10.8-7.6,10.4-14.6c-0.4-7-10.5-10.4-15.9-10.4c-5.4,0-8.1,3-9.5,5.2c-1.5,2.1-3.8,12.6,0.3,16.8
	c4.1,4.2,11.7,4,11.7,4c-0.7,7.2,3.6,15.3,3.6,15.3s-3.9-0.2-5.3-2.8s-1.8-4.6-4.7-5.5c-2.8-1-3.6,1.3-2.1,3.7
	c1.5,2.4,8.8,5.9,11.3,7.4s5.2,9.8,5.2,9.8s-3.5-3.2-6.6-1.8s-3,1-6.3,1.6s-4.9,2.8-5.8,5.2c-1,2.3-1.8,2.9-3.5,4.2
	c-1.8,1.3-0.8,6.7-0.8,6.7l-1.6-0.7c0,0,0.2-5.1,0.2-7c0-1.9,4-5.4,5.6-9.4s-1.7-7.9-3.2-9.8c-1.5-1.8-3-3.4-3.9,3
	c-0.9,6.4-1.6,17.9-1.6,17.9s-2-4-2.7-6.3c-0.7-2.2-0.2-4.2-0.6-9.2c-0.5-5-3.7-8.5-6.2-10.5s-8.5-9.2-9.7-7.9
	c-1.1,1.2-1.4,9.5,0.1,15c1.5,5.5,8.2,9.8,12,11.8c3.7,2.1,5,6.3,5,6.3l-1.2-0.4c0,0-0.7-1.1-3.4-3c-2.7-1.9-9.5-2.6-12.6-2.1
	c-3.1,0.5-8.2,0.8-8.2,1.8c0,1,1.9,4.4,8.9,7.5c7,3.1,11.8,0.8,14.7-0.5c3-1.3,7.9,6,7.9,6s-3.9,3-6,6.7c-2.1,3.7,2.2,6.6,1.8,7.2
	c-0.5,0.6-5-2.3-6.3-3.2s-1.4-1.9-1.9-5.6c-0.5-3.7-4.3-6.1-5.9-4.1c-1.5,2,3.4,8.1,3.4,8.1h-7.1c0,0-1.9-5.5-4-8s-5.3-2.3-8.5-2.9
	c-3.1-0.6-8.5-4.2-11.1,1.2s0,9.8,0,9.8c-5,2-8.4,6.2-6,9.5c2.4,3.3,9.2,5.6,9.2,5.6s-1.8,5.3,1.1,7.8c3,2.5,9.4,2.2,13.6-2.1
	c4.2-4.3,4.7-6.5,4.7-9.4c-0.1-2.9-0.5-3.7,0.2-5.6c0.7-1.9,0.7-3.5,0.7-3.5s2.7-0.4,5.8-0.2s5.1,2.1,5.1,2.1s-2.1,0.2-4.4,0.6
	c-2.3,0.5-3.2,1.8-2.4,3c0.8,1.1,2.7,1.3,5.6-0.9c2.8-2.2,5.2-0.9,5.2-0.9s-1.2,1.6-2.8,4.8s-0.2,3.7-0.2,9
	c-0.1,5.3,0.2,8.6,0.2,8.6c-6.9,1.9-18.1,10.5-18.3,14.3c-0.2,3.8,1.8,5.7,6.9,12c4,4.9,8,5.9,9.5,6.1c0.2,0,0.3,0.3,0.1,0.5
	c-1.4,1.3-3.3,3.9-3.3,3.9s-4,0.4-7.6,1.6c-3.7,1.2-7.5,5.7-8.1,9.3s-1.1,8.1,0.8,11.4c1.8,3.3,2,5.5,3.7,7.8
	c1.7,2.3,4.4,3.7,7.7,9.2c3.4,5.5,6.9,5,11.5,4.2c4.6-0.8,14-10.1,14-10.1s-5.5,12-9.4,14.7c-3.9,2.7-11.5,3.1-14.3,1.8
	s-7.3-1.2-10.8-0.7c-3.5,0.5-7.7,3-11.9,3.2s-5.7,1.1-8.9,2.8c-3.1,1.7-4.4,2.7-1.7,6.5c2.7,3.8,8.4,9.8,15.2,10.1
	c6.8,0.2,14.1-5.1,20-12.1c5.9-6.9,11.8-8,11.8-8c-0.8,4.4-6.3,13.2-10.2,14.2c-3.8,1-13.9,6.5-16.9,10.4c-3,3.9-5.1,10.9-5.1,10.9
	s-1.6-1.1-7.7-5.9c-6-4.9-11.7-6.3-20.4-9.9s-5.8-3.1-21.2-2.9c-15.3,0.2-19.3,4.7-31.8,11.2s-26.8,11.3-31.2,12.8
	s-22.6,5.2-31.2-3.5s-8.8-16.9-8.7-20c0.1-3.2,5-14.3,13.7-14c8.7,0.2,10.7,5.2,10.7,5.2s-0.8,0.6-1.6,2.4c-0.7,1.8,0.3,3.4,0.3,3.4
	s-4.6,2.4-3.8,4.9c0.8,2.4,6.4,2,6.4,2s-1.2,4.6,3.5,4.5c4.7-0.1,4.1-6,4.1-6s5.8,2,6.6-1.6c0.8-3.6-4.4-4.1-4.4-4.1s3.3-3.6,0-5.9
	c-3.3-2.3-6.3,1.1-6.3,1.1c-0.6-2.3-3.9-1.6-3.9-1.6c-5.3-8.1-14.5-7.7-21.1-1.3c-6.6,6.4-6,15.1-6,15.1c-4.9-6.5-8.5-11.9-16-13.9
	c-7.4-2-11.6,7.3-11.6,7.3s-2.8-2.5-5.8,0.4s1.5,7.1,1.5,7.1s-3.7,3.2-1.2,6.2c2.4,3,6.4,0.5,6.4,0.5s4.1,3.9,6.9,2.9
	c2.8-1.1,0.9-6.6,0.9-6.6s5.2,0.7,5.1-4.6s-4.9-4.5-4.9-4.5c0-4.4-3.9-4.8-3.9-4.8c2.4-3.5,5.6-3.1,10.4-0.7
	c4.8,2.4,9.2,7.5,11.5,12.1s2.9,10.4,6.6,14c3.7,3.6,7.8,7.2,18.5,7.9c10.7,0.7,28.1-3.6,39.7-10.1s16-9.1,23-12.6s14.4-3.9,23.2-4
	c8.8-0.1,10.3,2.3,19.2,5.5c8.9,3.2,20.4,11.4,22.4,13.6s2.9,9.2,2.6,14.8c-0.3,5.6-3.5,9.8-1.8,10.8c1.7,1,4-0.7,10.9-3.9
	c7-3.2,9.1-4.9,9.7-7.1s1-4.3,3.4-6.5s5-3.1,7-10.6c2-7.5-0.8-19.7-0.4-21.1c0.4-1.4,7.4-15.2,7.4-15.2s1.6,4.9,1.4,7
	s-6.1,12.9-6.4,18.3s0.9,13,3.8,20s7.8,10.3,9.5,11.8c1.7,1.5,3.2,4.7,4.8,1.2c1.6-3.5,3-2.6,5.6-11.3c2.6-8.6,1.3-15.8-2-25.3
	c-3.3-9.5-10.1-12.3-11.8-14.2c-1.7-1.9-2.1-3.1-2.3-9.7s4.1-11.8,4.1-11.8s-0.8,6.5-0.4,13.5c0.5,7,3.2,8,7,9.4s9.6,3.9,9.6,3.9
	s-0.3,1.7-1,6.9s1.6,10.9,3.4,16.5c1.8,5.6,4.6,0.8,6.4-2.7c1.8-3.5,3.4-4.6,7.5-10.2c4.1-5.6,3.2-14.7,3.2-14.7
	c2.6-0.1,5.6-3.5,5.6-3.5s1.4,14.6,0,18.7s-5.5,6.4-5.6,12.8s0,17.8-0.2,20.6s0.5,3.2,5,0.6c4.5-2.5,13.7-6.2,13.8-15.7
	c0.1-9.5-7.2-19.5-8.7-23.2c-1.5-3.7-1.3-13.3-1.3-13.3c9.4,11.9,7.5,5.6,13.5,10.6c6,5,6.8,4.8,14.6,8.6c7.8,3.8,6.7,7.7,9.8,7.4
	s2.7-7.3,1.8-11.5c-0.9-4.2-2.6-6.3-2.3-17.9c0.4-11.6-1.5-8.1-3.7-15.1c-2.2-7-5.9-9.6-5.9-9.6l9.1-0.7c0,0,6,3.5,8.8,4.8
	s1.9,5.4,1.9,9.1s2.3,3.8,3.6,0s8.2-9.1,8.2-9.1s3.2,0.1,6.2-2.5c3-2.6,8.2-7.6,11.4-9.3c3.2-1.7,1.7-3.3-3.2-3.2
	s-10.6-2.2-10.6-2.2c0.1-8.1-5-13.3-5-13.3l0.7-7.9c0,0,14.9,8.6,19.9,8.6s16.4-0.7,20,1.3c3.6,2,11.8,2.5,13.4,0.9
	c1.6-1.6,1.2-2.6-1.3-4.4s-3.5-3.7-5-7c-1.4-3.3-2.3-5.7-5-9c-2.8-3.3-3.4-4.5-5.6-9.7c-2.2-5.2-8.6-9-8.6-9s5.9,0.1,10.1,0.3
	s4.8,2.1,12.1,5.5c7.3,3.4,14.5,5.5,20.1,2.1s7.6-8.1,10-12.9s0.3-4.1-2.9-4.1c-3.2,0-4,1.1-14.6,0.3s-17.7,6.2-19,6.6
	c-1.4,0.4-16.2-1.1-16.2-1.1c2.3-2.5,3.2-5.6,3.2-5.6c8.1,0.6,11.6-0.7,14.2-2.7c2.5-2,8.1-6.9,11.4-8.7c3.2-1.9,4.2-1.5,3.7-4.1
	s-3.6-1.5-8.6-3.3c-5-1.8-9.8-1.4-14-1.2c-4.1,0.2-2.8-0.3-6.9-10.1c-4.1-9.8-22.6-5.8-22.6-5.8c8.9-6.1,17.8-3,20-2.4
	c2.2,0.5,5.2,4.9,10.7,9.8c5.5,5,19,7.4,26.9,5.7c7.8-1.7,16.7-7.7,16.8-9c0.1-1.4-5.8-5.1-8.9-8.4c-3.2-3.3-11.4-6.4-22.4-7.6
	s-21.7,6.9-21.7,6.9l-7.5-1.9c0,0,7.9-4.1,11.9-6C883.7,724,888.1,724.9,896.2,726z M890,529.2c-0.5,0.5-1.1,0.7-1.8,0.4
	c-0.2-0.1-0.3-0.2-0.4-0.3c-0.1-0.2-0.1-0.4,0-0.6c0.2-0.6,0.6-1.2,1.1-1.7c0.5-0.5,1-0.8,1.6-1c0.2-0.1,0.4-0.1,0.6,0
	c0.2,0.1,0.2,0.3,0.2,0.5C891.3,527.5,890.7,528.5,890,529.2z M897.6,523.9c0.2,0.3,0.2,0.8,0,1.1c-0.1,0.2-0.4,0.3-0.6,0.4
	c-0.5,0.1-1.1,0.1-1.6,0c-0.4-0.1-0.9-0.3-1.2-0.6c-0.2-0.2-0.4-0.4-0.5-0.7c-0.2-0.6,0.2-1.3,0.8-1.5c0.6-0.2,1.2,0,1.7,0.3
	C896.7,523,897.3,523.3,897.6,523.9z M892.7,519c0.2-0.5,0.4-0.9,0.7-1.4c0-0.1,0.1-0.1,0.1-0.2c0.5-0.6,1.6-1.4,2.3-0.8
	c0.5,0.5,0.3,1.3,0,1.8c-0.4,0.7-1.3,2.5-2.3,2.1c-0.4-0.2-0.9-0.6-0.9-1C892.5,519.4,892.6,519.2,892.7,519z M892.5,520.9
	c0.9,0.8,0.5,1.8-0.2,2.6c-0.4,0.5-0.9,0.7-1.6,0.6c-0.7-0.1-1.3-0.5-1.6-1.1c-0.4-0.8-0.1-1.7,0.6-2.1
	C890.5,520.4,891.7,520.4,892.5,520.9z M886.2,516.8c0.1-0.2,0.1-0.3,0.3-0.4c0.6-0.5,1.6,0.1,2.1,0.5c0.7,0.4,1.6,1.1,1.6,2
	c0,1.5-1.6,1.4-2.5,0.9c-0.8-0.4-1.7-1.1-1.6-2C886,517.4,886.1,517,886.2,516.8z M884.8,522.2c0.5-0.3,1.1-0.5,1.7-0.5
	c0.9-0.1,1.8,0.4,1.8,1.4c0,0.8-1.1,1.3-1.7,1.4c-0.9,0.2-1.9-0.1-2.6-0.8c-0.1-0.1-0.1-0.1-0.2-0.3
	C883.7,523,884.6,522.3,884.8,522.2z M889.2,577c1,0,1.9,0.5,1.9,1.1c0,0.6-0.8,1.1-1.9,1.1c-1,0-1.9-0.5-1.9-1.1
	C887.3,577.5,888.2,577,889.2,577z M885.9,585c-0.5,0.1-1.2-0.5-1.4-1.4c-0.2-0.9,0-1.8,0.6-1.9c0.5-0.1,1.2,0.5,1.4,1.4
	C886.7,584,886.5,584.9,885.9,585z M885.3,573.4c0.2-1.1,0.7-2,1.1-1.9c0.4,0.1,0.4,1.1,0.2,2.2s-0.7,2-1.1,1.9
	C885.1,575.5,885,574.5,885.3,573.4z M883.3,577.9c0.4-0.9,1.3-1.3,1.8-1c0.6,0.3,0.7,1.2,0.3,2.1s-1.3,1.3-1.8,1
	C883,579.7,882.9,578.8,883.3,577.9z M881.3,581.7c-0.7,0.5-1.5,0.5-1.8,0.1s0-1.2,0.7-1.6c0.7-0.5,1.5-0.5,1.8-0.1
	S882,581.2,881.3,581.7z M879.4,575.3c0.2-0.4,1-0.4,1.9,0c0.8,0.4,1.4,1.1,1.2,1.5c-0.2,0.4-1,0.4-1.9,0S879.2,575.7,879.4,575.3z
	 M900.1,722.7c-0.3,0.6-4.5,0.4-7.1,0c-1.9-0.3-4.3-0.9-5.3-1.1c-0.2-0.1-0.3-0.4-0.1-0.5c0.8-0.6,2.8-1.5,5.7-0.9
	C897.2,721.1,900.4,722.2,900.1,722.7z M913.9,715.4c-0.8,1.1-3.4,1.3-5.6,0.5c-1.7-0.6-4.1-1.5-5.2-2c-0.2-0.1-0.2-0.4,0-0.5
	c1-0.5,3.3-1.3,5.5-0.4C911.5,714.4,914.7,714.3,913.9,715.4z M923.4,710c-0.8,1-3.3,3.5-6.2,2.4c-2.7-1-5.2-1.6-6.2-1.8
	c-0.2,0-0.3-0.3-0.1-0.5c0.9-0.8,3.4-2.5,6.3-1.9c2.9,0.6,5.1,1.1,6,1.3C923.5,709.6,923.6,709.8,923.4,710z M926.8,701.4l-2.4,4.3
	c0,0.1-0.1,0.1-0.2,0.1h-2.7c-0.3,0-0.4-0.3-0.2-0.5l5.1-4.3C926.6,700.8,927,701.1,926.8,701.4z M921.4,698.1
	c1.8-0.2,4.3,0.6,1.8,2c-1.7,1-4.6,2.6-6,3.5c-0.2,0.1-0.5-0.1-0.4-0.4C917.9,701.6,920.1,698.3,921.4,698.1z M912.4,699.9
	c0.5-2,2.8-2,4.3-1.4c1.5,0.6-0.9,3.6-2.8,5.4c-1.2,1.1-2.8,2.6-3.8,3.5c-0.2,0.2-0.6,0-0.4-0.3
	C910.6,705.1,912.1,701.4,912.4,699.9z M904.9,700.7c0.7-2.8,1.8-3,3.5-3.8c1.7-0.8,2.3,1.2,1,3.4c-1.3,2.1-3.6,10.3-7.5,11.2
	c-0.2,0-0.4-0.1-0.3-0.4C902.1,709.4,904.3,703.1,904.9,700.7z M895.3,714.1c0.6-2,3.1-10.3,3.8-12c0.6-1.5,2.4-1.4,3.1-1.3
	c0.2,0,0.3,0.2,0.2,0.4c-0.5,1.6-3.2,9.5-4.2,11.3c-0.8,1.4-2,1.9-2.6,2.1C895.4,714.5,895.2,714.3,895.3,714.1z M901.3,716.5
	c3.7,0.7,8.6,2.8,7.9,3.6c-0.7,0.8-3.8,0.4-6.7-0.4c-2.2-0.6-5.8-1.4-7.3-1.8c-0.3-0.1-0.3-0.4-0.1-0.5
	C896.3,716.8,898.7,715.9,901.3,716.5z M887,717.6c1.3-2.8,6-12.4,7.6-14c1.8-1.9-1.4,6.3-2.1,9.3c-0.5,2.3-3.6,4.3-5.1,5.1
	C887.2,718.1,886.9,717.9,887,717.6z M883.1,688.9c0.4-0.2,0.9-0.1,1.2,0.2l1.2,1.9c0.2,0.4,0.2,0.8-0.2,1.1l-4.7,4.1
	c-0.3,0.3-0.8,0.1-0.8-0.3c-0.1-1.2-0.2-3.3,0.5-4.5C881.1,690.3,882.3,689.4,883.1,688.9z M879.1,682.7c0,0,3.1,1.8,2.7,3.4
	c-0.4,1.5-3,2.7-3,0.8C878.8,684.9,879.1,682.7,879.1,682.7z M879.1,701.1c0.4-0.8,0.9-1.4,1.5-1.9c0.2-0.1,0.3-0.3,0.5-0.4
	c1.3-1,2.6-2,3.9-3c0.4-0.3,0.8-0.5,1,0.1c0.2,0.6,0,1.4-0.2,2c-0.6,1.5-2.9,2.8-4.6,4.2c-0.5,0.4-1.5,1.2-2.2,0.9
	C878.5,702.5,878.9,701.5,879.1,701.1z M880.1,706.1c0.3-0.3,2.8-3,3.3-2.4c0.6,0.8-0.5,2.6-3.2,5.4c-0.7,0.7-1.4,1.4-2.2,2.1
	c-0.3,0.2-1.9,1.3-1.5,0.3c0.5-1.2,1.1-2.2,1.8-3.2C878.8,707.5,879.4,706.8,880.1,706.1z M875.8,684.2c0.2-0.2,0.6-0.1,0.6,0.2v7.6
	c0,0-3.1-0.8-3-3.2C873.5,687.1,875,685.2,875.8,684.2z M872.2,694c0.1-0.5,0.4-1.1,0.9-1.2c0.7-0.1,1.3,0.6,1.7,1.1
	c0.2,0.2,0.4,0.5,0.6,0.8c0.9,1.4,1.6,3.5,1.1,5.2c0,0.1-0.1,0.2-0.2,0.3c-1.1,1.2-3.8-3.7-4-4.6C872.2,695.1,872.1,694.6,872.2,694
	z M871,700.4c0.3-1.6,2.5,1.6,2.5,1.6s2,2.6,1.6,5c-0.4,2.4-1.8-0.7-3-2.4C871,703.1,870.6,701.9,871,700.4z M870.3,706
	c1,0.8,3.7,3.2,3,6c-0.6,2.5-1.5,3.3-2,3.6c-0.1,0.1-0.3,0-0.3-0.1l-1-9.2C870,706,870.2,705.9,870.3,706z M768.6,708.3
	c0.2,2.6,0.3,8.1-3,9.7c-0.3,0.2-0.6-0.2-0.5-0.5c0.7-1.8,2.3-6.4,3-9.3C768.2,708,768.6,708,768.6,708.3z M765.9,708
	c0.2-0.1,0.5,0,0.6,0.3c0.1,0.5,0.2,1.2-0.4,2.2c-0.9,1.4-1.8,0.8-1.7,0C764.5,709.7,765.2,708.4,765.9,708z M762.6,713.5
	c0-2,0.4-2.5,1.3-1.5c0.4,0.5,0.5,1.2,0.5,1.8c0,0.1,0,0.2,0,0.3c0.1,0.8,0.1,2.2-0.8,2.4C762.3,716.8,762.6,715.5,762.6,713.5z
	 M761,684.6c0,0.2-0.2,0.3-0.3,0.3H756c-0.3,0-0.4-0.3-0.3-0.5c0.8-1.4,2.8-5.1,3-5.9C758.8,677.4,761.6,682,761,684.6z M756,676.7
	c1,0.9,1,1.5,0,3.1c-0.7,1.2-1.7,2.8-2.2,3.6c-0.1,0.2-0.4,0.2-0.5,0c-0.6-0.8-2.4-2.5-6-2.2c-0.3,0-0.5-0.4-0.3-0.6
	c1.4-1.2,4.2-3.6,4.8-5.2C752.7,673.3,755,675.8,756,676.7z M752.4,685.3c-0.3,2.6-5,3-6.9,2.8c-1.9-0.1-2.6-3.8,2.3-4.9
	C747.7,683.3,752.7,682.7,752.4,685.3z M743.3,674.6c5.8-2.6,7.9,0.6,5.6,2.5c-2.3,1.9-5.5,3.6-6.2,8.8c-0.1,0.4-3.3-1.6-4.8-1.7
	c-0.2,0-0.3-0.2-0.3-0.3C737.7,682.4,738.3,676.8,743.3,674.6z M739.8,693.5c-1.1-1-1.8-2.4-2.1-3.8c-0.2-1-0.4-3.2,0.8-3.7
	c0.4-0.2,0.9,0,1.3,0.3c0.7,0.5,1.2,1.1,1.8,1.7c0.5,0.6,1.1,1.2,1.9,1.6c1.6,0.7,3.5,0.8,5.1,0.1c3-1.3,5.5-3.2,8.9-3.3
	c3.4-0.1,4.6,1.3,2,4.4C755.1,696.1,745.4,698.4,739.8,693.5z M745,709.1c-0.3,0.3-0.9,0.2-1.4-0.3c-0.5-0.5-0.7-1.1-0.5-1.4
	c0.3-0.3,0.9-0.2,1.4,0.3C745.1,708.1,745.3,708.8,745,709.1z M720.3,713.4c0.6-0.4,1.1-0.4,1.5,0.2c0.3,0.4,0.5,0.8,0.7,1.3
	c0.3,0.7,0.4,1.5,0.3,2.2c0,0.4-0.1,0.9-0.6,1c-0.6,0.2-1.2-0.6-1.5-0.9c-0.5-0.6-0.9-1.3-1.1-2.1c-0.1-0.2-0.2-0.5-0.1-0.7
	C719.6,713.9,720,713.6,720.3,713.4z M716.7,709.4c0.1-0.1,0.1-0.1,0.2-0.2c0.1,0,0.1,0,0.2,0c0.7,0.1,1.3,1,1.7,1.4
	c0.1,0.1,0.2,0.2,0.2,0.2c0.2,0.2,0.3,0.3,0.4,0.5c0.2,0.4,0.3,0.8-0.1,1c-0.9,0.6-2.1-1-2.5-1.5
	C716.4,710.6,716.3,709.9,716.7,709.4z M717.4,714.5c0,0-3.5,0.3-4.3-0.6c-0.8-0.8-1.2-8.1-1.2-8.1L717.4,714.5z M712.5,716.3
	c-0.3-1.3,5.1-0.6,5.9,0c0.9,0.6,2.2,3,2.2,3S712.9,717.7,712.5,716.3z M717.9,723c-1.4-1-2.4-2.9,0-2.4s4,1,4,1
	c0.1,0.2,2.1,2.8,2.1,3.7C723.9,726.3,719.3,724,717.9,723z M725.1,721.8c0,0.2-0.1,0.4-0.2,0.5c-0.3,0.2-0.9-0.1-1.1-0.4
	c-0.4-0.6-0.4-1.5-0.4-2.2c0-0.6-0.1-1.4,0.6-1.6c0.4-0.1,0.8-0.1,1,0.3c0.1,0.2,0.2,0.4,0.2,0.5c0.1,0.5,0.1,1.1,0.1,1.7
	C725.2,721.1,725.1,721.4,725.1,721.8z M715,738.1c-4-1.4-5.9-3.5-5.9-3.5s11.9,2.7,13.3,2.6S719,739.5,715,738.1z M708.5,732
	c0.3-0.5,5.5-1.2,8.5-0.8c3,0.3,8.6,4.4,8.6,4.4C722.3,735.9,708.3,732.5,708.5,732z M735.2,717.8c0-0.1,0.1-0.2,0.2-0.1
	c0.7,0.6,2.7,2.7,2,6.2c-0.8,3.3-2.6,4.2-3.3,4.4c-0.1,0-0.2-0.1-0.2-0.2C734.3,727.1,735.5,723.8,735.2,717.8z M732.7,726.5
	c-0.1,0.1-0.3,0.3-0.5,0.2c0,0-0.1,0-0.1,0c-0.1-0.1,0-0.6,0-0.8c0-0.7,0.1-1.3,0.2-2c0.1-1.4,0.2-2.9,0.7-4.2
	c0.1-0.2,0.2-0.6,0.4-0.6c1-0.1,0.4,4.8,0,6.2C733.3,725.7,733.1,726.2,732.7,726.5z M694.7,743.1c3.8,0.1,6.7,2.4,7.5,4.3
	c0.9,1.8,0,3.9-1.4,2.4c-1.4-1.5-2.3-2.6-3.1-1.7c-0.8,0.9,3.5,5,3.5,5s-4.7-1.1-7.5-1c-2.8,0.1-4.4-1.4-4.3-4.7
	C689.4,744.2,690.9,743,694.7,743.1z M687.7,764.3c-3.5-2.6-4.8-8.1,0.5-9.6c5.2-1.6,7.3-0.7,10,0c2.8,0.7,3.1,3.5,1,3.9
	s-4.4-0.8-4.4,0.6c0,1.4,5.4,0,5.4,2.2c-0.1,2.2-2,2.6-2,2.6S691.3,766.9,687.7,764.3z M696.5,775.5c-2.9-1.4-4.6-6-1.1-8.5l4.4-2.5
	c0,0,0.7-0.7,2.2,0.9s1.1,2.7-0.4,5.2C700.2,773.2,699.4,777,696.5,775.5z M709.6,766.7c-1.1,2.1-4.5,8.1-7.8,8.2
	c-0.1,0-0.1-0.1-0.1-0.1c0.2-0.9,1-5.3,2.7-5.8c1.4-0.4,3.8-1.8,5-2.6C709.4,766.3,709.7,766.5,709.6,766.7z M708.5,753.3
	c-1.5-0.3-1.5,0.5-0.4,1.3c1.1,0.8,2.6,1.9,0.4,3.1s-4.1,0.5-3.8,1.9s3.7-1.3,3.1,2.1c-0.6,3.4-0.8,5.7-3.1,3.4s-4.1-4.7-2.4-8.6
	c1.3-3.1,1.2-8.4,1-10.5c0-0.4,0.4-0.6,0.7-0.4c1.4,0.8,4.1,2.7,5.1,4.6C710.4,752.6,710.1,753.5,708.5,753.3z M720.1,751.3
	c-0.6,0.4-1.1-0.6-1.3-1c-0.6-1.1-1.5-2.3-1.7-3.6c0-0.2,0-0.3,0-0.5c0.3-1.1,1.5,0.6,1.7,0.9c0.2,0.3,0.5,0.6,0.7,0.9
	c0.2,0.3,0.4,0.7,0.5,1.1C720.3,749.7,720.7,750.9,720.1,751.3z M703.8,871.7c1.1-1.2,4.7,0.8,4.7,0.8s3,1.6,2.7,2.6
	c-0.3,1-2.5,0.3-5.1-0.9C703.5,873,702.7,873,703.8,871.7z M696.5,873.3c1.1-0.7,2.8-1.4,4.1-0.3c1.3,1.1,3.8,4.3,3.8,4.3l-4.5-0.2
	C700,877.1,695.4,874,696.5,873.3z M693.7,874.1c1.8,0.6,1.7,3.2,1.7,3.2l-9-0.6C686.4,876.7,691.9,873.5,693.7,874.1z M690.9,881.1
	c-1.2,1.5-1.9,1.7-3.2,0.6s-1.3-2.2-1.3-2.2S692.1,879.6,690.9,881.1z M695.8,885.7c-0.6,0.5-1.9-0.1-2.8-0.7
	c-0.7-0.4-0.8-1.3-0.2-1.9l1.7-1.7c0.9-0.9,2-1.4,3.3-1.4c0.5,0,0.9,0.1,1.3,0.3C700.4,881,696.9,884.8,695.8,885.7z M706.4,880.7
	c-1.1,1.6-2.9,4-4.5,5.3c-0.8,0.7-1.7,0.7-2.3,0.5c-0.6-0.2-0.8-0.9-0.4-1.3c1.2-1.5,3.5-4.4,4.1-5.1
	C704.1,879.1,707.5,879.2,706.4,880.7z M710.2,883.5c-1.5,1-2.4,0.7-3,0.2s0.8-2.6,2.7-3.8c0,0,4.2-3.1,5.2-2.5
	S711.7,882.5,710.2,883.5z M713.9,873.3c-2.1-0.3-3.9-1.7-4-2.6c-0.1-0.9,3.8-0.3,3.8-0.3s5.6,0.5,5.3,1.4
	C718.7,872.7,716,873.6,713.9,873.3z M577.2,891.2c-0.5,1.5-1.8,1.9-2.1,1.1c-0.3-0.8-0.1-3.1,1.1-3.2
	C576.2,889.1,577.7,889.7,577.2,891.2z M581.6,886c1.4,0.2,1.7,0.9,1.4,1.5c-0.2,0.4-0.3,0.6-0.8,0.6c-0.8,0-1.8-0.2-2.3-0.9
	c-0.1-0.1-0.2-0.3-0.2-0.4c0-0.1,0-0.1,0-0.2C580,886,581.2,885.9,581.6,886z M577.8,881.4c0.8-0.6,2-1,2.4-0.4
	c0.6,0.7-0.2,1.9-0.9,2.4c-0.8,0.5-1.7,0.7-2.3,0C576.4,882.7,577.3,881.8,577.8,881.4z M578.4,885.2c0.7,1.2-0.9,2.2-1.9,2.7
	c-1,0.5-2.1,0.3-2.5-0.5c-0.3-0.4-0.1-1,0.2-1.3c0.3-0.3,0.6-0.6,1-0.8C576.2,884.5,577.9,884.2,578.4,885.2z M572.9,881.1
	c0.2-0.2,0.6-0.2,0.9-0.1c0.5,0.1,0.8,0.5,1.1,0.9c0.9,1.3,0.6,1.7,0,2.2c-0.6,0.4-1.2,0.1-1.8-0.8c-0.3-0.4-0.4-1-0.4-1.5
	C572.7,881.4,572.7,881.2,572.9,881.1z M572.3,886.9c0.3,0.4,0.8,1.4-0.9,1.9c-0.4,0.1-1,0.3-1.4,0c-0.3-0.2-0.3-0.5-0.5-0.8
	c-0.2-0.4,0.4-0.8,0.7-1c0.1-0.1,0.2-0.1,0.4-0.2C571.1,886.7,572,886.5,572.3,886.9z M519.9,887.3c0.1-0.4,0.3-0.8,0.5-1.2
	c0.2-0.3,0.4-0.6,0.7-0.6c0.7-0.1,1.1,0.6,1.2,1.2c0,0.8-0.3,1.6-0.5,2.3c-0.9,2.2-2.2,1.6-2.1,0.4
	C519.6,888.6,519.7,887.9,519.9,887.3z M514.8,887.7c0,0,0.6-1.3,1.9,0.6c0.5,0.7,1.9,2.3,0.9,3c-0.7,0.6-2.1-0.1-2.7-0.9
	C514.2,889.6,514.5,888.2,514.8,887.7z M517.7,896.3c-0.4,0.4-0.9,1-1.4,1.3c-0.6,0.3-1.3,0.1-1.7-0.4c-0.6-0.7,0.9-1.9,0.9-1.9
	s1.7-1.2,2.6-0.5C518.6,895.3,518.1,895.9,517.7,896.3z M518.5,894c-0.6-0.7-0.3-1.4,0.4-2c0.8-0.7,2.1-1,2.8-0.4
	c1,0.9,0.5,2-0.4,2.6C520.4,894.8,519.2,894.8,518.5,894z M525.1,890.5c0.6-0.4,1.6-1,2-0.3c0.6,1-0.4,1.9-1.2,2.3
	c-0.4,0.2-0.9,0.5-1.4,0.5c-0.5,0-0.7-0.2-1-0.6C523,891.7,524.7,890.8,525.1,890.5z M522.8,896c0.8,0.7,1.3,3.6-0.5,3.1
	c-0.3-0.1-0.6-0.3-0.8-0.6c-0.4-0.4-0.7-1-0.9-1.5c-0.2-0.4,0.1-0.8,0.3-1.1c0.1-0.1,0.2-0.2,0.3-0.3
	C521.7,895.3,522.4,895.7,522.8,896z M707.3,895.2c1.9-1.4,6.5-4.5,8.7-5.8c2.9-1.6,6.5-3,5.6-1s-2.7,3.2-6.6,4.5
	c-2.8,0.9-5.9,2-7.5,2.5C707.2,895.5,707.1,895.3,707.3,895.2z M708.6,898.1c0,0,9.2-3.5,9.7-2.6s-1.9,2.9-6.7,5
	c-4.8,2.1-6.9,2.5-7.7,1.2C703,900.5,708.6,898.1,708.6,898.1z M700.1,909.6c-0.5-1.2,0.9-3.7,5.3-4.9c0,0,9.4-2.8,9.6-1.7
	c0.2,1-2.3,2.2-7.7,4.9C701.7,910.6,700.5,910.8,700.1,909.6z M702,923c-0.1-0.5,0.1-1.1,0.4-1.7c0.5-1.1,1.4-2.1,2.4-2.8
	c1-0.7,2.4-1.6,2.7-1.3c0.5,0.4-1.6,3.2-2.7,4.8S702.3,924.3,702,923z M708,926.1c-2.2,1.5-3.1,1.4-3.5,1.1c-0.3-0.3,3.1-4,4.2-5.2
	c0.2-0.2,0.5-0.1,0.5,0.2C709.4,923,709.6,925,708,926.1z M705.2,915.4c-2.8,1.9-3.3,2.4-3.5,1c-0.1-0.8-0.1-1.6-0.1-2.3
	c0-0.5,0.3-0.9,0.8-1.1c2.1-0.9,8.1-3.5,8.6-3C711.7,910.7,708,913.6,705.2,915.4z M715.5,921.4c-0.4,0.5-0.9,1-1.5,1.4
	c-0.6,0.5-1.5,0.1-1.5-0.7c-0.1-1.5-0.4-3.5-1.4-4.9c-0.2-0.3-0.2-0.7,0-1c0.8-1.4,3-5,3.4-5.4C715,910.2,716.4,920.1,715.5,921.4z
	 M719.1,913.9c-1,0.7-1.7-2.3-2.4-4.2c-0.5-1.4,0.4-4.5,0.9-6.1c0.1-0.3,0.5-0.3,0.6,0c0.5,1.7,1.5,5.5,1.8,6.9
	C720.2,912.4,720.2,913.2,719.1,913.9z M723.7,908.6c-1.2,1.5-2.2-2.7-2.9-5.1c-0.7-2.4-1.6-5.5-0.6-7.4c0.9-1.9,2.1,1.9,2.1,1.9
	S724.9,907.1,723.7,908.6z M724.6,897.9c-0.5-2.1-1.1-4.2-1.4-5.3c-0.2-0.7-0.1-1.4,0.4-1.9l1.2-1.5c0.3-0.4,0.9-0.2,1,0.3
	c0.3,2.1,0.9,6.2,0.9,9.1C726.6,902.5,725.3,901.2,724.6,897.9z M736.9,908.8c-0.8-0.3-1.4-1.4,0-4.1c1.2-2.3,3.9-7.5,4.9-9.4
	c0.1-0.3,0.6-0.3,0.7,0c0.4,1.1,0.9,3.4-0.3,5.3C740.5,903.5,737.7,909.2,736.9,908.8z M739,915.8c-1.3-0.5-1.4-2.1-0.4-3.7
	c0.7-1.3,3.4-6,4.5-8c0.2-0.4,0.7-0.3,0.8,0.1c0.4,1.2,0.8,3.6-0.4,6.1C741.9,914,740.3,916.3,739,915.8z M741.2,919.2
	c-0.4-1.9,4.3-6.2,4.3-6.2l0.5,10.1C746,923.1,741.6,921.1,741.2,919.2z M751.7,914.3c-0.6,1.7-2.2,5.2-2.8,5.2
	c-0.6,0-0.5-7.5-0.5-7.5S752.3,912.6,751.7,914.3z M753.1,908c-0.4,2.7-2.1,2.6-3.8,1.7c-1.6-0.8-2.3-2-2.1-3.5
	c0.1-0.8,1.1-0.9,1.8-0.8c0.4,0,0.9,0.1,1.3,0.1c0.6,0.1,1.2,0.2,1.8,0.4C753,906.3,753.2,907.1,753.1,908z M752.3,900.4
	c0.2,1,1.3,4.1-1.5,3.4c-2.8-0.7-4.6-0.2-4.8-2.4c-0.2-2.2,0.5-2.7,2.8-2.2C748.9,899.2,752.1,899.4,752.3,900.4z M751,894.4v1.6
	c0,0.6-0.5,1-1.1,0.9c-1.4-0.3-3.7-0.7-4.9-1.1c-0.4-0.1-0.6-0.5-0.6-0.8v-1.5c0-0.6,0.5-1,1.1-0.9l4.7,1
	C750.7,893.6,751,894,751,894.4z M749.2,890.2c-0.1,1.2-2.4,0.7-4.4,0c-2-0.7-1.9-1.4-1.8-2.3c0-0.6,1.7-0.1,2.5,0.2
	c0.2,0.1,0.3,0.1,0.4,0.1C746.8,888.5,749.3,888.9,749.2,890.2z M740.1,879.5c0.4-0.8,3.4,2.3,3.4,2.3s3.9,3.8,3.8,4.3
	s-4.2,0.1-6-2.1C739.5,881.7,739.7,880.3,740.1,879.5z M740.7,891.7c-0.8,2-3.6,7.7-4.3,9.2c-0.7,1.4-2,0.7-2.5,0
	c-0.4-0.6,1.3-3.3,1.9-4.2c0.2-0.3,0.3-0.5,0.4-0.8c0.6-1.2,2.2-4.6,3-6C740.1,888,741.5,889.7,740.7,891.7z M738.7,884.5
	c-0.7,1.7-2.9,5.7-4.1,7.9c-0.1,0.2-0.5,0.1-0.5-0.2c0.5-2.2,1.4-6,2.2-8.4C737.5,880.4,739.7,882.2,738.7,884.5z M914.5,789.5
	c-0.5,1.1-5.7,0.9-9.2,0.2c-3.5-0.7-4.3-1.3-4.3-2.2c0-0.5,2.2-0.6,4.2-0.6c1.9,0,3.9,0.3,5.7,0.8
	C912.9,788.3,914.8,789,914.5,789.5z M922.2,781.1c0.9,0.4-3.8,5.6-5.9,5.5c-1.4,0-3-0.3-4-0.6c-0.3-0.1-0.4-0.5-0.1-0.6
	C914.6,784.2,921.5,780.7,922.2,781.1z M908.7,783.1c1-1.3,2.7-3.5,3.7-4.4c1.2-1,3.9-0.5,5.3-0.2c0.3,0.1,0.3,0.5,0.1,0.6l-8.7,4.5
	C908.8,783.7,908.4,783.3,908.7,783.1z M905.8,778.5c1.5-1.1,3.5-1.5,1.3,1.8c-2.1,3.1-2.3,4.7-5.9,4.7c-0.3,0-0.5-0.3-0.3-0.6
	C901.9,783,904.6,779.3,905.8,778.5z M894.7,782.3c1.8-1.1,6.2-3.6,6.8-3.1c0.8,0.6-2.4,4.3-3.9,4.3c-0.9,0-2.1-0.3-2.9-0.5
	C894.4,783,894.3,782.5,894.7,782.3z M829.3,702.6c7.9-3.1,15.3,2.6,19.4,6.4c4.1,3.8,9.7,5.3,9.8,10.4c0.1,5.1-1.8,6.8-9.4,14.2
	c-7.6,7.4-13.7,13.3-17.8,15.2c0,0,10.5-14.7,9.7-15.5c-0.7-0.8-3.7,1.1-6.5,5.7c-2.9,4.6-5,7.7-6.1,7.5c-1-0.2,8-18.6,10.7-23.2
	c2.7-4.6,2.4-7.6-1.1-3.9c-3.5,3.7-11.4,22.3-12,22.3c-0.6,0,8.3-19.6,7.5-19.9c-0.8-0.2-7.4,6.6-8.6,11.5c-1.3,4.9-0.8,7.5-2.2,7.6
	c-1.4,0.1-2.3-14.1-2.4-19.3C820.3,716.4,821.4,705.7,829.3,702.6z M766.8,828.4c0,0,28,2,28.2,0.3c0.2-1.7-27.5-2.5-28.1-3.2
	c-0.6-0.7,29.4-8.7,29.2-9.9s-29.8,7.5-30.4,6.2c-0.6-1.3,15.5-9.3,25.4-13.5c0.3-0.1,0.2-0.6-0.1-0.5c-2.6,0.4-7.5,1.5-13.9,4.6
	c-9.5,4.5-13,6.2-13.7,5.5c-0.7-0.8,5.3-4.7,13.3-9.1c8-4.4,21.6-11.6,28.3-10.1s7.8,5.8,7.7,10.7c0,4.9,6.4,7.3,4.7,14.9
	c-1.7,7.6-6.6,16.9-15.9,16.9S773.3,833.3,766.8,828.4z M810,846.9c0.2,0.1,0.1,0.4-0.1,0.4c-2.4,0.2-10.8,0.7-13.5,0.3
	c-2.7-0.4-4.5-3.7-5-4.8c-0.1-0.1,0.1-0.3,0.2-0.3c1.5,0.2,7.1,1,9.9,1C804.2,843.6,808.5,846,810,846.9z M759.8,789.9
	c0.9,0.5,4.3-19.9,5.6-20c1.3-0.1-2.2,27.9-0.9,28.5s2.3-25.2,3.2-25.2c1,0,2.6,13,3.3,13.2c0.7,0.2-0.9-15.3-0.9-15.3
	s8.9,9.1,12.9,16c4,6.9,0.6,9.6-3.1,12.7s-7.2,3.3-10.7,2.8c-3.5-0.5-7.2,1.4-11.2-3.1c-4-4.5-5.6-8.1-5-13.4
	c0.7-5.3,9.2-13.5,9.2-13.5S758.9,789.4,759.8,789.9z M774.8,763.7h-1.2C773.9,763.6,774.3,763.6,774.8,763.7h14.4
	c0,0-4.7-2.4-15.2-1.9c-0.1,0-0.2-0.2-0.1-0.3c1.5-1.1,7.1-5.1,14.9-7.2c9.2-2.4,15.9,3.2,14.1,9.8c-1.7,6.6-1.3,3.5-2.6,9.2
	c-1.2,5.7-2.4,8.5-8.6,6.9c-5.4-1.4-17.5-8.5-20.5-10.4c-0.1-0.1-0.1-0.3,0.1-0.3c2.7,0.5,10.9,1.9,11.4,1.6
	c0.6-0.4-11.6-3.1-11.7-4.2c-0.2-1.1,21.9,1.9,22,1.2C793.1,767.4,779.9,764,774.8,763.7z M804.6,768.3l-1.1-5.1l8.8-3.3
	c0.4-0.1,0.7,0.3,0.5,0.6C810.7,763,804.6,768.3,804.6,768.3z M803.9,773.9c-1.2,2.3-2.1,3.3-3,3.1c-0.8-0.3,0.4-2.1,0.4-2.1
	s1-1.7,2.2-3.2C804.7,770.3,805.2,771.6,803.9,773.9z M801.6,753.1c0.1-1.2,7.1,0,7.1,0C804,755,801.5,754.3,801.6,753.1z
	 M803.5,758.4c-0.5-1.9,10.7-4.1,10.7-4.1C812,757.5,804,760.3,803.5,758.4z M813.4,749.8l-27.2,1.4c0,0,4.6-4.9,5.1-8.3l22.1,5.4
	V749.8z M779.1,802.9c0,0,7.5-5.7,7.5-9.9s-3.4-7.4-0.5-8.7c2.9-1.3,5.4-1.9,8,0s6.6,3.8,6.5,6.5c-0.1,2.7-0.3,6.3-12.6,8.8
	c0,0,10.5-7.3,10.2-7.8S779.1,802.9,779.1,802.9z M795.5,781.7c0.6,0,1.7,0,2.4-0.2c0.2,0,0.4,0.2,0.3,0.4c-0.2,0.7-0.6,1.8-1.5,1.6
	c-0.8-0.2-1.3-0.9-1.5-1.4C795.1,782,795.3,781.7,795.5,781.7z M784.4,780.6c0.1,2.2-0.9,2.8-1.9,1.6c-0.9-1.2-4.3-5.9-4.3-5.9
	S784.3,778.4,784.4,780.6z M774.4,805.9c0,0,1.8-2.8,2.7-2.3C778,804.1,774.4,805.9,774.4,805.9z M758.2,813.1
	c0.4-2.4,1.2-5.3,2.6-7.3c0.5-0.7,3.9-2.8,3.1-0.7c-1,2.4-2.3,4.7-3.6,6.9c-0.2,0.3-1.2,2.5-1.9,2c-0.1,0-0.1-0.1-0.2-0.2
	C758.1,813.7,758.2,813.4,758.2,813.1z M758.2,804.7c-0.3,1.7-1.1,3-1.4,3.6c0,0.1-0.2,0.1-0.2,0c-0.1-0.9-0.5-3.9-0.3-5.4
	C756.6,801.2,758.6,802.6,758.2,804.7z M763.4,812.4c0.9-2,2.8-6.1,3.2-7.7c0,0,2.7-0.6,4.5-0.2c0.3,0.1,0.4,0.4,0.2,0.7
	c-1.1,1.5-4.5,6-7.3,7.8C763.7,813.2,763.2,812.8,763.4,812.4z M754,797.8c0,0-0.7,16.4-1.7,16.4s-5.4-19-6-28.6
	c0,0,3.2-1.4,4.7-2.1c0.3-0.1,0.6,0.1,0.6,0.4C751.6,786.2,751.9,793.8,754,797.8z M751.4,818.8c1-1.7,2-3.2,5.2-2.1
	c0,0,7.2,2,8,5.4c0.8,3.4-0.7,4.6-4.1,5.4s-6.3,1.2-9-1.4S750.4,820.5,751.4,818.8z M817.5,813c-2.9-3,0.8-6.4-4.1-11.4
	c-4.9-5-7.3-6-10.5-5.3c0,0,0.9-5.2-1.3-9.2c0,0,13.8-27.1,15.6-27c1.8,0.1-11.9,26.1-9.9,29.4c0,0,11.3-27.1,13.4-26.7
	c2.1,0.4-5.7,29.6-5.7,29.6s8.4-18.9,9.1-27.8c0,0,1.4-2.1,1.7,3.3c0.3,5.3,0.6,23.9,2.7,23.9c0,0,0.4-21.1-0.5-28.4
	c0,0,9.7,16.3,11.5,23.4c1.9,7.1,2.4,16.8-4.2,21.9S820.4,816,817.5,813z M818.6,747.6c1.9-1.1,4.8-1.4,6.9-0.2
	c0.4,0.2,0.7,0.4,1,0.7c2.8,2.8,1.5,7.9,0,11.1c-1.1,2.4-4.1,2.4-6.1,1c-1.1-0.8-2-1.9-2.5-3.2c-0.6-1.4-1.2-2.9-1.4-4.4
	C816.2,750.6,816.8,748.7,818.6,747.6z M781.8,727.7c0.5-1.5,1.2-3.9,1.2-6c-0.1-3.1,8.9-14,10.2-15.4c1.3-1.4,3.9-3.9,9.7,0.7
	c5.9,4.5,6.6,8.4,9.5,15.7c2.9,7.3,5.7,14.7,5.7,14.7s-12.3-12.7-13.2-12.2c-0.9,0.5,14.7,18.3,14.7,18.3s-11.3-8.7-15.6-13.7
	c-4.3-5-8.4-8-9-7.2c-0.6,0.8,10.2,11.5,12.4,13.4c2.2,1.9,10.3,8.9,7.8,10.5c0,0-13.4-7.4-21.1-8.5c-0.6-0.1-1-0.6-1-1.2
	c0-1.2-0.7-3.3-4.6-5.2c-3.2-1.6-5-2.3-6.1-2.6C781.9,729,781.6,728.3,781.8,727.7z M769.7,734.3c0.5-3.9,10.2-3.1,13.5-2.2
	c3.3,0.9,11,3.2,8,8.6s-16.1,16.7-16.1,16.7s5.8-11,4.8-10.8c-1,0.1-8.6,13.7-8.9,13.4c-0.4-0.3,8.9-20.9,8-21.2
	c-0.9-0.3-10.2,19.9-10.2,19.9S769.3,738.2,769.7,734.3z M768.5,760.7c1.8,1.9,2.7,4.3,0.9,6.4c-1.8,2.1-7.2,1.5-8.3,0.4
	c-1.2-1.1-1.1-4.6,2.3-6.4C763.4,761.2,766.7,758.8,768.5,760.7z M736.3,736.3c1.6-1.1,3.1-3.2,3.6-4.9s1.5-3.9,4.2-3.9
	s7.5-3.1,11.1-0.9c3.5,2.3,11.9,10.2,11.6,30c0,0.1-0.2,0.2-0.3,0.1c-1.4-2.5-8.2-14.2-8.8-13.8c-0.7,0.4,5.2,11.5,4.6,12
	c-0.6,0.4-10.4-15-11.3-15s11.7,18.9,11.3,19.3c-0.4,0.4-16.4-17.4-16.7-17.4c-0.3,0.1,11.5,15.2,13.6,17.8c0.1,0.1,0,0.2-0.1,0.2
	c-2.4-1.2-13.7-6.8-18.6-12.2C735,741.6,734.7,737.5,736.3,736.3z M732.6,747.5c1-1.4,4.2-1.4,6.9,1.4c2.2,2.2,7.1,6,9.1,7.4
	c0.2,0.2,0.1,0.5-0.2,0.4c-3.7-0.7-16.1-3.1-16.5-2.7c-0.4,0.4,7.9,1.6,7.1,2.6c-0.8,0.9-6.5,1-8.8-1.1
	C728,753.3,731.6,748.9,732.6,747.5z M725.9,768.6c-0.4-1.8-1.6-10,8.5-9.8c10.1,0.1,22.7,2.1,25.6,4c0,0-20.9-0.6-21.2,0.5
	c-0.4,1.1,20.2,0.9,20.6,2.2s-20.5,2.9-20.5,3.5c0,0.6,20-1.2,20.3-0.4c0.4,0.8-16.9,6.7-16.7,8.3c0.2,1.6,17.8-6.4,17.8-6.4
	s-7.9,9.9-14.5,14.1c-6.6,4.2-11.8,3-14.7,0.4c-2.9-2.5-5.7-4-5.6-8.7C725.8,771.7,726.4,770.4,725.9,768.6z M744.7,797.5
	c-0.7,0.4-2.9-6.2-3.5-8.3c-0.1-0.4,0-0.8,0.3-1c0.8-0.6,2.4-1.6,2.5,0.1C744.2,790.5,745.5,797,744.7,797.5z M716.6,808.5
	c-4.6-2.4-11-9.3-8-13.3c3-4,15-14.6,19.5-10.5c3.9,3.6,6.2,5.9,9.3,4.7c0.8-0.3,1.6,0.1,1.9,0.9c1.3,4,5,14.7,7.1,19.2
	c2.7,5.6,4.4,5.6,3.2,6.8c-1.3,1.3-4.3-1.9-7.5-6.1c-3.2-4.2-15.4-15.6-16.3-14.7s22.1,23,21.6,24.1c-0.5,1.1-18-15-18.6-14.6
	c-0.5,0.4,12.1,12.4,11.6,13.1C739.7,818.8,721.2,810.9,716.6,808.5z M734.8,852.6c-11.8,11.4-16.5,6-18.5,2.3
	c-2-3.7-5.9-5.7-8.6-10.9c-2.7-5.2-4.7-11.1-1.2-16.5s11.3-6.6,17.3-6.7c5.6-0.1,16.2,1.3,19.9,2c0.2,0,0.3,0.4,0,0.4
	c-3.5,1.3-18.7,7.4-18.4,9.6c0.3,2.3,13.3-6.3,19-6.4c0.3,0,0.3,0.3,0.1,0.4c-4.2,1.9-23,10.7-22.7,15c0,0,25-15.1,28.6-12.8
	c1,0.6-13.6,9.3-13.5,12c0.1,2.8,12.6-9.1,15.8-9.4C752.6,831.6,746.6,841.2,734.8,852.6z M761.9,895.5c0,0-0.6-11.1-0.4-12
	s3.8-2,4.5-1.7C766.8,882.2,761.9,895.5,761.9,895.5z M765,899.5c-1-0.3,2.7-9.7,2.7-9.7l2.3,4.2C770.1,893.9,766,899.7,765,899.5z
	 M769.8,889.7c-1.5-2.3-0.8-5.9-0.3-7.6c0.1-0.3,0.5-0.3,0.6,0c0.5,1.6,1.6,4.9,2.1,6C772.8,889.5,771.8,892.9,769.8,889.7z
	 M774,885.5c-0.9,0-0.1-3.3-1.9-5.6c-0.2-0.3-0.1-0.6,0.1-0.8c0.9-0.6,2.6-1.8,3.1-0.9C775.9,879.3,775,885.5,774,885.5z
	 M782.2,918.4c-1.1,0.2-0.2-5.4,0.9-6.3c0.8-0.7,2.7-2.3,3.7-3.2c0.2-0.1,0.4,0,0.3,0.2C786.1,911.5,783.2,918.3,782.2,918.4z
	 M791.6,902.4c0.1-0.3,0.4-0.3,0.5,0c0.6,1.6,1.9,5.7,1.6,9.2c-0.4,4.5-1.5,3.4-2.7-0.5C790,908,791.1,904,791.6,902.4z M790,914.6
	c0.3,2.6,0,3.8-1.6,5.4c-1,1-2.3,2.1-3.1,2.7c-0.2,0.2-0.5,0-0.4-0.3c0.8-2.2,2.9-7.6,3.6-9C789.2,911.5,789.6,912,790,914.6z
	 M788.1,902.2c0.4,0.5,0.6,2.5-2.7,5.1c-3.3,2.6-4.3,1-3.6,0c0.7-1,3.6-3.8,3.6-3.8S787.7,901.6,788.1,902.2z M786.5,900.1
	c-2.1,1.5-3.4,1.9-3.9,1.3c-0.4-0.5,2.5-5.2,3.6-6.8c0.2-0.2,0.5-0.2,0.6,0.1C787.2,895.9,788.1,898.9,786.5,900.1z M786.7,861
	c-4.2,8.1-3.4,10.7-6.8,12.2c-3.4,1.6-3.7,0-10,3.6c-6.2,3.6-9,3.3-13.8,0.8s-8.2-0.3-10.4-5.4c-2.2-5-2.5-18,8.6-37.6
	c0.1-0.1,0.3-0.1,0.3,0c0.7,3,5.1,21.3,6.5,21.3c1.6,0-4.1-20-2.5-20.2c1.6-0.2,14.5,32.8,16.3,32.8s-16.8-37.3-15-38.3
	s16.6,24.8,17.5,24.1c0.9-0.6-9.8-19-11.8-22.3c-0.1-0.1,0.1-0.3,0.2-0.2c2.2,1.2,10.6,5.8,14.4,9.3
	C784.7,845.1,790.9,852.9,786.7,861z M790.6,867.7c-0.4,2.6-0.3,4-0.3,4s-0.9,0.7-1.8-3.1s2.9-6.6,2.5-11.3s-4.9-11.2-3.7-13
	c0.9-1.4,2.6,0.9,3.4,2.2c0.2,0.3,0.3,0.5,0.4,0.7c1.5,2.5,2.9,5.4,2.2,8.4C792.2,859.9,791,865.1,790.6,867.7z M793.4,872.1
	c0.8-5.8,2.1-16.5,2.5-19.4c0-0.3,0.4-0.5,0.7-0.3c1.1,1,3.3,3.5,2.9,6.6c-0.5,4.1-3.5,17.7-3.5,19.8
	C795.9,878.7,792.4,878.8,793.4,872.1z M802.9,881.8c-0.1,0.5-0.5,0.9-1,0.8c-1.2-0.1-3.2-0.5-3.3-2.7c-0.1-2.9,2.9-16.1,3.3-19.8
	c0-0.3,0.4-0.5,0.7-0.3c1.4,0.9,4.4,3.6,3,8.4C804.2,873.3,803.2,879.6,802.9,881.8z M811.4,875.5c-0.4,3.1-2.3,11.8-2.3,11.8
	s-3.8-2.2-3.4-6.3c0.4-4.2,3.1-12.4,3.1-12.4S811.8,872.4,811.4,875.5z M812.7,888.8c-2-0.6,1.4-10.1,1.4-10.1s3,3.1,2.2,5.2
	C815.5,886,814.7,889.4,812.7,888.8z M820.2,892.3c-1,0.9-3.5-1.1-3.9-2s2-3.1,2-3.1S821.2,891.5,820.2,892.3z M820.6,885.6
	c-1.7-2.3-0.5-3.9-0.5-3.9s1.2-0.4,2,2.1S822.3,887.9,820.6,885.6z M819.7,879.1c-1,0.5-2.5-0.8-3.4-2.5c-0.9-1.7-2.2-4.2-2.2-4.2
	s4.2,0.2,6.1,2.5C822.1,877.2,820.7,878.6,819.7,879.1z M817.8,870.7c-3.6-0.9-7.4-4.5-7.7-5.5c-0.3-1,3.4-0.4,3.4-0.4
	s4.5,1.1,6.4,2.7C821.9,869,821.4,871.6,817.8,870.7z M819.3,864.1c-2.3-0.4-4.6-1-6.8-1.6c-2.1-0.6-6.2-1.3-7.3-3.4
	c-0.2-0.4-0.4-0.9-0.3-1.4c0.1-0.8,0.2-0.7,0.9-0.8c1.2-0.1,2.4,0,3.5,0c0.9,0,7.4-0.4,9.4,2S821.5,864.5,819.3,864.1z M816.3,853.8
	c0.5,1.9-11.4,1.2-13.6,0c-1.3-0.7-2.4-1.6-3.1-2.3c-0.3-0.3-0.1-0.9,0.3-0.9c2.2-0.2,7-0.7,9.8-0.7
	C813.4,849.9,815.8,851.9,816.3,853.8z M808.2,843.1c0,0,17.2-12,10.4-25.8c0,0,10.3,0.9,16.6-4.7c6.4-5.6,7.1-7.7,7.1-7.7
	s2.6,10-3,18.1c-5.6,8.1-5.6,11-9.8,14.9C825.4,841.8,817.9,844.7,808.2,843.1z M844.8,835.7c2.3,1.5-2,3.3-3.2,3.8
	c-0.1,0.1-0.3-0.1-0.3-0.2C841.6,838.1,842.5,834.2,844.8,835.7z M839.4,832.9c-2.7,2.7-4.1,2.5-2.8,0c1-2.1,3.5-4.8,4.3-5.7
	c0.1-0.1,0.3-0.1,0.3,0.1C841.4,828.2,841.6,830.7,839.4,832.9z M832.5,847.3c-1.9-0.8-4-1.3-4.9-1.6c-0.2,0-0.2-0.3,0-0.4
	c1.5-0.7,6.1-2.5,7.5-0.4C836.7,847.6,835.1,848.3,832.5,847.3z M831.1,841c-0.2,0-0.3-0.2-0.1-0.3c1.8-1.4,7.5-6,7.7-3.5
	C838.9,839.7,833.1,840.8,831.1,841z M840.3,853c-0.6,0-1-0.6-1-1.3s0.5-1.3,1-1.3s1,0.6,1,1.3S840.8,853,840.3,853z M845.3,847.2
	c-0.7,0.1-5.2,0.4-7.1-0.8c-1.7-1.2-0.9-3.1-0.6-3.6c0-0.1,0.1-0.1,0.2-0.1c0.5,0.1,2.8,0.4,5.3,2.6
	C844.6,846.6,845.1,847.1,845.3,847.2C845.4,847.2,845.4,847.2,845.3,847.2C845.4,847.2,845.5,847.3,845.3,847.2z M856.5,840.2
	c-0.7,0.9-3.5,4.2-6.1,5.5s-3.7,0.5-4.8-0.8c-0.9-1-1.2-2.2-1.3-2.7c0-0.1,0-0.2,0.1-0.2C846,841.8,857.2,839.3,856.5,840.2z
	 M850.2,835.4c3.6,0.4,4.2,0.8,2.6,1.9c-1.4,0.9-4.4,1.7-5.2,1.8c-0.1,0-0.2,0-0.2-0.2C847.3,838.1,847.1,835,850.2,835.4z
	 M847,832.4c-1.8,1.6-3.3-1.3-3.3-3.3c0.1-1.6,0.6-3.6,0.9-4.5c0-0.2,0.3-0.2,0.3,0C845.8,826,848.6,831.1,847,832.4z M846.9,806.5
	c-0.1,0.4-0.6,0.5-0.8,0.2c-0.9-1.3-2.7-4.4-3.1-8.7c-0.5-4.5-0.8-8.5-0.9-10.1c0-0.4,0.4-0.6,0.7-0.4c1.5,1,4.7,3.8,4.6,10.6
	C847.3,803.1,847.1,805.4,846.9,806.5z M843.5,784.4l1-0.7c0.1-0.1,0.3-0.1,0.5,0c1.2,0.7,7.1,3.6,9.8,3.5c3.1-0.1,5.7-0.1,8.4-1.8
	c1.9-1.2,5.2-0.4,7.1,0.2c0.4,0.1,0.4,0.7,0,0.8c-2,0.5-5.8,1.5-9.7,2.3c-5.4,1.1-10.7,1.4-17.1-3.6
	C843.3,784.9,843.3,784.6,843.5,784.4z M854.2,813.1c-1.4-0.3-4.7-1.5-4.7-5.6c0-4.2,0.5-9.3,0.7-11.2c0-0.3,0.4-0.5,0.7-0.3
	c1,0.7,2.8,2.8,3.1,7.9c0.2,5,0.6,7.6,0.8,8.7C854.7,812.9,854.5,813.1,854.2,813.1z M863.1,817.3c-1.8-0.7-5.7-2.6-6.3-6.3
	c-0.6-3.8-0.3-8-0.1-9.7c0-0.4,0.5-0.5,0.7-0.3c1.1,1,3.4,3.5,4.4,8.5c0.8,4.1,1.4,6.2,1.8,7.2C863.8,817.1,863.5,817.4,863.1,817.3
	z M865.9,815.5c-1.2-2.7-1.6-6.9-1.8-8.6c0-0.3,0.3-0.6,0.6-0.4c1.4,0.8,4.6,2.8,5.7,6.7C871.8,818.2,867.4,819,865.9,815.5z
	 M877.6,817.4c-2.2,1.2-4-3-4.8-5.2c-0.1-0.4,0.3-0.8,0.7-0.5C875.5,813,879.8,816.1,877.6,817.4z M886.4,818.4
	c-0.6,0.9-5.4-2.3-5.4-2.3S886.9,817.5,886.4,818.4z M892,816.7c-1.1,0.6-3.5-0.6-4.5-1.2c-0.2-0.1-0.3-0.5-0.1-0.7
	c0.4-0.5,1.3-1.2,2.5-1.6C891.6,812.7,893.3,815.9,892,816.7z M886,812c-2,0.4-4.6,0.1-6.1-0.2c-0.4-0.1-0.5-0.7-0.1-0.8
	c2-0.8,5.7-2.1,7.9-2.1C890.9,808.8,889.1,811.3,886,812z M886.6,805.3c0.2,0.3,0.1,0.7-0.3,0.7c-1.6,0.2-5.5,0.8-8.6,1.5
	c-3.1,0.7-6.8-1.1-8.5-2.1c-0.3-0.2-0.3-0.7,0.1-0.8c2.1-0.6,7.2-1.8,10.4-2.6C882.7,801.2,885.5,804,886.6,805.3z M882.3,798.8
	c-0.3,0-10.6,1.7-13.7,2.9c-2.4,0.9-6.8-1.5-8.9-2.8c-0.4-0.2-0.2-0.8,0.2-0.8c3.1-0.3,11-1.1,14.9-2.5
	C879.7,793.9,882.6,798.8,882.3,798.8z M878.6,791.6c0.3,0.3,0.1,0.7-0.3,0.7c-1.4,0.1-4.5,0.4-7.9,1.7c-4.5,1.6-15.3,3.1-18.5-1
	c-0.2-0.3,0-0.7,0.3-0.7c2.6-0.1,11.5-0.6,16.1-2.1C873.2,788.6,876.9,789.8,878.6,791.6z M899,761.6c0.8,0.5-4.1,3.8-5.2,4.6
	c-0.1,0.1-0.3,0.1-0.5,0l-3.1-1.6c-0.4-0.2-0.3-0.7,0.1-0.8C892.7,762.9,898.3,761.1,899,761.6z M885.8,757.6c3.3-0.1,6,0.3,7.7,0.7
	c0.5,0.1,0.5,0.8,0,0.9l-11.4,3.1c-0.3,0.1-0.5-0.1-0.6-0.4C881.3,760.7,881.4,757.7,885.8,757.6z M881.6,766
	c0.8-0.8,2.6-1.7,5.4-0.3c2.4,1.1,3.5,1.8,4,2.2c0.3,0.2,0.2,0.6-0.1,0.8l-1.1,0.6c-0.1,0.1-0.3,0.1-0.4,0c-1-0.4-5.5-2.1-7.7-2.4
	C881.4,766.8,881.3,766.3,881.6,766z M879.5,768.6l4.2,1.6c0.4,0.2,0.4,0.8-0.1,0.9l-5.2,0.9c-0.4,0.1-0.6-0.3-0.5-0.6l1-2.5
	C879,768.6,879.3,768.5,879.5,768.6z M859.2,741.2c12.6-1.3,14.2,1,16.4,7.6c2.2,6.6,5.1,7.5,2.6,13.3c-2.5,5.8-4.5,8.8-5.1,12.6
	c-0.6,3.8-6.4,5.7-9.6,6.8c-3.2,1.1-5.4,3.1-11.8,1.9c-6.4-1.2-13.4-9.1-20.5-21.2c0,0,18.9,11.8,23.4,11.8c0,0-24-14.9-24-18
	c0-3.1,30.1,18.3,38.1,15.3c0,0-30.1-14.6-33.1-16.3c-3-1.7,19.4,4.7,20.2,2.2c0.8-2.5-21.1-5.4-21.1-5.4S846.6,742.5,859.2,741.2z
	 M890,745.6c-0.9,0.4-1.6-2.3-2.6-4.7c-1-2.4,0.2-3,2,0C889.5,740.9,890.9,745.2,890,745.6z M896.6,747.9c0,0-4.3,1.3-4.4-7.1
	C892.1,740.9,896.9,741.4,896.6,747.9z M902.5,749.6c-1.3,0.4-3-1.6-4.5-4.8c-0.4-0.8-0.6-1.7,0.3-2.2c0.7-0.4,1.5-0.4,2.2-0.2
	c0.3,0.1,0.6,0.3,0.8,0.5c1.2,0.9,1.7,2.4,2,3.7C903.4,747.5,903.6,749.3,902.5,749.6z M907.5,749.9c-2.5,0.2-4.2-5.8-1.8-6.3
	c0.1,0,0.1,0,0.2,0c1.7,0,2.9,1.6,3.4,3.1C910,748.5,909.5,749.7,907.5,749.9z M918.7,745.6c-1.1,0.7-3.8,2.4-5.2,2.3
	c-1.6-0.1-1.7-2.2-1.7-2.9c0-0.1,0.1-0.2,0.2-0.2l6.7,0.5C918.8,745.3,918.9,745.5,918.7,745.6z M919.2,738.2c1.4,0.2,2.8,3,3.2,3.8
	c0.1,0.1,0,0.3-0.2,0.3l-9.4-0.2c-0.2,0-0.2-0.2-0.1-0.3C914,740.8,917.8,738,919.2,738.2z M915.8,735.6c0.1,0.1,0.1,0.2,0,0.3
	c-0.8,0.6-3.8,3-6,4.3c-2.1,1.3-5.1,0.5-6.1,0.1c-0.1,0-0.2-0.2,0-0.3c1.4-0.8,6.7-4,7.9-5.2C912.8,733.6,915.1,735.1,915.8,735.6z
	 M907.2,732.5c1.4,0.4,1.9,0.7-0.6,2.2c-2.5,1.5-5.3,3.3-7,4.1c-0.8,0.4-1.8,0.7-2.7,0.7c-0.5,0-1,0-1.4-0.1c-0.1,0-1.1-0.5-0.9-0.7
	c1.2-0.9,2.6-1.4,3.9-2.1c1.4-0.8,2.8-1.6,4.1-2.6C903.9,733.2,905.5,732,907.2,732.5z M896.7,731.4c1-0.6,2.2-0.8,3.3-0.6
	c0.7,0.1,1.5,0.3,2.2,0.6c0,0-4.4,2.9-8,4.7c-3.6,1.8-4.9,1.9-5.8,1.2c-1-0.7,3.9-3.1,3.9-3.1C893.8,733.4,895.3,732.3,896.7,731.4z
	 M881.5,733.5c2.9-1.5,6-2.1,6-2.1s5.7-1.6,6.3-0.8c0.6,0.7-4.6,2.3-8.3,3.5C881.7,735.2,878.6,735,881.5,733.5z M879,736.7
	c1,0,2.1,0.3,3,0.7c0.4,0.2,0.9,0.4,1.2,0.7c0.3,0.2,0.6,0.4,0.8,0.7c1,1.2,1.4,3,1.6,4.4c0,0.1-0.1,0.2-0.2,0.1
	c-1-0.9-4.7-4.3-6.5-6.5C878.8,736.9,878.8,736.7,879,736.7z"/>
</svg>
