<?xml version="1.0" encoding="utf-8"?>
<!-- Generator: Adobe Illustrator 22.0.1, SVG Export Plug-In . SVG Version: 6.00 Build 0)  -->
<svg version="1.1" id="Layer_1" xmlns="http://www.w3.org/2000/svg" xmlns:xlink="http://www.w3.org/1999/xlink" x="0px" y="0px"
	 viewBox="0 0 1000 1000" style="enable-background:new 0 0 1000 1000;" xml:space="preserve">
<style type="text/css">
	.st0{fill:none;stroke:#020202;stroke-miterlimit:10;}
</style>
<path class="st0" d="M484.5,890.8c0,0,5.1-3,2.5-6.3c-2.6-3.3-7-1.1-7-1.1c-0.6-2.3-4.1-10-12.6-6.9s-14.2,13.3-14.2,13.3
	c0.4-9.5-8-20.3-15.5-19.9c-7.5,0.4-11.6,5.9-11.6,5.9c-3.5,0.4-4.7,2.3-4.7,2.3s-3.8-4.6-5.9-2c-2.1,2.6-0.4,6-0.4,6
	s-4.8,1.2-4,5.1c0.8,4,6.8,1.1,6.8,1.1c-0.7,1.6-0.4,6.1,3.3,6.2s4.3-4.4,4.3-4.4c3-0.3,5.9-0.6,6.4-3c0.5-2.3-3.6-4.3-3.6-4.3
	c1.9-2.7-1.5-6.3-1.5-6.3c2.8-2.6,8.2-5.9,12.7-4.6c4.5,1.3,10.8,6.6,11.4,14.8c0.5,8.2-5.4,18.4-12.8,22.3
	c-7.4,3.9-18.7,3.1-32.2-1.3c-13.5-4.3-28.3-12.7-35-16.6s-21.8-7.7-36-5.7c-14.2,2-32.2,16.1-32.2,16.1s-1.5-5.8-6-10.2
	c-4.5-4.4-9.3-4.5-15-7.7s-9.7-13.8-9.7-13.8c12.6,4,12.1,10.6,19.8,15.6c7.7,5,13.8,5,20.7,0.9c6.8-4.1,8.9-10,8.9-10s-5-4.5-14-6
	s-12-3.9-18.3-3.2c-6.3,0.7-10.1,3.5-15.9-0.4c-5.8-3.8-10.9-16-10.9-16s5.6,5.9,11.6,9.9c6,4,12.6,0.5,13.7-1.8
	c1.1-2.3,1.6-4,5.3-7.8c3.8-3.8,3.3-5,6-9.4c2.7-4.5,3.3-5.7,0.8-13.8c-2.6-8-9.4-8.9-13.6-10.1c-4.1-1.2-5.7-4.1-5.7-4.1
	c8.3-2,14.6-9.9,16.5-13.8s1.1-7-7.5-13.3s-19-6.7-19-6.7s1.2-8.3-2-10.2c-3.2-1.9-11.5-2.4-11.5-2.4c7.6-1.3,11.3-4.5,13.1-4.7
	c1.8-0.2,7.3,0.4,9.2,1.8c1.8,1.4,2.8,4.8,7.4,6.2s10.7,0,10.7,0s-6.1-7.8-9.1-9c-3-1.2-5.5,0.3-7.8,0.3s-6.7-2-6.7-2
	s13.6-4.6,20.4-6.7c6.8-2.2,9-0.3,9-0.3c0.4,8,7.6,10.8,14.6,10.4c7-0.4,10.4-10.5,10.4-15.9c0-5.4-3-8.1-5.2-9.5
	c-2.1-1.5-12.6-3.8-16.8,0.3c-4.2,4.1-4,11.7-4,11.7c-7.2-0.7-15.3,3.6-15.3,3.6s0.2-3.9,2.8-5.3s4.6-1.8,5.5-4.7
	c1-2.8-1.3-3.6-3.7-2.1c-2.4,1.5-5.9,8.8-7.4,11.3s-9.8,5.2-9.8,5.2s3.2-3.5,1.8-6.6s-1-3-1.6-6.3s-2.8-4.9-5.2-5.8
	c-2.3-1-2.9-1.8-4.2-3.5c-1.3-1.8-6.7-0.8-6.7-0.8l0.7-1.6c0,0,5.1,0.2,7,0.2c1.9,0,5.4,4,9.4,5.6s7.9-1.7,9.8-3.2
	c1.8-1.5,3.4-3-3-3.9c-6.4-0.9-17.9-1.6-17.9-1.6s4-2,6.3-2.7c2.2-0.7,4.2-0.2,9.2-0.6c5-0.5,8.5-3.7,10.5-6.2s9.2-8.5,7.9-9.7
	c-1.2-1.1-9.5-1.4-15,0.1c-5.5,1.5-9.8,8.2-11.8,12c-2.1,3.7-6.3,5-6.3,5l0.4-1.2c0,0,1.1-0.7,3-3.4c1.9-2.7,2.6-9.5,2.1-12.6
	c-0.5-3.1-0.8-8.2-1.8-8.2c-1,0-4.4,1.9-7.5,8.9c-3.1,7-0.8,11.8,0.5,14.7c1.3,3-6,7.9-6,7.9s-3-3.9-6.7-6c-3.7-2.1-6.6,2.2-7.2,1.8
	c-0.6-0.5,2.3-5,3.2-6.3s1.9-1.4,5.6-1.9c3.7-0.5,6.1-4.3,4.1-5.9c-2-1.5-8.1,3.4-8.1,3.4v-7.1c0,0,5.5-1.9,8-4s2.3-5.3,2.9-8.5
	c0.6-3.1,4.2-8.5-1.2-11.1s-9.8,0-9.8,0c-2-5-6.2-8.4-9.5-6c-3.3,2.4-5.6,9.2-5.6,9.2s-5.3-1.8-7.8,1.1c-2.5,3-2.2,9.4,2.1,13.6
	c4.3,4.2,6.5,4.7,9.4,4.7c2.9-0.1,3.7-0.5,5.6,0.2c1.9,0.7,3.5,0.7,3.5,0.7s0.4,2.7,0.2,5.8s-2.1,5.1-2.1,5.1s-0.2-2.1-0.6-4.4
	c-0.5-2.3-1.8-3.2-3-2.4c-1.1,0.8-1.3,2.7,0.9,5.6c2.2,2.8,0.9,5.2,0.9,5.2s-1.6-1.2-4.8-2.8s-3.7-0.2-9-0.2
	c-5.3-0.1-8.6,0.2-8.6,0.2c-1.9-6.9-10.5-18.1-14.3-18.3c-3.8-0.2-5.7,1.8-12,6.9c-4.9,4-5.9,8-6.1,9.5c0,0.2-0.3,0.3-0.5,0.1
	c-1.3-1.4-3.9-3.3-3.9-3.3s-0.4-4-1.6-7.6c-1.2-3.7-5.7-7.5-9.3-8.1s-8.1-1.1-11.4,0.8c-3.3,1.8-5.5,2-7.8,3.7
	c-2.3,1.7-3.7,4.4-9.2,7.7c-5.5,3.4-5,6.9-4.2,11.5c0.8,4.6,10.1,14,10.1,14s-12-5.5-14.7-9.4c-2.7-3.9-3.1-11.5-1.8-14.3
	s1.2-7.3,0.7-10.8c-0.5-3.5-3-7.7-3.2-11.9s-1.1-5.7-2.8-8.9c-1.7-3.1-2.7-4.4-6.5-1.7c-3.8,2.7-9.8,8.4-10.1,15.2
	c-0.2,6.8,5.1,14.1,12.1,20c6.9,5.9,8,11.8,8,11.8c-4.4-0.8-13.2-6.3-14.2-10.2c-1-3.8-6.5-13.9-10.4-16.9c-3.9-3-10.9-5.1-10.9-5.1
	s1.1-1.6,5.9-7.7c4.9-6,6.3-11.7,9.9-20.4s3.1-5.8,2.9-21.2c-0.2-15.3-4.7-19.3-11.2-31.8s-11.3-26.8-12.8-31.2s-5.2-22.6,3.5-31.2
	s16.9-8.8,20-8.7c3.2,0.1,14.3,5,14,13.7c-0.2,8.7-5.2,10.7-5.2,10.7s-0.6-0.8-2.4-1.6c-1.8-0.7-3.4,0.3-3.4,0.3s-2.4-4.6-4.9-3.8
	c-2.4,0.8-2,6.4-2,6.4s-4.6-1.2-4.5,3.5c0.1,4.7,6,4.1,6,4.1s-2,5.8,1.6,6.6c3.6,0.8,4.1-4.4,4.1-4.4s3.6,3.3,5.9,0
	c2.3-3.3-1.1-6.3-1.1-6.3c2.3-0.6,1.6-3.9,1.6-3.9c8.1-5.3,7.7-14.5,1.3-21.1c-6.4-6.6-15.1-6-15.1-6c6.5-4.9,11.9-8.5,13.9-16
	c2-7.4-7.3-11.6-7.3-11.6s2.5-2.8-0.4-5.8s-7.1,1.5-7.1,1.5s-3.2-3.7-6.2-1.2c-3,2.4-0.5,6.4-0.5,6.4s-3.9,4.1-2.9,6.9
	c1.1,2.8,6.6,0.9,6.6,0.9s-0.7,5.2,4.6,5.1s4.5-4.9,4.5-4.9c4.4,0,4.8-3.9,4.8-3.9c3.5,2.4,3.1,5.6,0.7,10.4
	c-2.4,4.8-7.5,9.2-12.1,11.5s-10.4,2.9-14,6.6c-3.6,3.7-7.2,7.8-7.9,18.5c-0.7,10.7,3.6,28.1,10.1,39.7s9.1,16,12.6,23
	s3.9,14.4,4,23.2c0.1,8.8-2.3,10.3-5.5,19.2C103,683.5,94.9,695,92.6,697s-9.2,2.9-14.8,2.6c-5.6-0.3-9.8-3.5-10.8-1.8
	c-1,1.7,0.7,4,3.9,10.9c3.2,7,4.9,9.1,7.1,9.7s4.3,1,6.5,3.4s3.1,5,10.6,7c7.5,2,19.7-0.8,21.1-0.4c1.4,0.4,15.2,7.4,15.2,7.4
	s-4.9,1.6-7,1.4s-12.9-6.1-18.3-6.4s-13,0.9-20,3.8s-10.3,7.8-11.8,9.5c-1.5,1.7-4.7,3.2-1.2,4.8c3.5,1.6,2.6,3,11.3,5.6
	c8.6,2.6,15.8,1.3,25.3-2c9.5-3.3,12.3-10.1,14.2-11.8c1.9-1.7,3.1-2.1,9.7-2.3s11.8,4.1,11.8,4.1s-6.5-0.8-13.5-0.4
	c-7,0.5-8,3.2-9.4,7s-3.9,9.6-3.9,9.6s-1.7-0.3-6.9-1s-10.9,1.6-16.5,3.4c-5.6,1.8-0.8,4.6,2.7,6.4c3.5,1.8,4.6,3.4,10.2,7.5
	c5.6,4.1,14.7,3.2,14.7,3.2c0.1,2.6,3.5,5.6,3.5,5.6s-14.6,1.4-18.7,0s-6.4-5.5-12.8-5.6s-17.8,0-20.6-0.2s-3.2,0.5-0.6,5
	c2.5,4.5,6.2,13.7,15.7,13.8c9.5,0.1,19.5-7.2,23.2-8.7c3.7-1.5,13.3-1.3,13.3-1.3c-11.9,9.4-5.6,7.5-10.6,13.5
	c-5,6-4.8,6.8-8.6,14.6c-3.8,7.8-7.7,6.7-7.4,9.8s7.3,2.7,11.5,1.8c4.2-0.9,6.3-2.6,17.9-2.3c11.6,0.4,8.1-1.5,15.1-3.7
	c7-2.2,9.6-5.9,9.6-5.9l0.7,9.1c0,0-3.5,6-4.8,8.8s-5.4,1.9-9.1,1.9s-3.8,2.3,0,3.6s9.1,8.2,9.1,8.2s-0.1,3.2,2.5,6.2
	c2.6,3,7.6,8.2,9.3,11.4c1.7,3.2,3.3,1.7,3.2-3.2s2.2-10.6,2.2-10.6c8.1,0.1,13.3-5,13.3-5l7.9,0.7c0,0-8.6,14.9-8.6,19.9
	s0.7,16.4-1.3,20c-2,3.6-2.5,11.8-0.9,13.4c1.6,1.6,2.6,1.2,4.4-1.3s3.7-3.5,7-5c3.3-1.4,5.7-2.3,9-5c3.3-2.8,4.5-3.4,9.7-5.6
	c5.2-2.2,9-8.6,9-8.6s-0.1,5.9-0.3,10.1s-2.1,4.8-5.5,12.1c-3.4,7.3-5.5,14.5-2.1,20.1s8.1,7.6,12.9,10s4.1,0.3,4.1-2.9
	c0-3.2-1.1-4-0.3-14.6s-6.2-17.7-6.6-19c-0.4-1.4,1.1-16.2,1.1-16.2c2.5,2.3,5.6,3.2,5.6,3.2c-0.6,8.1,0.7,11.6,2.7,14.2
	c2,2.5,6.9,8.1,8.7,11.4c1.9,3.2,1.5,4.2,4.1,3.7s1.5-3.6,3.3-8.6c1.8-5,1.4-9.8,1.2-14c-0.2-4.1,0.3-2.8,10.1-6.9
	c9.8-4.1,5.8-22.6,5.8-22.6c6.1,8.9,3,17.8,2.4,20c-0.5,2.2-4.9,5.2-9.8,10.7c-5,5.5-7.4,19-5.7,26.9c1.7,7.8,7.7,16.7,9,16.8
	c1.4,0.1,5.1-5.8,8.4-8.9c3.3-3.2,6.4-11.4,7.6-22.4s-6.9-21.7-6.9-21.7l1.9-7.5c0,0,4.1,7.9,6,11.9c2,4,1.1,8.4-0.1,16.4
	s3.1,14.7,5.2,17.3s5.3,3.8,5.5,6.4s1.1,3.7,3.3,5.7s10.7,4.7,14.7,6.7c4,2,5-0.6,3.2-3.9c-1.9-3.2-2.9-12.3-0.7-16.9
	s-1.7-8.1-1.7-8.1s18.8-11.2,26.9-14.2c8-3.1,20.7-3.1,27.5-1.1c6.8,2,19.9,8.9,29.3,14.6c9.4,5.7,25.2,11.4,42.6,10.7
	c17.5-0.6,22.1-16.6,23.3-20s9.2-15,15.5-15.6c6.3-0.6,7.4,2.1,7.4,2.1c-3.2,1.4-3.9,5.2-3.9,5.2s-3.3-1.5-5,2.9
	c-1.7,4.4,5.3,6.3,5.3,6.3s-3.3,4.6,0.6,6.6c4,2,6.4-3.5,6.4-3.5s3.6,3.7,6.6,0.3C488.9,894.1,484.5,890.8,484.5,890.8z
	 M416.9,886.5c-0.9,0.2-1.8,0-1.9-0.6c-0.1-0.5,0.5-1.2,1.4-1.4c0.9-0.2,1.8,0,1.9,0.6C418.4,885.7,417.8,886.3,416.9,886.5z
	 M418.3,881.3c-0.5-0.7-0.5-1.5-0.1-1.8s1.2,0,1.6,0.7c0.5,0.7,0.5,1.5,0.1,1.8S418.8,882,418.3,881.3z M421.9,891
	c-0.6,0-1.1-0.8-1.1-1.9c0-1,0.5-1.9,1.1-1.9c0.6,0,1.1,0.8,1.1,1.9C423,890.2,422.5,891,421.9,891z M423.2,885.1
	c-0.3,0.6-1.2,0.7-2.1,0.3s-1.3-1.3-1-1.8c0.3-0.6,1.2-0.7,2.1-0.3S423.5,884.5,423.2,885.1z M423.2,882.4c-0.4-0.2-0.4-1,0-1.9
	s1.1-1.4,1.5-1.2c0.4,0.2,0.4,1,0,1.9C424.3,882.1,423.6,882.6,423.2,882.4z M428.5,886.4c-0.1,0.4-1.1,0.4-2.2,0.2s-2-0.7-1.9-1.1
	c0.1-0.4,1.1-0.4,2.2-0.2S428.6,886,428.5,886.4z M296.3,883.3c-0.8,0.6-2.6-0.5-5.4-3.2c-0.7-0.7-1.4-1.4-2.1-2.2
	c-0.2-0.3-1.3-1.9-0.3-1.5c1.2,0.5,2.2,1.1,3.2,1.8c0.8,0.6,1.5,1.2,2.2,1.8C294.2,880.4,296.9,882.8,296.3,883.3z M304.2,886.1
	c-0.6,0.2-1.4,0-2-0.2c-1.5-0.6-2.8-2.9-4.2-4.6c-0.4-0.5-1.2-1.5-0.9-2.2c0.3-0.6,1.3-0.2,1.7,0c0.8,0.4,1.4,0.9,1.9,1.5
	c0.1,0.2,0.3,0.3,0.4,0.5c1,1.3,2,2.6,3,3.9C304.7,885.5,304.9,885.9,304.2,886.1z M313.9,881.8c-1.5-0.4-2.7-3-0.8-3
	c1.9,0,4.1,0.3,4.1,0.3S315.5,882.3,313.9,881.8z M311.2,873.4c1.7,0.1,3.6,1.6,4.6,2.4c0.2,0.2,0.1,0.6-0.2,0.6H308
	C308,876.4,308.8,873.3,311.2,873.4z M308.6,880.4c1.1,0.7,2,2,2.5,2.8c0.2,0.4,0.1,0.9-0.2,1.2l-1.9,1.2c-0.4,0.2-0.8,0.2-1.1-0.2
	l-4.1-4.7c-0.3-0.3-0.1-0.8,0.3-0.8C305.3,879.7,307.4,879.6,308.6,880.4z M304.3,872.3c0.5-0.2,1.1-0.3,1.6-0.1
	c0.5,0.1,1.1,0.4,1.2,0.9c0.1,0.7-0.6,1.3-1.1,1.7c-0.2,0.2-0.5,0.4-0.8,0.6c-1.4,0.9-3.5,1.6-5.2,1.1c-0.1,0-0.2-0.1-0.3-0.2
	C298.6,875.3,303.5,872.6,304.3,872.3z M299.6,871c1.6,0.3-1.6,2.5-1.6,2.5s-2.6,2-5,1.6c-2.4-0.4,0.7-1.8,2.4-3
	C296.9,871,298.1,870.6,299.6,871z M284.6,871l9.2-1c0.2,0,0.3,0.2,0.2,0.3c-0.8,1-3.2,3.7-6,3c-2.5-0.6-3.3-1.5-3.6-2
	C284.4,871.2,284.5,871,284.6,871z M289.6,764.4c0.7,0.1,2,0.8,2.4,1.5c0.1,0.2,0,0.5-0.3,0.6c-0.5,0.1-1.2,0.2-2.2-0.4
	C288.2,765.3,288.8,764.3,289.6,764.4z M286.5,762.6c2,0,2.5,0.4,1.5,1.3c-0.5,0.4-1.2,0.5-1.8,0.5c-0.1,0-0.2,0-0.3,0
	c-0.8,0.1-2.2,0.1-2.4-0.8C283.2,762.3,284.5,762.6,286.5,762.6z M282.5,765.1c1.8,0.7,6.4,2.3,9.3,3c0.3,0.1,0.2,0.5,0,0.5
	c-2.6,0.2-8.1,0.3-9.7-3C281.9,765.3,282.2,765,282.5,765.1z M314.7,752.4c-2.6-0.3-3-5-2.8-6.9c0.1-1.9,3.8-2.6,4.9,2.3
	C316.7,747.7,317.3,752.7,314.7,752.4z M315.4,761c-0.2,0-0.3-0.2-0.3-0.3V756c0-0.3,0.3-0.4,0.5-0.3c1.4,0.8,5.1,2.8,5.9,3
	C322.6,758.8,318,761.6,315.4,761z M323.3,756c-0.9,1-1.5,1-3.1,0c-1.2-0.7-2.8-1.7-3.6-2.2c-0.2-0.1-0.2-0.4,0-0.5
	c0.8-0.6,2.5-2.4,2.2-6c0-0.3,0.4-0.5,0.6-0.3c1.2,1.4,3.6,4.2,5.2,4.8C326.7,752.7,324.2,755,323.3,756z M316.1,737.7
	c1.4,0.1,7,0.6,9.3,5.6c2.6,5.8-0.6,7.9-2.5,5.6c-1.9-2.3-3.6-5.5-8.8-6.2c-0.4-0.1,1.6-3.3,1.7-4.8
	C315.8,737.8,316,737.7,316.1,737.7z M306.5,739.8c1-1.1,2.4-1.8,3.8-2.1c1-0.2,3.2-0.4,3.7,0.8c0.2,0.4,0,0.9-0.3,1.3
	c-0.5,0.7-1.1,1.2-1.7,1.8c-0.6,0.5-1.2,1.1-1.6,1.9c-0.7,1.6-0.8,3.5-0.1,5.1c1.3,3,3.2,5.5,3.3,8.9c0.1,3.4-1.3,4.6-4.4,2
	C303.9,755.1,301.6,745.4,306.5,739.8z M291.2,743.6c0.5-0.5,1.1-0.7,1.4-0.5c0.3,0.3,0.2,0.9-0.3,1.4c-0.5,0.5-1.1,0.7-1.4,0.5
	C290.6,744.7,290.8,744.1,291.2,743.6z M273.3,732.1c0.1-0.1,0.6,0,0.8,0c0.7,0,1.3,0.1,2,0.2c1.4,0.1,2.9,0.2,4.2,0.7
	c0.2,0.1,0.6,0.2,0.6,0.4c0.1,1-4.8,0.4-6.2,0c-0.5-0.1-0.9-0.4-1.2-0.8C273.4,732.6,273.3,732.4,273.3,732.1
	C273.3,732.2,273.3,732.2,273.3,732.1z M272,733.9c0.9,0.4,4.2,1.6,10.3,1.3c0.1,0,0.2,0.1,0.1,0.2c-0.6,0.7-2.7,2.7-6.2,2
	c-3.3-0.8-4.2-2.6-4.4-3.3C271.8,734,271.9,733.9,272,733.9z M289.3,718.8c-0.1,0.1-0.2,0.2-0.2,0.2c-0.2,0.2-0.3,0.3-0.5,0.4
	c-0.4,0.2-0.8,0.3-1-0.1c-0.6-0.9,1-2.1,1.5-2.5c0.4-0.4,1.1-0.5,1.6-0.1c0.1,0.1,0.1,0.1,0.2,0.2c0,0.1,0,0.1,0,0.2
	C290.6,717.8,289.8,718.3,289.3,718.8z M286,713.1c0.8-0.8,8.1-1.2,8.1-1.2l-8.7,5.5C285.5,717.4,285.2,713.9,286,713.1z
	 M285.6,719.6c0.4,0.1,0.7,0.4,1,0.8c0.4,0.6,0.4,1.1-0.2,1.5c-0.4,0.3-0.8,0.5-1.3,0.7c-0.7,0.3-1.5,0.4-2.2,0.3
	c-0.4,0-0.9-0.1-1-0.6c-0.2-0.6,0.6-1.2,0.9-1.5c0.6-0.5,1.3-0.9,2.1-1.1C285.1,719.6,285.4,719.5,285.6,719.6z M283.7,712.5
	c1.3-0.3,0.6,5.1,0,5.9c-0.6,0.9-3,2.2-3,2.2S282.3,712.9,283.7,712.5z M281.8,723.9c0.1,0.4,0.1,0.8-0.3,1
	c-0.2,0.1-0.4,0.2-0.5,0.2c-0.5,0.1-1.1,0.1-1.7,0.1c-0.4,0-0.7,0-1.1-0.1c-0.2,0-0.4-0.1-0.5-0.2c-0.2-0.3,0.1-0.9,0.4-1.1
	c0.6-0.4,1.5-0.4,2.2-0.4C280.7,723.3,281.6,723.2,281.8,723.9z M277,717.9c1-1.4,2.9-2.4,2.4,0s-1,4-1,4c-0.2,0.1-2.8,2.1-3.7,2.1
	C273.7,723.9,276,719.3,277,717.9z M268,708.5c0.5,0.3,1.2,5.5,0.8,8.5c-0.3,3-4.4,8.6-4.4,8.6C264.1,722.3,267.5,708.3,268,708.5z
	 M261.9,715c1.4-4,3.5-5.9,3.5-5.9s-2.7,11.9-2.6,13.3S260.5,719,261.9,715z M249.7,718.8c1.1-0.6,2.3-1.5,3.6-1.7
	c0.2,0,0.3,0,0.5,0c1.1,0.3-0.6,1.5-0.9,1.7c-0.3,0.2-0.6,0.5-0.9,0.7c-0.3,0.2-0.7,0.4-1.1,0.5c-0.5,0.2-1.7,0.6-2.1,0.1
	C248.3,719.6,249.3,719.1,249.7,718.8z M247.9,693.7c-0.1-2.8,1.4-4.4,4.7-4.3c3.2,0.1,4.4,1.5,4.3,5.3c-0.1,3.8-2.4,6.7-4.3,7.5
	c-1.8,0.9-3.9,0-2.4-1.4c1.5-1.4,2.6-2.3,1.7-3.1c-0.9-0.8-5,3.5-5,3.5S248.1,696.4,247.9,693.7z M235.7,687.7
	c2.6-3.5,8.1-4.8,9.6,0.5c1.6,5.2,0.7,7.3,0,10c-0.7,2.8-3.5,3.1-3.9,1s0.8-4.4-0.6-4.4c-1.4,0,0,5.4-2.2,5.4c-2.2-0.1-2.6-2-2.6-2
	S233.1,691.3,235.7,687.7z M224.5,696.5c1.4-2.9,6-4.6,8.5-1.1l2.5,4.4c0,0,0.7,0.7-0.9,2.2s-2.7,1.1-5.2-0.4
	C226.8,700.2,223,699.4,224.5,696.5z M233.3,709.6c-2.1-1.1-8.1-4.5-8.2-7.8c0-0.1,0.1-0.1,0.1-0.1c0.9,0.2,5.3,1,5.8,2.7
	c0.4,1.4,1.8,3.8,2.6,5C233.7,709.4,233.5,709.7,233.3,709.6z M242.3,708.5c-1.2-2.2-0.5-4.1-1.9-3.8s1.3,3.7-2.1,3.1
	c-3.4-0.6-5.7-0.8-3.4-3.1s4.7-4.1,8.6-2.4c3.1,1.3,8.4,1.2,10.5,1c0.4,0,0.6,0.4,0.4,0.7c-0.8,1.4-2.7,4.1-4.6,5.1
	c-2.5,1.3-3.5,0.9-3.2-0.6s-0.5-1.5-1.3-0.4C244.6,709.2,243.5,710.7,242.3,708.5z M123.3,686.4c0,0,3.2,5.5,2.6,7.3
	c-0.6,1.8-3.2,1.7-3.2,1.7L123.3,686.4z M118.4,687.7c1.2-1.3,2.2-1.3,2.2-1.3s-0.1,5.7-1.6,4.5S117.2,689,118.4,687.7z M114.9,693
	c0.4-0.7,1.3-0.8,1.9-0.2l1.7,1.7c0.9,0.9,1.4,2,1.4,3.3c0,0.5-0.1,0.9-0.3,1.3c-0.7,1.3-4.5-2.1-5.4-3.2
	C113.7,695.2,114.3,694,114.9,693z M113.9,701.9c-0.7-0.8-0.7-1.7-0.5-2.3c0.2-0.6,0.9-0.8,1.3-0.4c1.5,1.2,4.4,3.5,5.1,4.1
	c1,0.8,1,4.2-0.6,3.1S115.3,703.5,113.9,701.9z M122.6,715.1c-0.6,1-5.1-3.5-6.2-4.9c-1-1.5-0.7-2.4-0.2-3s2.6,0.8,3.8,2.7
	C120.1,709.9,123.2,714.1,122.6,715.1z M122.7,704.4l0.2-4.5c0,0,3.1-4.6,3.8-3.5c0.7,1.1,1.4,2.8,0.3,4.1
	C125.8,701.9,122.7,704.4,122.7,704.4z M124.8,711.2c-1-0.3-0.3-2.5,0.9-5.1c1.2-2.6,1.3-3.4,2.5-2.3s-0.8,4.7-0.8,4.7
	S125.8,711.5,124.8,711.2z M129.6,713.7c0,0-0.5,5.6-1.4,5.3c-0.9-0.3-1.8-3-1.5-5.1c0.3-2.1,1.7-3.9,2.6-4
	C130.2,709.8,129.6,713.7,129.6,713.7z M108.8,577.2c-1.5-0.5-1.9-1.8-1.1-2.1c0.8-0.3,3.1-0.1,3.2,1.1
	C110.9,576.2,110.3,577.7,108.8,577.2z M111.1,571.4c-0.1-0.4-0.3-1,0-1.4c0.2-0.3,0.5-0.3,0.8-0.5c0.4-0.2,0.8,0.4,1,0.7
	c0.1,0.1,0.1,0.2,0.2,0.4c0.2,0.6,0.5,1.4,0,1.7C112.6,572.6,111.6,573.1,111.1,571.4z M114,581.6c-0.2,1.4-0.9,1.7-1.5,1.4
	c-0.4-0.2-0.6-0.3-0.6-0.8c0-0.8,0.2-1.8,0.9-2.3c0.1-0.1,0.3-0.2,0.4-0.2c0.1,0,0.1,0,0.2,0C114,580,114.1,581.2,114,581.6z
	 M114.8,578.4c-1.2,0.7-2.2-0.9-2.7-1.9c-0.5-1-0.3-2.1,0.5-2.5c0.4-0.3,1-0.1,1.3,0.2c0.3,0.3,0.6,0.6,0.8,1
	C115.5,576.2,115.8,577.9,114.8,578.4z M116.8,573.1c0.4-0.3,1-0.4,1.5-0.4c0.3,0,0.5,0.1,0.6,0.2c0.2,0.2,0.2,0.6,0.1,0.9
	c-0.1,0.5-0.5,0.8-0.9,1.1c-1.3,0.9-1.7,0.6-2.2,0C115.6,574.3,115.9,573.7,116.8,573.1z M119,580.2c-0.7,0.6-1.9-0.2-2.4-0.9
	c-0.5-0.8-0.7-1.7,0-2.3c0.7-0.6,1.6,0.3,1.9,0.8C119.2,578.7,119.6,579.8,119,580.2z M109.6,514.8c0.8-0.6,2.2-0.3,2.7,0
	c0,0,1.3,0.6-0.6,1.9c-0.7,0.5-2.3,1.9-3,0.9C108.1,516.8,108.8,515.4,109.6,514.8z M104,522.8c-0.7,0.8-3.6,1.3-3.1-0.5
	c0.1-0.3,0.3-0.6,0.6-0.8c0.4-0.4,1-0.7,1.5-0.9c0.4-0.2,0.8,0.1,1.1,0.3c0.1,0.1,0.2,0.2,0.3,0.3
	C104.7,521.7,104.3,522.4,104,522.8z M103.7,517.7c-0.4-0.4-1-0.9-1.3-1.4c-0.3-0.6-0.1-1.3,0.4-1.7c0.7-0.6,1.9,0.9,1.9,0.9
	s1.2,1.7,0.5,2.6C104.7,518.6,104.1,518.1,103.7,517.7z M105.8,521.3c-0.6-0.9-0.6-2.1,0.2-2.8c0.7-0.6,1.4-0.3,2,0.4
	c0.7,0.8,1,2.1,0.4,2.8C107.5,522.7,106.4,522.2,105.8,521.3z M109.8,527.1c-1,0.6-1.9-0.4-2.3-1.2c-0.2-0.4-0.5-0.9-0.5-1.4
	c0-0.5,0.2-0.7,0.6-1c0.7-0.5,1.7,1.1,2,1.6C110,525.7,110.6,526.7,109.8,527.1z M113.4,522.3c-0.8,0-1.6-0.3-2.3-0.5
	c-2.2-0.9-1.6-2.2-0.4-2.1c0.7,0,1.3,0.1,2,0.3c0.4,0.1,0.8,0.3,1.2,0.5c0.3,0.2,0.6,0.4,0.6,0.7C114.7,521.8,114,522.2,113.4,522.3
	z M98.3,703.9c1.3-0.9,3.6,4.7,3.6,4.7s3.5,9.2,2.6,9.7s-2.9-1.9-5-6.7C97.4,706.8,97,704.7,98.3,703.9z M90.4,700.1
	c1.2-0.5,3.7,0.9,4.9,5.3c0,0,2.8,9.4,1.7,9.6c-1,0.2-2.2-2.3-4.9-7.7C89.4,701.7,89.2,700.5,90.4,700.1z M83.5,701.8
	c0.8-0.1,1.6-0.1,2.3-0.1c0.5,0,0.9,0.3,1.1,0.8c0.9,2.1,3.5,8.1,3,8.6c-0.6,0.6-3.5-3.1-5.3-5.8C82.7,702.5,82.2,701.9,83.5,701.8z
	 M77,702c0.5-0.1,1.1,0.1,1.7,0.4c1.1,0.5,2.1,1.4,2.8,2.4c0.7,1,1.6,2.4,1.3,2.7c-0.4,0.5-3.2-1.6-4.8-2.7S75.7,702.3,77,702z
	 M73.9,708c-1.5-2.2-1.4-3.1-1.1-3.5c0.3-0.3,4,3.1,5.2,4.2c0.2,0.2,0.1,0.5-0.2,0.5C77,709.4,75,709.6,73.9,708z M78.6,715.5
	c-0.5-0.4-1-0.9-1.4-1.5c-0.5-0.6-0.1-1.5,0.7-1.5c1.5-0.1,3.5-0.4,4.9-1.4c0.3-0.2,0.7-0.2,1,0c1.4,0.8,5,3,5.4,3.4
	C89.8,715,79.9,716.4,78.6,715.5z M86.1,719.1c-0.7-1,2.3-1.7,4.2-2.4c1.4-0.5,4.5,0.4,6.1,0.9c0.3,0.1,0.3,0.5,0,0.6
	c-1.7,0.5-5.5,1.5-6.9,1.8C87.6,720.2,86.8,720.2,86.1,719.1z M91.4,723.7c-1.5-1.2,2.7-2.2,5.1-2.9c2.4-0.7,5.5-1.6,7.4-0.6
	c1.9,0.9-1.9,2.1-1.9,2.1S92.9,724.9,91.4,723.7z M110.6,725.7c-2.1,0.3-6.2,0.9-9.1,0.9c-4,0-2.7-1.3,0.6-2.1
	c2.1-0.5,4.2-1.1,5.3-1.4c0.7-0.2,1.4-0.1,1.9,0.4l1.5,1.2C111.3,725.1,111.1,725.7,110.6,725.7z M111.5,721.6
	c-2-0.9-3.2-2.7-4.5-6.6c-0.9-2.8-2-5.9-2.5-7.5c-0.1-0.2,0.2-0.3,0.3-0.1c1.4,1.9,4.5,6.5,5.8,8.7
	C112.2,718.9,113.6,722.5,111.5,721.6z M107.8,734.2c2.2,0.5,6,1.4,8.4,2.2c3.5,1.2,1.7,3.3-0.7,2.3c-1.7-0.7-5.7-2.9-7.9-4.1
	C107.3,734.5,107.5,734.1,107.8,734.2z M80.8,741.2c1.9-0.4,6.2,4.3,6.2,4.3L76.9,746C76.9,746,78.9,741.6,80.8,741.2z M85.7,751.7
	c-1.7-0.6-5.2-2.2-5.2-2.8c0-0.6,7.5-0.5,7.5-0.5S87.4,752.3,85.7,751.7z M94.6,749c0,0.4-0.1,0.9-0.1,1.3c-0.1,0.6-0.2,1.2-0.4,1.8
	c-0.4,0.8-1.2,1.1-2.1,1c-2.7-0.4-2.6-2.1-1.7-3.8c0.8-1.6,2-2.3,3.5-2.1C94.6,747.4,94.6,748.4,94.6,749z M95.9,744
	c-1.2,0.4-3.6,0.8-6.1-0.4c-3.8-1.7-6.1-3.3-5.6-4.6s2.1-1.4,3.7-0.4c1.3,0.7,6,3.4,8,4.5C96.3,743.3,96.2,743.9,95.9,744z
	 M100.8,748.9c0,0-0.3,3.2-1.3,3.4c-1,0.2-4.1,1.3-3.4-1.5c0.7-2.8,0.2-4.6,2.4-4.8C100.8,745.9,101.3,746.5,100.8,748.9z
	 M99.3,742.1c-2.8-1.6-8.5-4.4-8.1-5.2c0.3-0.8,1.4-1.4,4.1,0c2.3,1.2,7.5,3.9,9.4,4.9c0.3,0.1,0.3,0.6,0,0.7
	C103.5,742.8,101.3,743.2,99.3,742.1z M106.5,750.3c-0.1,0.4-0.5,0.7-0.9,0.7h-1.6c-0.6,0-1-0.5-0.9-1.1c0.3-1.4,0.7-3.7,1.1-4.9
	c0.1-0.4,0.5-0.6,0.8-0.6h1.5c0.6,0,1,0.5,0.9,1.1L106.5,750.3z M99.2,736.4c-1.4-0.7-0.7-2,0-2.5c0.6-0.4,3.3,1.3,4.2,1.9
	c0.3,0.2,0.5,0.3,0.8,0.4c1.2,0.6,4.6,2.2,6,3c1.7,0.9,0,2.4-1.9,1.6C106.4,739.9,100.6,737.1,99.2,736.4z M111.9,745.5
	c-0.1,0.2-0.1,0.3-0.1,0.4c-0.3,0.9-0.7,3.4-2,3.3c-1.2-0.1-0.7-2.4,0-4.4c0.7-2,1.4-1.9,2.3-1.8C112.6,743,112.2,744.7,111.9,745.5
	z M118.2,743.5c0,0-3.8,3.9-4.3,3.8s-0.1-4.2,2.1-6c2.2-1.8,3.6-1.6,4.5-1.2C121.4,740.4,118.2,743.5,118.2,743.5z M87.9,783.1
	c0.7,0.8,2.3,2.7,3.2,3.7c0.1,0.2,0,0.4-0.2,0.3c-2.3-1-9.1-3.9-9.3-4.9C81.4,781.1,87,782,87.9,783.1z M80.1,788.3
	c-1-1-2.1-2.3-2.7-3.1c-0.2-0.2,0-0.5,0.3-0.4c2.2,0.8,7.6,2.9,9,3.6c1.8,0.8,1.4,1.3-1.2,1.6S81.7,789.9,80.1,788.3z M97.6,792.1
	c-1.6,0.6-5.7,1.9-9.2,1.6c-4.5-0.4-3.4-1.5,0.5-2.7c3.1-0.9,7.1,0.1,8.7,0.6C97.9,791.7,97.9,792,97.6,792.1z M97.8,788.1
	c-0.5,0.4-2.5,0.6-5.1-2.7c-2.6-3.3-1-4.3,0-3.6c1,0.7,3.8,3.6,3.8,3.6S98.4,787.7,97.8,788.1z M105.4,786.7
	c-1.3,0.5-4.3,1.4-5.5-0.3c-1.5-2.1-1.9-3.4-1.3-3.9c0.5-0.4,5.2,2.5,6.8,3.6C105.7,786.3,105.7,786.6,105.4,786.7z M148.2,841.3
	c-0.7,0-1.3-0.5-1.3-1s0.6-1,1.3-1s1.3,0.5,1.3,1S148.9,841.3,148.2,841.3z M270.8,782.5c0.2-0.6,0.9-1,1.5-0.8
	c1.5,0.5,3.9,1.2,6,1.2c3.1-0.1,14,8.9,15.4,10.2c1.4,1.3,3.9,3.9-0.7,9.7c-4.5,5.9-8.4,6.6-15.7,9.5c-7.3,2.9-14.7,5.7-14.7,5.7
	s12.7-12.3,12.2-13.2c-0.5-0.9-18.3,14.7-18.3,14.7s8.7-11.3,13.7-15.6c5-4.3,8-8.4,7.2-9c-0.8-0.6-11.5,10.2-13.4,12.4
	c-1.9,2.2-8.9,10.3-10.5,7.8c0,0,7.4-13.4,8.5-21.1c0.1-0.6,0.6-1,1.2-1c1.2,0,3.3-0.7,5.2-4.6C269.8,785.5,270.5,783.6,270.8,782.5
	z M237.3,820.6c-0.4,2.1-29.6-5.7-29.6-5.7s18.9,8.4,27.8,9.1c0,0,2.1,1.4-3.3,1.7c-5.3,0.3-23.9,0.6-23.9,2.7
	c0,0,21.1,0.4,28.4-0.5c0,0-16.3,9.7-23.4,11.5c-7.1,1.9-16.8,2.4-21.9-4.2s-7.3-14.8-4.4-17.7c3-2.9,6.4,0.8,11.4-4.1
	c5-4.9,6-7.3,5.3-10.5c0,0,5.2,0.9,9.2-1.3c0,0,27.1,13.8,27,15.6c-0.1,1.8-26.1-11.9-29.4-9.9C210.6,807.2,237.7,818.5,237.3,820.6
	z M212.4,842.9c-1,1.5-3.8,4.7-10.6,4.6c-4.9-0.1-7.3-0.3-8.4-0.5c-0.4-0.1-0.5-0.6-0.2-0.8c1.3-0.9,4.4-2.7,8.7-3.1
	c4.5-0.5,8.5-0.8,10.1-0.9C212.4,842.2,212.6,842.6,212.4,842.9z M171.4,795c1.7,0.2,2.5-27.5,3.2-28.1c0.7-0.6,8.7,29.4,9.9,29.2
	s-7.5-29.8-6.2-30.4c1.3-0.6,9.3,15.5,13.5,25.4c0.1,0.3,0.6,0.2,0.5-0.1c-0.4-2.6-1.5-7.5-4.6-13.9c-4.5-9.5-6.2-13-5.5-13.7
	c0.8-0.7,4.7,5.3,9.1,13.3c4.4,8,11.6,21.6,10.1,28.3s-5.8,7.8-10.7,7.7c-4.9,0-7.3,6.4-14.9,4.7c-7.6-1.7-16.9-6.6-16.9-15.9
	s7.8-28.3,12.8-34.7C171.6,766.8,169.7,794.8,171.4,795z M214.5,746.3c0,0,1.4,3.2,2.1,4.7c0.1,0.3-0.1,0.6-0.4,0.6
	c-2.3,0-10,0.2-13.9,2.3c0,0-16.4-0.7-16.4-1.7S204.9,746.9,214.5,746.3z M202.5,744.7c-0.4-0.7,6.2-2.9,8.3-3.5
	c0.4-0.1,0.8,0,1,0.3c0.6,0.8,1.6,2.4-0.1,2.5C209.5,744.2,203,745.5,202.5,744.7z M230.1,765.4c0.1,1.3-27.9-2.2-28.5-0.9
	s25.2,2.3,25.2,3.2c0,1-13,2.6-13.2,3.3c-0.2,0.7,15.3-0.9,15.3-0.9s-9.1,8.9-16,12.9c-6.9,4-9.6,0.6-12.7-3.1s-3.3-7.2-2.8-10.7
	c0.5-3.5-1.4-7.2,3.1-11.2c4.5-4,8.1-5.6,13.4-5c5.3,0.7,13.5,9.2,13.5,9.2s-16.8-3.3-17.3-2.4C209.5,760.7,230,764.1,230.1,765.4z
	 M228.9,782.8c0.4,0.6,3.1-11.6,4.2-11.7c1.1-0.2-1.9,21.9-1.2,22c0.6,0.1,4.1-13.1,4.4-18.2v-1.2c0,0.3,0,0.7,0,1.2v14.4
	c0,0,2.4-4.7,1.9-15.2c0-0.1,0.2-0.2,0.3-0.1c1.1,1.5,5.1,7.1,7.2,14.9c2.4,9.2-3.2,15.9-9.8,14.1c-6.6-1.7-3.5-1.3-9.2-2.6
	c-5.7-1.2-8.5-2.4-6.9-8.6c1.4-5.4,8.5-17.5,10.4-20.5c0.1-0.1,0.3-0.1,0.3,0.1C230,774.1,228.5,782.3,228.9,782.8z M232.4,761.1
	c1.1-1.2,4.6-1.1,6.4,2.3c0,0,2.4,3.3,0.4,5.2c-1.9,1.8-4.3,2.7-6.4,0.9C230.7,767.6,231.3,762.3,232.4,761.1z M246.9,801.6
	c1.2,0.1,0,7.1,0,7.1C245,804,245.7,801.5,246.9,801.6z M245.7,814.2c-3.2-2.2-6-10.2-4.1-10.7S245.7,814.2,245.7,814.2z
	 M239.5,812.7c-2.5-2-7.8-8.1-7.8-8.1l5.1-1.1l3.3,8.8C240.3,812.7,239.8,813,239.5,812.7z M226.1,803.9c-2.3-1.2-3.3-2.1-3.1-3
	c0.3-0.8,2.1,0.4,2.1,0.4s1.7,1,3.2,2.2C229.7,804.7,228.4,805.2,226.1,803.9z M197.1,779.1c0,0,5.7,7.5,9.9,7.5s7.4-3.4,8.7-0.5
	c1.3,2.9,1.9,5.4,0,8s-3.8,6.6-6.5,6.5c-2.7-0.1-6.3-0.3-8.8-12.6c0,0,7.3,10.5,7.8,10.2S197.1,779.1,197.1,779.1z M196.4,777.1
	c-0.5,0.9-2.3-2.7-2.3-2.7S196.8,776.2,196.4,777.1z M187,764c-0.2-0.4,0.2-0.8,0.5-0.6c2,0.9,6.1,2.8,7.7,3.2c0,0,0.6,2.7,0.2,4.5
	c-0.1,0.3-0.4,0.4-0.7,0.2C193.3,770.2,188.8,766.8,187,764z M216.4,796.7c0.2-0.8,0.9-1.3,1.4-1.5c0.2-0.1,0.4,0.1,0.4,0.3
	c0,0.6,0,1.7,0.2,2.4c0,0.2-0.2,0.4-0.4,0.3C217.4,798.1,216.2,797.6,216.4,796.7z M217.9,782.5c1.2-0.9,5.9-4.3,5.9-4.3
	s-2.1,6.1-4.3,6.1S216.6,783.5,217.9,782.5z M195.3,758.2c-1.7-0.3-3-1.1-3.6-1.4c-0.1,0-0.1-0.2,0-0.2c0.9-0.1,3.9-0.5,5.4-0.3
	C198.8,756.6,197.4,758.6,195.3,758.2z M185.9,758.4c0-0.1,0.1-0.1,0.2-0.2c0.2-0.1,0.5-0.1,0.8-0.1c2.4,0.4,5.3,1.2,7.3,2.6
	c0.7,0.5,2.8,3.9,0.7,3.1c-2.4-1-4.7-2.3-6.9-3.6C187.6,760.1,185.4,759.1,185.9,758.4z M239.8,820.4c0.8-1.1,1.9-2,3.2-2.5
	c1.4-0.6,2.9-1.2,4.4-1.4c2-0.3,4,0.3,5,2.1c1.1,1.9,1.4,4.8,0.2,6.9c-0.2,0.4-0.4,0.7-0.7,1c-2.8,2.8-7.9,1.5-11.1,0
	C238.3,825.4,238.4,822.4,239.8,820.4z M251.6,813.4h-1.4l-1.4-27.2c0,0,4.9,4.6,8.3,5.1L251.6,813.4z M265.7,769.7
	c3.9,0.5,3.1,10.2,2.2,13.5c-0.9,3.3-3.2,11-8.6,8s-16.7-16.1-16.7-16.1s11,5.8,10.8,4.8c-0.1-1-13.7-8.6-13.4-8.9
	c0.3-0.4,20.9,8.9,21.2,8c0.3-0.9-19.9-10.2-19.9-10.2S261.8,769.3,265.7,769.7z M244.6,730.3c2.1-2.3,6.6,1.2,7.9,2.3
	c1.4,1,1.4,4.2-1.4,6.9c-2.2,2.2-6,7.1-7.4,9.1c-0.2,0.2-0.5,0.1-0.4-0.2c0.7-3.7,3.1-16.1,2.7-16.5c-0.4-0.4-1.6,7.9-2.6,7.1
	C242.6,738.3,242.5,732.6,244.6,730.3z M252.4,740.6c6-5.6,10.1-5.9,11.2-4.2c1.1,1.6,3.2,3.1,4.9,3.6s3.9,1.5,3.9,4.2
	s3.1,7.5,0.9,11.1c-2.3,3.5-10.2,11.9-30,11.6c-0.1,0-0.2-0.2-0.1-0.3c2.5-1.4,14.2-8.2,13.8-8.8c-0.4-0.7-11.5,5.2-12,4.6
	c-0.4-0.6,15-10.4,15-11.3s-18.9,11.7-19.3,11.3c-0.4-0.4,17.4-16.4,17.4-16.7c-0.1-0.3-15.2,11.5-17.8,13.6c-0.1,0.1-0.2,0-0.2-0.1
	C241.4,756.8,247.1,745.5,252.4,740.6z M223.6,725.6c4.7,0.1,6,0.7,7.8,0.3c1.8-0.4,10-1.6,9.8,8.5c-0.1,10.1-2.1,22.7-4,25.6
	c0,0,0.6-20.9-0.5-21.2c-1.1-0.4-0.9,20.2-2.2,20.6s-2.9-20.5-3.5-20.5c-0.6,0,1.2,20,0.4,20.3c-0.8,0.4-6.7-16.9-8.3-16.7
	c-1.6,0.2,6.4,17.8,6.4,17.8s-9.9-7.9-14.1-14.5c-4.2-6.6-3-11.8-0.4-14.7C217.5,728.3,219,725.5,223.6,725.6z M195,728.7
	c-0.4-0.5-12.4,12.1-13.1,11.6c-0.7-0.6,7.2-19,9.6-23.7c2.4-4.6,9.3-11,13.3-8c4,3,14.6,15,10.5,19.5c-3.6,3.9-5.9,6.2-4.7,9.3
	c0.3,0.8-0.1,1.6-0.9,1.9c-4,1.3-14.7,5-19.2,7.1c-5.6,2.7-5.6,4.4-6.8,3.2c-1.3-1.3,1.9-4.3,6.1-7.5c4.2-3.2,15.6-15.4,14.7-16.3
	s-23,22.1-24.1,21.6C179.2,746.7,195.4,729.2,195,728.7z M181.2,751.4c1.7,1,3.2,2,2.1,5.2c0,0-2,7.2-5.4,8
	c-3.4,0.8-4.6-0.7-5.4-4.1s-1.2-6.3,1.4-9S179.5,750.4,181.2,751.4z M147.4,734.8c-11.4-11.8-6-16.5-2.3-18.5
	c3.7-2,5.7-5.9,10.9-8.6c5.2-2.7,11.1-4.7,16.5-1.2s6.6,11.3,6.7,17.3c0.1,5.6-1.3,16.2-2,19.9c0,0.2-0.4,0.3-0.4,0
	c-1.3-3.5-7.4-18.7-9.6-18.4c-2.3,0.3,6.3,13.3,6.4,19c0,0.3-0.3,0.3-0.4,0.1c-1.9-4.2-10.7-23-15-22.7c0,0,15.1,25,12.8,28.6
	c-0.6,1-9.3-13.6-12-13.5c-2.8,0.1,9.1,12.6,9.4,15.8C168.4,752.6,158.8,746.6,147.4,734.8z M116.5,761.5c0.9,0.2,2,3.8,1.7,4.5
	c-0.3,0.7-13.7-4.1-13.7-4.1S115.6,761.3,116.5,761.5z M106.1,770.1c0,0-5.8-4.1-5.5-5.1c0.3-1,9.7,2.7,9.7,2.7L106.1,770.1z
	 M110.3,769.8c2.3-1.5,5.9-0.8,7.6-0.3c0.3,0.1,0.3,0.5,0,0.6c-1.6,0.5-4.9,1.6-6,2.1C110.5,772.8,107.1,771.8,110.3,769.8z
	 M121.9,775.2c-1.1,0.7-7.4-0.3-7.4-1.3c0-0.9,3.3-0.1,5.6-1.9c0.3-0.2,0.6-0.1,0.8,0.1C121.6,773,122.7,774.7,121.9,775.2z
	 M123.2,770c-3.6-6.2-3.3-9-0.8-13.8s0.3-8.2,5.4-10.4c5-2.2,18-2.5,37.6,8.6c0.1,0.1,0.1,0.3,0,0.3c-3,0.7-21.3,5.1-21.3,6.5
	c0,1.6,20-4.1,20.2-2.5c0.2,1.6-32.8,14.5-32.8,16.3s37.3-16.8,38.3-15s-24.8,16.6-24.1,17.5c0.6,0.9,19-9.8,22.3-11.8
	c0.1-0.1,0.3,0.1,0.2,0.2c-1.2,2.2-5.8,10.6-9.3,14.4c-4,4.4-11.8,10.6-19.9,6.4c-8.1-4.2-10.7-3.4-12.2-6.8
	C125.2,776.6,126.8,776.2,123.2,770z M153.5,790.6c-0.3,0.2-0.5,0.3-0.7,0.4c-2.5,1.5-5.4,2.9-8.4,2.2c-4.3-1-9.5-2.2-12.1-2.6
	c-2.6-0.4-4-0.3-4-0.3s-0.7-0.9,3.1-1.8s6.6,2.9,11.3,2.5s11.2-4.9,13-3.7C157.2,788.2,154.8,789.8,153.5,790.6z M120.1,798.6
	c2.9-0.1,16.1,2.9,19.8,3.3c0.3,0,0.5,0.4,0.3,0.7c-0.9,1.4-3.6,4.4-8.4,3c-5-1.4-11.3-2.4-13.6-2.8c-0.5-0.1-0.9-0.5-0.8-1
	C117.4,800.7,117.9,798.7,120.1,798.6z M111.2,812.7c0.6-2,10.1,1.4,10.1,1.4s-3.1,3-5.2,2.2C114,815.5,110.6,814.7,111.2,812.7z
	 M107.7,820.2c-0.9-1,1.1-3.5,2-3.9s3.1,2,3.1,2S108.5,821.2,107.7,820.2z M116.2,822.1c-2.6,0.7-4.1,0.2-1.8-1.5
	c2.3-1.7,3.9-0.5,3.9-0.5S118.7,821.3,116.2,822.1z M125.1,820.2c-2.3,1.9-3.7,0.5-4.2-0.5s0.8-2.5,2.5-3.4c1.7-0.9,4.2-2.2,4.2-2.2
	S127.4,818.3,125.1,820.2z M124.5,811.4c-3.1-0.4-11.8-2.3-11.8-2.3s2.2-3.8,6.3-3.4c4.2,0.4,12.4,3.1,12.4,3.1
	S127.6,811.8,124.5,811.4z M135.3,813.5c0,0-1.1,4.5-2.7,6.4c-1.6,2-4.2,1.5-3.3-2.2c0.9-3.6,4.5-7.4,5.5-7.7
	C135.9,809.8,135.3,813.5,135.3,813.5z M141.1,818.6c-2.4,2-5.5,2.8-5.2,0.7c0.4-2.3,1-4.6,1.6-6.8c0.6-2.1,1.3-6.2,3.4-7.3
	c0.4-0.2,0.9-0.4,1.4-0.3c0.8,0.1,0.7,0.2,0.8,0.9c0.1,1.2,0,2.4,0,3.5C143.1,810.2,143.5,816.7,141.1,818.6z M141.1,799.5
	c-4.1-0.5-17.7-3.5-19.8-3.5c0,0-0.1-3.5,6.6-2.6c5.8,0.8,16.5,2.1,19.4,2.5c0.3,0,0.5,0.4,0.3,0.7
	C146.6,797.6,144.2,799.8,141.1,799.5z M146.2,816.3c-1.9,0.5-1.2-11.4,0-13.6c0.7-1.3,1.6-2.4,2.3-3.1c0.3-0.3,0.9-0.1,0.9,0.3
	c0.2,2.2,0.7,7,0.7,9.8C150.1,813.4,148.1,815.8,146.2,816.3z M153.1,810c-0.1,0.2-0.4,0.1-0.4-0.1c-0.2-2.4-0.7-10.8-0.3-13.5
	c0.4-2.7,3.7-4.5,4.8-5c0.1-0.1,0.3,0.1,0.3,0.2c-0.2,1.5-1,7.1-1,9.9C156.4,804.2,154,808.5,153.1,810z M152.7,832.5
	c0.8-1.9,1.3-4,1.6-4.9c0-0.2,0.3-0.2,0.4,0c0.7,1.5,2.5,6.1,0.4,7.5C152.4,836.7,151.7,835.1,152.7,832.5z M152.8,845.3
	c-0.1-0.7-0.4-5.2,0.8-7.1c1.2-1.7,3.1-0.9,3.6-0.6c0.1,0,0.1,0.1,0.1,0.2c-0.1,0.5-0.4,2.8-2.6,5.3
	C153.4,844.6,152.9,845.1,152.8,845.3C152.8,845.4,152.8,845.4,152.8,845.3C152.8,845.4,152.7,845.5,152.8,845.3z M159.8,856.5
	c-0.9-0.7-4.2-3.5-5.5-6.1s-0.5-3.7,0.8-4.8c1-0.9,2.2-1.2,2.7-1.3c0.1,0,0.2,0,0.2,0.1C158.2,846,160.7,857.2,159.8,856.5z
	 M159,831.1c0-0.2,0.2-0.3,0.3-0.1c1.4,1.8,6,7.5,3.5,7.7C160.3,838.9,159.2,833.1,159,831.1z M160.7,841.3c1.2,0.2,5.1,1.2,3.6,3.4
	c-1.5,2.3-3.3-2-3.8-3.2C160.4,841.5,160.6,841.3,160.7,841.3z M164.6,850.2c-0.4,3.6-0.8,4.2-1.9,2.6c-0.9-1.4-1.7-4.4-1.8-5.2
	c0-0.1,0-0.2,0.2-0.2C161.9,847.3,165,847.1,164.6,850.2z M167.1,836.6c2.1,1,4.8,3.5,5.7,4.3c0.1,0.1,0.1,0.3-0.1,0.3
	c-0.9,0.2-3.4,0.4-5.6-1.8C164.4,836.8,164.6,835.3,167.1,836.6z M175.4,845c-1.4,0.8-6.5,3.6-7.9,2c-1.6-1.8,1.3-3.3,3.3-3.3
	c1.6,0.1,3.6,0.6,4.5,0.9C175.6,844.7,175.6,844.9,175.4,845z M177.1,839.5c-8.1-5.6-11-5.6-14.9-9.8c-3.9-4.3-6.9-11.8-5.2-21.4
	c0,0,12,17.2,25.8,10.4c0,0-0.9,10.3,4.7,16.6c5.6,6.4,7.7,7.1,7.7,7.1S185.2,845,177.1,839.5z M192.5,849.4c4.2,0,9.3,0.5,11.2,0.7
	c0.3,0,0.5,0.4,0.3,0.7c-0.7,1-2.8,2.8-7.9,3.1c-5,0.2-7.6,0.6-8.7,0.8c-0.3,0-0.6-0.2-0.5-0.5C187.3,852.7,188.5,849.4,192.5,849.4
	z M182.7,863.1c0.7-1.8,2.6-5.7,6.3-6.3c3.8-0.6,8-0.3,9.7-0.1c0.4,0,0.5,0.5,0.3,0.7c-1,1.1-3.5,3.4-8.5,4.4
	c-4.1,0.8-6.2,1.4-7.2,1.8C182.9,863.8,182.6,863.5,182.7,863.1z M181.6,886.4c-0.9-0.6,2.3-5.4,2.3-5.4S182.5,886.9,181.6,886.4z
	 M187.8,872.8c0.4-0.1,0.8,0.3,0.5,0.7c-1.4,2.1-4.5,6.4-5.7,4.2C181.4,875.5,185.7,873.6,187.8,872.8z M183.3,892
	c-0.6-1.1,0.6-3.5,1.2-4.5c0.1-0.2,0.5-0.3,0.7-0.1c0.5,0.4,1.2,1.3,1.6,2.5C187.3,891.6,184.1,893.3,183.3,892z M188,886
	c-0.4-2-0.1-4.6,0.2-6.1c0.1-0.4,0.7-0.5,0.8-0.1c0.8,2,2.1,5.7,2.1,7.9C191.2,890.9,188.7,889.1,188,886z M186.8,870.4
	c-5,1.4-5.8-3-2.3-4.6c2.7-1.2,6.9-1.6,8.6-1.8c0.3,0,0.6,0.3,0.4,0.6C192.8,866.2,190.7,869.4,186.8,870.4z M194.7,886.6
	c-0.3,0.2-0.7,0.1-0.7-0.3c-0.2-1.6-0.8-5.5-1.5-8.6c-0.7-3.1,1.1-6.8,2.1-8.5c0.2-0.3,0.7-0.3,0.8,0.1c0.6,2.1,1.8,7.2,2.6,10.4
	C198.8,882.7,196,885.5,194.7,886.6z M201.2,882.3c0-0.3-1.7-10.6-2.9-13.7c-0.9-2.4,1.5-6.8,2.8-8.9c0.2-0.4,0.8-0.2,0.8,0.2
	c0.3,3.1,1.1,11,2.5,14.9C206.1,879.7,201.2,882.6,201.2,882.3z M208.4,878.6c-0.3,0.3-0.7,0.1-0.7-0.3c-0.1-1.4-0.4-4.5-1.7-7.9
	c-1.6-4.5-3.1-15.3,1-18.5c0.3-0.2,0.7,0,0.7,0.3c0.1,2.6,0.6,11.5,2.1,16.1C211.4,873.2,210.2,876.9,208.4,878.6z M214.5,870.3
	c-0.1,0.4-0.7,0.4-0.8,0c-0.5-2-1.5-5.8-2.3-9.7c-1.1-5.4-1.4-10.7,3.6-17.1c0.2-0.2,0.5-0.2,0.7,0l0.7,1c0.1,0.1,0.1,0.3,0,0.5
	c-0.7,1.2-3.6,7.1-3.5,9.8c0.1,3.1,0.1,5.7,1.8,8.4C215.8,865.1,215.1,868.4,214.5,870.3z M212.2,911c-0.5,1.8-1.2,3.8-1.8,3.5
	c-1.1-0.5-0.9-5.7-0.2-9.2c0.7-3.5,1.3-4.3,2.2-4.3c0.5,0,0.6,2.2,0.6,4.2C213,907.2,212.8,909.1,212.2,911z M218.9,922.2
	c-0.4,0.9-5.6-3.8-5.5-5.9c0-1.4,0.3-3,0.6-4c0.1-0.3,0.5-0.4,0.6-0.1C215.8,914.6,219.3,921.5,218.9,922.2z M221.5,917.7
	c-0.1,0.3-0.5,0.3-0.6,0.1l-4.5-8.7c-0.2-0.3,0.2-0.6,0.5-0.4c1.3,1,3.5,2.7,4.4,3.7C222.4,913.5,221.9,916.3,221.5,917.7z
	 M221.5,905.8c1.1,1.5,1.5,3.5-1.8,1.3c-3.1-2.1-4.7-2.3-4.7-5.9c0-0.3,0.3-0.5,0.6-0.3C217,901.9,220.7,904.6,221.5,905.8z
	 M220.8,901.5c-0.6,0.8-4.3-2.4-4.3-3.9c0-0.9,0.3-2.1,0.5-2.9c0.1-0.3,0.6-0.4,0.7-0.1C218.8,896.5,221.3,900.9,220.8,901.5z
	 M228.9,883.7l-0.9-5.2c-0.1-0.4,0.3-0.6,0.6-0.5l2.5,1c0.2,0.1,0.3,0.4,0.3,0.6l-1.6,4.2C229.6,884.2,229,884.1,228.9,883.7z
	 M231.4,891l-0.6-1.1c-0.1-0.1-0.1-0.3,0-0.4c0.4-1,2.1-5.5,2.4-7.7c0.1-0.4,0.5-0.5,0.8-0.2c0.8,0.8,1.7,2.6,0.3,5.4
	c-1.1,2.4-1.8,3.5-2.2,4C231.9,891.3,231.5,891.3,231.4,891z M238.4,899c-0.5,0.8-3.8-4.1-4.6-5.2c-0.1-0.1-0.1-0.3,0-0.5l1.6-3.1
	c0.2-0.4,0.7-0.3,0.8,0.1C237.1,892.7,238.9,898.3,238.4,899z M241.7,893.5c-0.1,0.5-0.8,0.5-0.9,0l-3.1-11.4
	c-0.1-0.3,0.1-0.5,0.4-0.6c1.2-0.2,4.2-0.1,4.3,4.3C242.4,889.1,242,891.8,241.7,893.5z M251.2,875.5c-6.6,2.2-7.5,5.1-13.3,2.6
	c-5.8-2.5-8.8-4.5-12.6-5.1c-3.8-0.6-5.7-6.4-6.8-9.6c-1.1-3.2-3.1-5.4-1.9-11.8c1.2-6.4,9.1-13.4,21.2-20.5
	c0,0-11.8,18.9-11.8,23.4c0,0,14.9-24,18-24c3.1,0-18.3,30.1-15.3,38.1c0,0,14.6-30.1,16.3-33.1c1.7-3-4.7,19.4-2.2,20.2
	c2.5,0.8,5.4-21.1,5.4-21.1s9.5,12,10.8,24.6C260.1,871.8,257.8,873.3,251.2,875.5z M251.2,831.3c0,0,14.7,10.5,15.5,9.7
	c0.8-0.7-1.1-3.7-5.7-6.5c-4.6-2.9-7.7-5-7.5-6.1c0.2-1,18.6,8,23.2,10.7c4.6,2.7,7.6,2.4,3.9-1.1c-3.7-3.5-22.3-11.4-22.3-12
	c0-0.6,19.6,8.3,19.9,7.5c0.2-0.8-6.6-7.4-11.5-8.6c-4.9-1.3-7.5-0.8-7.6-2.2c-0.1-1.4,14.1-2.3,19.3-2.4c5.2-0.1,15.8,1,18.9,8.9
	s-2.6,15.3-6.4,19.4c-3.8,4.1-5.3,9.7-10.4,9.8c-5.1,0.1-6.8-1.8-14.2-9.4C259,841.6,253.1,835.5,251.2,831.3z M256.6,885.4
	c0.9-1,4.3-4.7,6.5-6.5c0.1-0.1,0.2,0,0.2,0.1c0,1-0.3,2.1-0.7,3c-0.2,0.4-0.4,0.9-0.7,1.2c-0.2,0.3-0.4,0.6-0.7,0.8
	c-1.2,1-3,1.4-4.4,1.6C256.6,885.6,256.5,885.5,256.6,885.4z M259.1,887.5c2.4-1,3,0.2,0,2c0,0-4.4,1.4-4.7,0.5
	C254,889.1,256.7,888.4,259.1,887.5z M259.1,892.1c0,0-0.5,4.8-7.1,4.4C252.1,896.6,250.7,892.2,259.1,892.1z M254.7,918.7
	c0,0.2-0.2,0.2-0.3,0.1c-0.7-1.1-2.4-3.8-2.3-5.2c0.1-1.6,2.2-1.7,2.9-1.7c0.1,0,0.2,0.1,0.2,0.2L254.7,918.7z M253.3,909.4
	c-1.8,0.6-3,0.1-3.2-1.9c-0.2-2.5,5.8-4.2,6.3-1.8c0,0.1,0,0.1,0,0.2C256.4,907.7,254.8,908.9,253.3,909.4z M257.1,901.3
	c-0.9,1.2-2.4,1.7-3.7,2c-0.9,0.2-2.6,0.4-2.9-0.8c-0.4-1.3,1.6-3,4.8-4.5c0.8-0.4,1.7-0.6,2.2,0.3c0.4,0.7,0.4,1.5,0.2,2.2
	C257.4,900.7,257.3,901,257.1,901.3z M261.8,919.2c-0.2,1.4-3,2.8-3.8,3.2c-0.1,0.1-0.3,0-0.3-0.2l0.2-9.4c0-0.2,0.2-0.2,0.3-0.1
	C259.2,914,262,917.8,261.8,919.2z M264.4,915.8c-0.1,0.1-0.2,0.1-0.3,0c-0.6-0.8-3-3.8-4.3-6c-1.3-2.1-0.5-5.1-0.1-6.1
	c0-0.1,0.2-0.2,0.3,0c0.8,1.4,4,6.7,5.2,7.9C266.4,912.8,264.9,915.1,264.4,915.8z M267.5,907.2c-0.4,1.4-0.7,1.9-2.2-0.6
	c-1.5-2.5-3.3-5.3-4.1-7c-0.4-0.8-0.7-1.8-0.7-2.7c0-0.5,0-1,0.1-1.4c0-0.1,0.5-1.1,0.7-0.9c0.9,1.2,1.4,2.6,2.1,3.9
	c0.8,1.4,1.6,2.8,2.6,4.1C266.8,903.9,268,905.5,267.5,907.2z M269.3,900c-0.1,0.7-0.3,1.5-0.6,2.2c0,0-2.9-4.4-4.7-8
	c-1.8-3.6-1.9-4.9-1.2-5.8c0.7-1,3.1,3.9,3.1,3.9c0.8,1.6,1.8,3,2.8,4.5C269.2,897.7,269.5,898.9,269.3,900z M266.5,881.5
	c1.5,2.9,2.1,6,2.1,6s1.6,5.7,0.8,6.3c-0.7,0.6-2.3-4.6-3.5-8.3C264.8,881.7,265,878.6,266.5,881.5z M297.9,899.1
	c1.5,0.6,1.4,2.4,1.3,3.1c0,0.2-0.2,0.3-0.4,0.2c-1.6-0.5-9.5-3.2-11.3-4.2c-1.4-0.8-1.9-2-2.1-2.6c-0.1-0.2,0.1-0.4,0.3-0.3
	C287.9,895.9,296.2,898.4,297.9,899.1z M282.4,887c2.8,1.3,12.4,6,14,7.6c1.9,1.8-6.3-1.4-9.3-2.1c-2.3-0.5-4.3-3.6-5.1-5.1
	C281.9,887.2,282.1,886.9,282.4,887z M277.3,900.1c-0.6-0.3-0.4-4.5,0-7.1c0.3-1.9,0.9-4.3,1.1-5.3c0.1-0.2,0.4-0.3,0.5-0.1
	c0.6,0.8,1.5,2.8,0.9,5.7C278.9,897.2,277.8,900.4,277.3,900.1z M280,909.2c-0.8-0.7-0.4-3.8,0.4-6.7c0.6-2.2,1.4-5.8,1.8-7.3
	c0.1-0.3,0.4-0.3,0.5-0.1c0.5,1.1,1.4,3.4,0.9,6.1C282.8,905,280.8,909.9,280,909.2z M286.9,908.6c-1.3,2.9-1.2,6.1-2.3,5.3
	c-1.1-0.8-1.3-3.4-0.5-5.6c0.6-1.7,1.5-4.1,2-5.2c0.1-0.2,0.4-0.2,0.5,0C287,904.1,287.9,906.4,286.9,908.6z M291.8,917.3
	c-0.6,2.9-1.1,5.1-1.3,6c0,0.2-0.3,0.3-0.4,0.1c-1-0.8-3.5-3.3-2.4-6.2c1-2.7,1.6-5.2,1.8-6.2c0-0.2,0.3-0.3,0.5-0.1
	C290.7,911.9,292.4,914.3,291.8,917.3z M293,909.8c1.9,0.8,5.7,2.3,7.1,2.7c2,0.5,2,2.8,1.4,4.3c-0.6,1.5-3.6-0.9-5.4-2.8
	c-1.1-1.2-2.6-2.8-3.5-3.8C292.5,910,292.7,909.7,293,909.8z M298.6,926.8l-4.3-2.4c-0.1,0-0.1-0.1-0.1-0.2v-2.7
	c0-0.3,0.3-0.4,0.5-0.2l4.3,5.1C299.2,926.6,298.9,927,298.6,926.8z M299.9,923.3c-1-1.7-2.6-4.6-3.5-6c-0.1-0.2,0.1-0.5,0.4-0.4
	c1.6,1,5,3.2,5.1,4.5C302,923.3,301.2,925.7,299.9,923.3z M299.7,909.3c-2.1-1.3-10.3-3.6-11.2-7.5c0-0.2,0.1-0.4,0.4-0.3
	c1.7,0.6,8,2.8,10.5,3.4c2.8,0.7,3,1.8,3.8,3.5C303.9,910,301.9,910.7,299.7,909.3z M474,891.1c-0.1,0.2-0.3,0.2-0.5,0.2
	c-0.9,0-2-0.7-2.7-1.3c-0.5-0.5-0.7-1.1-0.4-1.8c0.1-0.2,0.2-0.3,0.3-0.4c0.2-0.1,0.4-0.1,0.6,0c0.6,0.2,1.2,0.6,1.7,1.1
	c0.5,0.5,0.8,1,1,1.6C474.1,890.7,474.1,891,474,891.1z M476.4,883.9c0.1-0.1,0.1-0.1,0.3-0.2c0.4-0.1,1,0.8,1.2,1.1
	c0.3,0.5,0.5,1.1,0.5,1.7c0.1,0.9-0.4,1.8-1.4,1.8c-0.8,0-1.3-1.1-1.4-1.7C475.4,885.6,475.7,884.6,476.4,883.9z M477.2,896.1
	c-0.2,0.5-0.5,1.2-1.1,1.4c-0.3,0.2-0.8,0.2-1.1,0c-0.2-0.1-0.3-0.4-0.4-0.6c-0.1-0.5-0.1-1.1,0-1.6c0.1-0.4,0.3-0.9,0.6-1.2
	c0.2-0.2,0.4-0.4,0.7-0.5c0.6-0.2,1.3,0.2,1.5,0.8C477.6,894.9,477.4,895.6,477.2,896.1z M476.4,892.3c-0.5-0.4-0.7-0.9-0.6-1.6
	c0.1-0.7,0.5-1.3,1.1-1.6c0.8-0.4,1.7-0.1,2.1,0.6c0.5,0.8,0.6,2,0,2.7C478.3,893.4,477.2,893,476.4,892.3z M483.3,895.9
	c-0.5,0.5-1.3,0.3-1.8,0c-0.7-0.4-2.5-1.3-2.1-2.3c0.2-0.4,0.6-0.9,1-0.9c0.2,0,0.4,0.1,0.6,0.1c0.5,0.2,0.9,0.4,1.4,0.7
	c0.1,0,0.1,0.1,0.2,0.1C483.1,894.1,483.9,895.2,483.3,895.9z M483.2,888.5c-0.4,0.7-1.1,1.6-2,1.6c-1.5,0-1.4-1.6-0.9-2.5
	c0.4-0.8,1.1-1.7,2-1.6c0.3,0,0.6,0.1,0.9,0.2c0.2,0.1,0.3,0.1,0.4,0.3C484.2,887,483.5,888,483.2,888.5z"/>
</svg>
