<?xml version="1.0" encoding="utf-8"?>
<!-- Generator: Adobe Illustrator 22.0.1, SVG Export Plug-In . SVG Version: 6.00 Build 0)  -->
<svg version="1.1" id="Layer_1" xmlns="http://www.w3.org/2000/svg" xmlns:xlink="http://www.w3.org/1999/xlink" x="0px" y="0px"
	 viewBox="0 0 1000 1000" style="enable-background:new 0 0 1000 1000;" xml:space="preserve">
<style type="text/css">
	.st0{fill:#020202;}
</style>
<path class="st0" d="M486.7,107.5c0,0,3.7-3.2,1.2-6.2c-2.4-3-6.4-0.5-6.4-0.5s-4.1-3.9-6.9-2.9c-2.8,1.1-0.9,6.6-0.9,6.6
	s-5.2-0.7-5.1,4.6s4.9,4.5,4.9,4.5c0,4.4,3.9,4.8,3.9,4.8c-2.4,3.5-5.6,3.1-10.4,0.7c-4.8-2.4-9.2-7.5-11.5-12.1s-2.9-10.4-6.6-14
	c-3.7-3.6-7.8-7.2-18.5-7.9c-10.7-0.7-28.1,3.6-39.7,10.1s-16,9.1-23,12.6s-14.4,3.9-23.2,4c-8.8,0.1-10.3-2.3-19.2-5.5
	C316.5,103,305,94.9,303,92.6s-2.9-9.2-2.6-14.8c0.3-5.6,3.5-9.8,1.8-10.8c-1.7-1-4,0.7-10.9,3.9c-7,3.2-9.1,4.9-9.7,7.1
	s-1,4.3-3.4,6.5s-5,3.1-7,10.6c-2,7.5,0.8,19.7,0.4,21.1c-0.4,1.4-7.4,15.2-7.4,15.2s-1.6-4.9-1.4-7s6.1-12.9,6.4-18.3
	s-0.9-13-3.8-20s-7.8-10.3-9.5-11.8c-1.7-1.5-3.2-4.7-4.8-1.2c-1.6,3.5-3,2.6-5.6,11.3c-2.6,8.6-1.3,15.8,2,25.3
	c3.3,9.5,10.1,12.3,11.8,14.2c1.7,1.9,2.1,3.1,2.3,9.7s-4.1,11.8-4.1,11.8s0.8-6.5,0.4-13.5c-0.5-7-3.2-8-7-9.4s-9.6-3.9-9.6-3.9
	s0.3-1.7,1-6.9s-1.6-10.9-3.4-16.5c-1.8-5.6-4.6-0.8-6.4,2.7c-1.8,3.5-3.4,4.6-7.5,10.2c-4.1,5.6-3.2,14.7-3.2,14.7
	c-2.6,0.1-5.6,3.5-5.6,3.5s-1.4-14.6,0-18.7s5.5-6.4,5.6-12.8s0-17.8,0.2-20.6s-0.5-3.2-5-0.6c-4.5,2.5-13.7,6.2-13.8,15.7
	c-0.1,9.5,7.2,19.5,8.7,23.2c1.5,3.7,1.3,13.3,1.3,13.3c-9.4-11.9-7.5-5.6-13.5-10.6c-6-5-6.8-4.8-14.6-8.6
	c-7.8-3.8-6.7-7.7-9.8-7.4s-2.7,7.3-1.8,11.5c0.9,4.2,2.6,6.3,2.3,17.9c-0.4,11.6,1.5,8.1,3.7,15.1c2.2,7,5.9,9.6,5.9,9.6l-9.1,0.7
	c0,0-6-3.5-8.8-4.8s-1.9-5.4-1.9-9.1s-2.3-3.8-3.6,0s-8.2,9.1-8.2,9.1s-3.2-0.1-6.2,2.5c-3,2.6-8.2,7.6-11.4,9.3
	c-3.2,1.7-1.7,3.3,3.2,3.2s10.6,2.2,10.6,2.2c-0.1,8.1,5,13.3,5,13.3l-0.7,7.9c0,0-14.9-8.6-19.9-8.6s-16.4,0.7-20-1.3
	c-3.6-2-11.8-2.5-13.4-0.9c-1.6,1.6-1.2,2.6,1.3,4.4s3.5,3.7,5,7c1.4,3.3,2.3,5.7,5,9c2.8,3.3,3.4,4.5,5.6,9.7c2.2,5.2,8.6,9,8.6,9
	s-5.9-0.1-10.1-0.3s-4.8-2.1-12.1-5.5c-7.3-3.4-14.5-5.5-20.1-2.1s-7.6,8.1-10,12.9s-0.3,4.1,2.9,4.1c3.2,0,4-1.1,14.6-0.3
	s17.7-6.2,19-6.6c1.4-0.4,16.2,1.1,16.2,1.1c-2.3,2.5-3.2,5.6-3.2,5.6c-8.1-0.6-11.6,0.7-14.2,2.7c-2.5,2-8.1,6.9-11.4,8.7
	c-3.2,1.9-4.2,1.5-3.7,4.1s3.6,1.5,8.6,3.3c5,1.8,9.8,1.4,14,1.2c4.1-0.2,2.8,0.3,6.9,10.1c4.1,9.8,22.6,5.8,22.6,5.8
	c-8.9,6.1-17.8,3-20,2.4c-2.2-0.5-5.2-4.9-10.7-9.8c-5.5-5-19-7.4-26.9-5.7c-7.8,1.7-16.7,7.7-16.8,9c-0.1,1.4,5.8,5.1,8.9,8.4
	c3.2,3.3,11.4,6.4,22.4,7.6s21.7-6.9,21.7-6.9l7.5,1.9c0,0-7.9,4.1-11.9,6c-4,2-8.4,1.1-16.4-0.1s-14.7,3.1-17.3,5.2
	s-3.8,5.3-6.4,5.5s-3.7,1.1-5.7,3.3s-4.7,10.7-6.7,14.7c-2,4,0.6,5,3.9,3.2c3.2-1.9,12.3-2.9,16.9-0.7s8.1-1.7,8.1-1.7
	s11.2,18.8,14.2,26.9c3.1,8,3.1,20.7,1.1,27.5c-2,6.8-8.9,19.9-14.6,29.3c-5.7,9.4-11.4,25.2-10.7,42.6c0.6,17.5,16.6,22.1,20,23.3
	s15,9.2,15.6,15.5c0.6,6.3-2.1,7.4-2.1,7.4c-1.4-3.2-5.2-3.9-5.2-3.9s1.5-3.3-2.9-5c-4.4-1.7-6.3,5.3-6.3,5.3s-4.6-3.3-6.6,0.6
	c-2,4,3.5,6.4,3.5,6.4s-3.7,3.6-0.3,6.6c3.4,3,6.7-1.4,6.7-1.4s3,5.1,6.3,2.5c3.3-2.6,1.1-7,1.1-7c2.3-0.6,10-4.1,6.9-12.6
	s-13.3-14.2-13.3-14.2c9.5,0.4,20.3-8,19.9-15.5c-0.4-7.5-5.9-11.6-5.9-11.6c-0.4-3.5-2.3-4.7-2.3-4.7s4.6-3.8,2-5.9
	c-2.6-2.1-6-0.4-6-0.4s-1.2-4.8-5.1-4c-4,0.8-1.1,6.8-1.1,6.8c-1.6-0.7-6.1-0.4-6.2,3.3s4.4,4.3,4.4,4.3c0.3,3,0.6,5.9,3,6.4
	c2.3,0.5,4.3-3.6,4.3-3.6c2.7,1.9,6.3-1.5,6.3-1.5c2.6,2.8,5.9,8.2,4.6,12.7c-1.3,4.5-6.6,10.8-14.8,11.4
	c-8.2,0.5-18.4-5.4-22.3-12.8c-3.9-7.4-3.1-18.7,1.3-32.2c4.3-13.5,12.7-28.3,16.6-35s7.7-21.8,5.7-36c-2-14.2-16.1-32.2-16.1-32.2
	s5.8-1.5,10.2-6c4.4-4.5,4.5-9.3,7.7-15s13.8-9.7,13.8-9.7c-4,12.6-10.6,12.1-15.6,19.8c-5,7.7-5,13.8-0.9,20.7
	c4.1,6.8,10,8.9,10,8.9s4.5-5,6-14s3.9-12,3.2-18.3c-0.7-6.3-3.5-10.1,0.4-15.9c3.8-5.8,16-10.9,16-10.9s-5.9,5.6-9.9,11.6
	c-4,6-0.5,12.6,1.8,13.7c2.3,1.1,4,1.6,7.8,5.3c3.8,3.8,5,3.3,9.4,6c4.5,2.7,5.7,3.3,13.8,0.8c8-2.6,8.9-9.4,10.1-13.6
	c1.2-4.1,4.1-5.7,4.1-5.7c2,8.3,9.9,14.6,13.8,16.5s7,1.1,13.3-7.5s6.7-19,6.7-19s8.3,1.2,10.2-2c1.9-3.2,2.4-11.5,2.4-11.5
	c1.3,7.6,4.5,11.3,4.7,13.1c0.2,1.8-0.4,7.3-1.8,9.2c-1.4,1.8-4.8,2.8-6.2,7.4s0,10.7,0,10.7s7.8-6.1,9-9.1c1.2-3-0.3-5.5-0.3-7.8
	s2-6.7,2-6.7s4.6,13.6,6.7,20.4c2.2,6.8,0.3,9,0.3,9c-8,0.4-10.8,7.6-10.4,14.6c0.4,7,10.5,10.4,15.9,10.4c5.4,0,8.1-3,9.5-5.2
	c1.5-2.1,3.8-12.6-0.3-16.8c-4.1-4.2-11.7-4-11.7-4c0.7-7.2-3.6-15.3-3.6-15.3s3.9,0.2,5.3,2.8s1.8,4.6,4.7,5.5
	c2.8,1,3.6-1.3,2.1-3.7c-1.5-2.4-8.8-5.9-11.3-7.4s-5.2-9.8-5.2-9.8s3.5,3.2,6.6,1.8s3-1,6.3-1.6s4.9-2.8,5.8-5.2
	c1-2.3,1.8-2.9,3.5-4.2c1.8-1.3,0.8-6.7,0.8-6.7l1.6,0.7c0,0-0.2,5.1-0.2,7c0,1.9-4,5.4-5.6,9.4s1.7,7.9,3.2,9.8
	c1.5,1.8,3,3.4,3.9-3c0.9-6.4,1.6-17.9,1.6-17.9s2,4,2.7,6.3c0.7,2.2,0.2,4.2,0.6,9.2c0.5,5,3.7,8.5,6.2,10.5s8.5,9.2,9.7,7.9
	c1.1-1.2,1.4-9.5-0.1-15c-1.5-5.5-8.2-9.8-12-11.8c-3.7-2.1-5-6.3-5-6.3l1.2,0.4c0,0,0.7,1.1,3.4,3c2.7,1.9,9.5,2.6,12.6,2.1
	c3.1-0.5,8.2-0.8,8.2-1.8c0-1-1.9-4.4-8.9-7.5c-7-3.1-11.8-0.8-14.7,0.5c-3,1.3-7.9-6-7.9-6s3.9-3,6-6.7c2.1-3.7-2.2-6.6-1.8-7.2
	c0.5-0.6,5,2.3,6.3,3.2s1.4,1.9,1.9,5.6c0.5,3.7,4.3,6.1,5.9,4.1c1.5-2-3.4-8.1-3.4-8.1h7.1c0,0,1.9,5.5,4,8s5.3,2.3,8.5,2.9
	c3.1,0.6,8.5,4.2,11.1-1.2s0-9.8,0-9.8c5-2,8.4-6.2,6-9.5c-2.4-3.3-9.2-5.6-9.2-5.6s1.8-5.3-1.1-7.8c-3-2.5-9.4-2.2-13.6,2.1
	c-4.2,4.3-4.7,6.5-4.7,9.4c0.1,2.9,0.5,3.7-0.2,5.6c-0.7,1.9-0.7,3.5-0.7,3.5s-2.7,0.4-5.8,0.2s-5.1-2.1-5.1-2.1s2.1-0.2,4.4-0.6
	c2.3-0.5,3.2-1.8,2.4-3c-0.8-1.1-2.7-1.3-5.6,0.9c-2.8,2.2-5.2,0.9-5.2,0.9s1.2-1.6,2.8-4.8s0.2-3.7,0.2-9c0.1-5.3-0.2-8.6-0.2-8.6
	c6.9-1.9,18.1-10.5,18.3-14.3c0.2-3.8-1.8-5.7-6.9-12c-4-4.9-8-5.9-9.5-6.1c-0.2,0-0.3-0.3-0.1-0.5c1.4-1.3,3.3-3.9,3.3-3.9
	s4-0.4,7.6-1.6c3.7-1.2,7.5-5.7,8.1-9.3s1.1-8.1-0.8-11.4c-1.8-3.3-2-5.5-3.7-7.8c-1.7-2.3-4.4-3.7-7.7-9.2c-3.4-5.5-6.9-5-11.5-4.2
	c-4.6,0.8-14,10.1-14,10.1s5.5-12,9.4-14.7c3.9-2.7,11.5-3.1,14.3-1.8s7.3,1.2,10.8,0.7c3.5-0.5,7.7-3,11.9-3.2s5.7-1.1,8.9-2.8
	c3.1-1.7,4.4-2.7,1.7-6.5c-2.7-3.8-8.4-9.8-15.2-10.1c-6.8-0.2-14.1,5.1-20,12.1c-5.9,6.9-11.8,8-11.8,8c0.8-4.4,6.3-13.2,10.2-14.2
	c3.8-1,13.9-6.5,16.9-10.4c3-3.9,5.1-10.9,5.1-10.9s1.6,1.1,7.7,5.9c6,4.9,11.7,6.3,20.4,9.9s5.8,3.1,21.2,2.9
	c15.3-0.2,19.3-4.7,31.8-11.2s26.8-11.3,31.2-12.8s22.6-5.2,31.2,3.5s8.8,16.9,8.7,20c-0.1,3.2-5,14.3-13.7,14
	c-8.7-0.2-10.7-5.2-10.7-5.2s0.8-0.6,1.6-2.4c0.7-1.8-0.3-3.4-0.3-3.4s4.6-2.4,3.8-4.9c-0.8-2.4-6.4-2-6.4-2s1.2-4.6-3.5-4.5
	c-4.7,0.1-4.1,6-4.1,6s-5.8-2-6.6,1.6c-0.8,3.6,4.4,4.1,4.4,4.1s-3.3,3.6,0,5.9c3.3,2.3,6.3-1.1,6.3-1.1c0.6,2.3,3.9,1.6,3.9,1.6
	c5.3,8.1,14.5,7.7,21.1,1.3c6.6-6.4,6-15.1,6-15.1c4.9,6.5,8.5,11.9,16,13.9c7.4,2,11.6-7.3,11.6-7.3s2.8,2.5,5.8-0.4
	S486.7,107.5,486.7,107.5z M85.5,210.5c0.5-1.1,5.7-0.9,9.2-0.2c3.5,0.7,4.3,1.3,4.3,2.2c0,0.5-2.2,0.6-4.2,0.6
	c-1.9,0-3.9-0.3-5.7-0.8C87.1,211.7,85.2,211,85.5,210.5z M77.8,218.9c-0.9-0.4,3.8-5.6,5.9-5.5c1.4,0,3,0.3,4,0.6
	c0.3,0.1,0.4,0.5,0.1,0.6C85.4,215.8,78.5,219.3,77.8,218.9z M91.3,216.9c-1,1.3-2.7,3.5-3.7,4.4c-1.2,1-3.9,0.5-5.3,0.2
	c-0.3-0.1-0.3-0.5-0.1-0.6l8.7-4.5C91.2,216.3,91.6,216.7,91.3,216.9z M94.2,221.5c-1.5,1.1-3.5,1.5-1.3-1.8
	c2.1-3.1,2.3-4.7,5.9-4.7c0.3,0,0.5,0.3,0.3,0.6C98.1,217,95.4,220.7,94.2,221.5z M105.3,217.7c-1.8,1.1-6.2,3.6-6.8,3.1
	c-0.8-0.6,2.4-4.3,3.9-4.3c0.9,0,2.1,0.3,2.9,0.5C105.6,217,105.7,217.5,105.3,217.7z M110,254.4c0.9-0.4,1.6,2.3,2.6,4.7
	c1,2.4-0.2,3-2,0C110.5,259.1,109.1,254.8,110,254.4z M103.4,252.1c0,0,4.3-1.3,4.4,7.1C107.9,259.1,103.1,258.6,103.4,252.1z
	 M97.5,250.4c1.3-0.4,3,1.6,4.5,4.8c0.4,0.8,0.6,1.7-0.3,2.2c-0.7,0.4-1.5,0.4-2.2,0.2c-0.3-0.1-0.6-0.3-0.8-0.5
	c-1.2-0.9-1.7-2.4-2-3.7C96.6,252.5,96.4,250.7,97.5,250.4z M92.5,250.1c2.5-0.2,4.2,5.8,1.8,6.3c-0.1,0-0.1,0-0.2,0
	c-1.7,0-2.9-1.6-3.4-3.1C90,251.5,90.5,250.3,92.5,250.1z M81.3,254.4c1.1-0.7,3.8-2.4,5.2-2.3c1.6,0.1,1.7,2.2,1.7,2.9
	c0,0.1-0.1,0.2-0.2,0.2l-6.7-0.5C81.2,254.7,81.1,254.5,81.3,254.4z M80.8,261.8c-1.4-0.2-2.8-3-3.2-3.8c-0.1-0.1,0-0.3,0.2-0.3
	l9.4,0.2c0.2,0,0.2,0.2,0.1,0.3C86,259.2,82.2,262,80.8,261.8z M84.2,264.4c-0.1-0.1-0.1-0.2,0-0.3c0.8-0.6,3.8-3,6-4.3
	c2.1-1.3,5.1-0.5,6.1-0.1c0.1,0,0.2,0.2,0,0.3c-1.4,0.8-6.7,4-7.9,5.2C87.2,266.4,84.9,264.9,84.2,264.4z M92.8,267.5
	c-1.4-0.4-1.9-0.7,0.6-2.2c2.5-1.5,5.3-3.3,7-4.1c0.8-0.4,1.8-0.7,2.7-0.7c0.5,0,1,0,1.4,0.1c0.1,0,1.1,0.5,0.9,0.7
	c-1.2,0.9-2.6,1.4-3.9,2.1c-1.4,0.8-2.8,1.6-4.1,2.6C96.1,266.8,94.5,268,92.8,267.5z M103.3,268.6c-1,0.6-2.2,0.8-3.3,0.6
	c-0.7-0.1-1.5-0.3-2.2-0.6c0,0,4.4-2.9,8-4.7c3.6-1.8,4.9-1.9,5.8-1.2c1,0.7-3.9,3.1-3.9,3.1C106.2,266.6,104.7,267.7,103.3,268.6z
	 M118.5,266.5c-2.9,1.5-6,2.1-6,2.1s-5.7,1.6-6.3,0.8c-0.6-0.7,4.6-2.3,8.3-3.5C118.3,264.8,121.4,265,118.5,266.5z M121,263.3
	c-1,0-2.1-0.3-3-0.7c-0.4-0.2-0.9-0.4-1.2-0.7c-0.3-0.2-0.6-0.4-0.8-0.7c-1-1.2-1.4-3-1.6-4.4c0-0.1,0.1-0.2,0.2-0.1
	c1,0.9,4.7,4.3,6.5,6.5C121.2,263.1,121.2,263.3,121,263.3z M110,470.8c0.5-0.5,1.1-0.7,1.8-0.4c0.2,0.1,0.3,0.2,0.4,0.3
	c0.1,0.2,0.1,0.4,0,0.6c-0.2,0.6-0.6,1.2-1.1,1.7c-0.5,0.5-1,0.8-1.6,1c-0.2,0.1-0.4,0.1-0.6,0c-0.2-0.1-0.2-0.3-0.2-0.5
	C108.7,472.5,109.3,471.5,110,470.8z M102.4,476.1c-0.2-0.3-0.2-0.8,0-1.1c0.1-0.2,0.4-0.3,0.6-0.4c0.5-0.1,1.1-0.1,1.6,0
	c0.4,0.1,0.9,0.3,1.2,0.6c0.2,0.2,0.4,0.4,0.5,0.7c0.2,0.6-0.2,1.3-0.8,1.5c-0.6,0.2-1.2,0-1.7-0.3
	C103.3,477,102.7,476.7,102.4,476.1z M107.3,481c-0.2,0.5-0.4,0.9-0.7,1.4c0,0.1-0.1,0.1-0.1,0.2c-0.5,0.6-1.6,1.4-2.3,0.8
	c-0.5-0.5-0.3-1.3,0-1.8c0.4-0.7,1.3-2.5,2.3-2.1c0.4,0.2,0.9,0.6,0.9,1C107.5,480.6,107.4,480.8,107.3,481z M107.5,479.1
	c-0.9-0.8-0.5-1.8,0.2-2.6c0.4-0.5,0.9-0.7,1.6-0.6c0.7,0.1,1.3,0.5,1.6,1.1c0.4,0.8,0.1,1.7-0.6,2.1
	C109.5,479.6,108.3,479.6,107.5,479.1z M113.8,483.2c-0.1,0.2-0.1,0.3-0.3,0.4c-0.6,0.5-1.6-0.1-2.1-0.5c-0.7-0.4-1.6-1.1-1.6-2
	c0-1.5,1.6-1.4,2.5-0.9c0.8,0.4,1.7,1.1,1.6,2C114,482.6,113.9,483,113.8,483.2z M115.2,477.8c-0.5,0.3-1.1,0.5-1.7,0.5
	c-0.9,0.1-1.8-0.4-1.8-1.4c0-0.8,1.1-1.3,1.7-1.4c0.9-0.2,1.9,0.1,2.6,0.8c0.1,0.1,0.1,0.1,0.2,0.3
	C116.3,477,115.4,477.7,115.2,477.8z M110.8,423c-1,0-1.9-0.5-1.9-1.1c0-0.6,0.8-1.1,1.9-1.1c1,0,1.9,0.5,1.9,1.1
	C112.7,422.5,111.8,423,110.8,423z M114.1,415c0.5-0.1,1.2,0.5,1.4,1.4c0.2,0.9,0,1.8-0.6,1.9c-0.5,0.1-1.2-0.5-1.4-1.4
	C113.3,416,113.5,415.1,114.1,415z M114.7,426.6c-0.2,1.1-0.7,2-1.1,1.9c-0.4-0.1-0.4-1.1-0.2-2.2s0.7-2,1.1-1.9
	C114.9,424.5,115,425.5,114.7,426.6z M116.7,422.1c-0.4,0.9-1.3,1.3-1.8,1c-0.6-0.3-0.7-1.2-0.3-2.1s1.3-1.3,1.8-1
	C117,420.3,117.1,421.2,116.7,422.1z M118.7,418.3c0.7-0.5,1.5-0.5,1.8-0.1s0,1.2-0.7,1.6c-0.7,0.5-1.5,0.5-1.8,0.1
	S118,418.8,118.7,418.3z M120.6,424.7c-0.2,0.4-1,0.4-1.9,0c-0.8-0.4-1.4-1.1-1.2-1.5c0.2-0.4,1-0.4,1.9,0S120.8,424.3,120.6,424.7z
	 M99.9,277.3c0.3-0.6,4.5-0.4,7.1,0c1.9,0.3,4.3,0.9,5.3,1.1c0.2,0.1,0.3,0.4,0.1,0.5c-0.8,0.6-2.8,1.5-5.7,0.9
	C102.8,278.9,99.6,277.8,99.9,277.3z M86.1,284.6c0.8-1.1,3.4-1.3,5.6-0.5c1.7,0.6,4.1,1.5,5.2,2c0.2,0.1,0.2,0.4,0,0.5
	c-1,0.5-3.3,1.3-5.5,0.4C88.5,285.6,85.3,285.7,86.1,284.6z M76.6,290c0.8-1,3.3-3.5,6.2-2.4c2.7,1,5.2,1.6,6.2,1.8
	c0.2,0,0.3,0.3,0.1,0.5c-0.9,0.8-3.4,2.5-6.3,1.9c-2.9-0.6-5.1-1.1-6-1.3C76.5,290.4,76.4,290.2,76.6,290z M73.2,298.6l2.4-4.3
	c0-0.1,0.1-0.1,0.2-0.1h2.7c0.3,0,0.4,0.3,0.2,0.5l-5.1,4.3C73.4,299.2,73,298.9,73.2,298.6z M78.6,301.9c-1.8,0.2-4.3-0.6-1.8-2
	c1.7-1,4.6-2.6,6-3.5c0.2-0.1,0.5,0.1,0.4,0.4C82.1,298.4,79.9,301.7,78.6,301.9z M87.6,300.1c-0.5,2-2.8,2-4.3,1.4
	c-1.5-0.6,0.9-3.6,2.8-5.4c1.2-1.1,2.8-2.6,3.8-3.5c0.2-0.2,0.6,0,0.4,0.3C89.4,294.9,87.9,298.6,87.6,300.1z M95.1,299.3
	c-0.7,2.8-1.8,3-3.5,3.8c-1.7,0.8-2.3-1.2-1-3.4c1.3-2.1,3.6-10.3,7.5-11.2c0.2,0,0.4,0.1,0.3,0.4C97.9,290.6,95.7,296.9,95.1,299.3
	z M104.7,285.9c-0.6,2-3.1,10.3-3.8,12c-0.6,1.5-2.4,1.4-3.1,1.3c-0.2,0-0.3-0.2-0.2-0.4c0.5-1.6,3.2-9.5,4.2-11.3
	c0.8-1.4,2-1.9,2.6-2.1C104.6,285.5,104.8,285.7,104.7,285.9z M98.7,283.5c-3.7-0.7-8.6-2.8-7.9-3.6c0.7-0.8,3.8-0.4,6.7,0.4
	c2.2,0.6,5.8,1.4,7.3,1.8c0.3,0.1,0.3,0.4,0.1,0.5C103.7,283.2,101.3,284.1,98.7,283.5z M113,282.4c-1.3,2.8-6,12.4-7.6,14
	c-1.8,1.9,1.4-6.3,2.1-9.3c0.5-2.3,3.6-4.3,5.1-5.1C112.8,281.9,113.1,282.1,113,282.4z M116.9,311.1c-0.4,0.2-0.9,0.1-1.2-0.2
	l-1.2-1.9c-0.2-0.4-0.2-0.8,0.2-1.1l4.7-4.1c0.3-0.3,0.8-0.1,0.8,0.3c0.1,1.2,0.2,3.3-0.5,4.5C118.9,309.7,117.7,310.6,116.9,311.1z
	 M120.9,317.3c0,0-3.1-1.8-2.7-3.4c0.4-1.5,3-2.7,3-0.8C121.2,315.1,120.9,317.3,120.9,317.3z M120.9,298.9
	c-0.4,0.8-0.9,1.4-1.5,1.9c-0.2,0.1-0.3,0.3-0.5,0.4c-1.3,1-2.6,2-3.9,3c-0.4,0.3-0.8,0.5-1-0.1c-0.2-0.6,0-1.4,0.2-2
	c0.6-1.5,2.9-2.8,4.6-4.2c0.5-0.4,1.5-1.2,2.2-0.9C121.5,297.5,121.1,298.5,120.9,298.9z M119.9,293.9c-0.3,0.3-2.8,3-3.3,2.4
	c-0.6-0.8,0.5-2.6,3.2-5.4c0.7-0.7,1.4-1.4,2.2-2.1c0.3-0.2,1.9-1.3,1.5-0.3c-0.5,1.2-1.1,2.2-1.8,3.2
	C121.2,292.5,120.6,293.2,119.9,293.9z M124.2,315.8c-0.2,0.2-0.6,0.1-0.6-0.2V308c0,0,3.1,0.8,3,3.2
	C126.5,312.9,125,314.8,124.2,315.8z M127.8,306c-0.1,0.5-0.4,1.1-0.9,1.2c-0.7,0.1-1.3-0.6-1.7-1.1c-0.2-0.2-0.4-0.5-0.6-0.8
	c-0.9-1.4-1.6-3.5-1.1-5.2c0-0.1,0.1-0.2,0.2-0.3c1.1-1.2,3.8,3.7,4,4.6C127.8,304.9,127.9,305.4,127.8,306z M129,299.6
	c-0.3,1.6-2.5-1.6-2.5-1.6s-2-2.6-1.6-5c0.4-2.4,1.8,0.7,3,2.4C129,296.9,129.4,298.1,129,299.6z M129.7,294c-1-0.8-3.7-3.2-3-6
	c0.6-2.5,1.5-3.3,2-3.6c0.1-0.1,0.3,0,0.3,0.1l1,9.2C130,294,129.8,294.1,129.7,294z M231.4,291.7c-0.2-2.6-0.3-8.1,3-9.7
	c0.3-0.2,0.6,0.2,0.5,0.5c-0.7,1.8-2.3,6.4-3,9.3C231.8,292,231.4,292,231.4,291.7z M234.1,292c-0.2,0.1-0.5,0-0.6-0.3
	c-0.1-0.5-0.2-1.2,0.4-2.2c0.9-1.4,1.8-0.8,1.7,0C235.5,290.3,234.8,291.6,234.1,292z M237.4,286.5c0,2-0.4,2.5-1.3,1.5
	c-0.4-0.5-0.5-1.2-0.5-1.8c0-0.1,0-0.2,0-0.3c-0.1-0.8-0.1-2.2,0.8-2.4C237.7,283.2,237.4,284.5,237.4,286.5z M239,315.4
	c0-0.2,0.2-0.3,0.3-0.3h4.7c0.3,0,0.4,0.3,0.3,0.5c-0.8,1.4-2.8,5.1-3,5.9C241.2,322.6,238.4,318,239,315.4z M244,323.3
	c-1-0.9-1-1.5,0-3.1c0.7-1.2,1.7-2.8,2.2-3.6c0.1-0.2,0.4-0.2,0.5,0c0.6,0.8,2.4,2.5,6,2.2c0.3,0,0.5,0.4,0.3,0.6
	c-1.4,1.2-4.2,3.6-4.8,5.2C247.3,326.7,245,324.2,244,323.3z M247.6,314.7c0.3-2.6,5-3,6.9-2.8c1.9,0.1,2.6,3.8-2.3,4.9
	C252.3,316.7,247.3,317.3,247.6,314.7z M256.7,325.4c-5.8,2.6-7.9-0.6-5.6-2.5c2.3-1.9,5.5-3.6,6.2-8.8c0.1-0.4,3.3,1.6,4.8,1.7
	c0.2,0,0.3,0.2,0.3,0.3C262.3,317.6,261.7,323.2,256.7,325.4z M260.2,306.5c1.1,1,1.8,2.4,2.1,3.8c0.2,1,0.4,3.2-0.8,3.7
	c-0.4,0.2-0.9,0-1.3-0.3c-0.7-0.5-1.2-1.1-1.8-1.7c-0.5-0.6-1.1-1.2-1.9-1.6c-1.6-0.7-3.5-0.8-5.1-0.1c-3,1.3-5.5,3.2-8.9,3.3
	c-3.4,0.1-4.6-1.3-2-4.4C244.9,303.9,254.6,301.6,260.2,306.5z M255,290.9c0.3-0.3,0.9-0.2,1.4,0.3c0.5,0.5,0.7,1.1,0.5,1.4
	c-0.3,0.3-0.9,0.2-1.4-0.3C254.9,291.9,254.7,291.2,255,290.9z M279.7,286.6c-0.6,0.4-1.1,0.4-1.5-0.2c-0.3-0.4-0.5-0.8-0.7-1.3
	c-0.3-0.7-0.4-1.5-0.3-2.2c0-0.4,0.1-0.9,0.6-1c0.6-0.2,1.2,0.6,1.5,0.9c0.5,0.6,0.9,1.3,1.1,2.1c0.1,0.2,0.2,0.5,0.1,0.7
	C280.4,286.1,280,286.4,279.7,286.6z M283.3,290.6c-0.1,0.1-0.1,0.1-0.2,0.2c-0.1,0-0.1,0-0.2,0c-0.7-0.1-1.3-1-1.7-1.4
	c-0.1-0.1-0.2-0.2-0.2-0.2c-0.2-0.2-0.3-0.3-0.4-0.5c-0.2-0.4-0.3-0.8,0.1-1c0.9-0.6,2.1,1,2.5,1.5
	C283.6,289.4,283.7,290.1,283.3,290.6z M282.6,285.5c0,0,3.5-0.3,4.3,0.6c0.8,0.8,1.2,8.1,1.2,8.1L282.6,285.5z M287.5,283.7
	c0.3,1.3-5.1,0.6-5.9,0c-0.9-0.6-2.2-3-2.2-3S287.1,282.3,287.5,283.7z M282.1,277c1.4,1,2.4,2.9,0,2.4s-4-1-4-1
	c-0.1-0.2-2.1-2.8-2.1-3.7C276.1,273.7,280.7,276,282.1,277z M274.9,278.2c0-0.2,0.1-0.4,0.2-0.5c0.3-0.2,0.9,0.1,1.1,0.4
	c0.4,0.6,0.4,1.5,0.4,2.2c0,0.6,0.1,1.4-0.6,1.6c-0.4,0.1-0.8,0.1-1-0.3c-0.1-0.2-0.2-0.4-0.2-0.5c-0.1-0.5-0.1-1.1-0.1-1.7
	C274.8,278.9,274.9,278.6,274.9,278.2z M285,261.9c4,1.4,5.9,3.5,5.9,3.5s-11.9-2.7-13.3-2.6S281,260.5,285,261.9z M291.5,268
	c-0.3,0.5-5.5,1.2-8.5,0.8c-3-0.3-8.6-4.4-8.6-4.4C277.7,264.1,291.7,267.5,291.5,268z M264.8,282.2c0,0.1-0.1,0.2-0.2,0.1
	c-0.7-0.6-2.7-2.7-2-6.2c0.8-3.3,2.6-4.2,3.3-4.4c0.1,0,0.2,0.1,0.2,0.2C265.7,272.9,264.5,276.2,264.8,282.2z M267.3,273.5
	c0.1-0.1,0.3-0.3,0.5-0.2c0,0,0.1,0,0.1,0c0.1,0.1,0,0.6,0,0.8c0,0.7-0.1,1.3-0.2,2c-0.1,1.4-0.2,2.9-0.7,4.2
	c-0.1,0.2-0.2,0.6-0.4,0.6c-1,0.1-0.4-4.8,0-6.2C266.7,274.3,266.9,273.8,267.3,273.5z M305.3,256.9c-3.8-0.1-6.7-2.4-7.5-4.3
	c-0.9-1.8,0-3.9,1.4-2.4c1.4,1.5,2.3,2.6,3.1,1.7c0.8-0.9-3.5-5-3.5-5s4.7,1.1,7.5,1c2.8-0.1,4.4,1.4,4.3,4.7
	C310.6,255.8,309.1,257,305.3,256.9z M312.3,235.7c3.5,2.6,4.8,8.1-0.5,9.6c-5.2,1.6-7.3,0.7-10,0c-2.8-0.7-3.1-3.5-1-3.9
	s4.4,0.8,4.4-0.6c0-1.4-5.4,0-5.4-2.2c0.1-2.2,2-2.6,2-2.6S308.7,233.1,312.3,235.7z M303.5,224.5c2.9,1.4,4.6,6,1.1,8.5l-4.4,2.5
	c0,0-0.7,0.7-2.2-0.9s-1.1-2.7,0.4-5.2C299.8,226.8,300.6,223,303.5,224.5z M290.4,233.3c1.1-2.1,4.5-8.1,7.8-8.2
	c0.1,0,0.1,0.1,0.1,0.1c-0.2,0.9-1,5.3-2.7,5.8c-1.4,0.4-3.8,1.8-5,2.6C290.6,233.7,290.3,233.5,290.4,233.3z M291.5,246.7
	c1.5,0.3,1.5-0.5,0.4-1.3c-1.1-0.8-2.6-1.9-0.4-3.1s4.1-0.5,3.8-1.9s-3.7,1.3-3.1-2.1c0.6-3.4,0.8-5.7,3.1-3.4s4.1,4.7,2.4,8.6
	c-1.3,3.1-1.2,8.4-1,10.5c0,0.4-0.4,0.6-0.7,0.4c-1.4-0.8-4.1-2.7-5.1-4.6C289.6,247.4,289.9,246.5,291.5,246.7z M279.9,248.7
	c0.6-0.4,1.1,0.6,1.3,1c0.6,1.1,1.5,2.3,1.7,3.6c0,0.2,0,0.3,0,0.5c-0.3,1.1-1.5-0.6-1.7-0.9c-0.2-0.3-0.5-0.6-0.7-0.9
	c-0.2-0.3-0.4-0.7-0.5-1.1C279.7,250.3,279.3,249.1,279.9,248.7z M238.1,104.5c0,0,0.6,11.1,0.4,12s-3.8,2-4.5,1.7
	C233.2,117.8,238.1,104.5,238.1,104.5z M235,100.5c1,0.3-2.7,9.7-2.7,9.7l-2.3-4.2C229.9,106.1,234,100.3,235,100.5z M230.2,110.3
	c1.5,2.3,0.8,5.9,0.3,7.6c-0.1,0.3-0.5,0.3-0.6,0c-0.5-1.6-1.6-4.9-2.1-6C227.2,110.5,228.2,107.1,230.2,110.3z M226,114.5
	c0.9,0,0.1,3.3,1.9,5.6c0.2,0.3,0.1,0.6-0.1,0.8c-0.9,0.6-2.6,1.8-3.1,0.9C224.1,120.7,225,114.5,226,114.5z M217.8,81.6
	c1.1-0.2,0.2,5.4-0.9,6.3c-0.8,0.7-2.7,2.3-3.7,3.2c-0.2,0.1-0.4,0-0.3-0.2C213.9,88.5,216.8,81.7,217.8,81.6z M208.4,97.6
	c-0.1,0.3-0.4,0.3-0.5,0c-0.6-1.6-1.9-5.7-1.6-9.2c0.4-4.5,1.5-3.4,2.7,0.5C210,92,208.9,96,208.4,97.6z M210,85.4
	c-0.3-2.6,0-3.8,1.6-5.4c1-1,2.3-2.1,3.1-2.7c0.2-0.2,0.5,0,0.4,0.3c-0.8,2.2-2.9,7.6-3.6,9C210.8,88.5,210.4,88,210,85.4z
	 M211.9,97.8c-0.4-0.5-0.6-2.5,2.7-5.1c3.3-2.6,4.3-1,3.6,0c-0.7,1-3.6,3.8-3.6,3.8S212.3,98.4,211.9,97.8z M213.5,99.9
	c2.1-1.5,3.4-1.9,3.9-1.3c0.4,0.5-2.5,5.2-3.6,6.8c-0.2,0.2-0.5,0.2-0.6-0.1C212.8,104.1,211.9,101.1,213.5,99.9z M213.3,139
	c4.2-8.1,3.4-10.7,6.8-12.2c3.4-1.6,3.7,0,10-3.6c6.2-3.6,9-3.3,13.8-0.8s8.2,0.3,10.4,5.4c2.2,5,2.5,18-8.6,37.6
	c-0.1,0.1-0.3,0.1-0.3,0c-0.7-3-5.1-21.3-6.5-21.3c-1.6,0,4.1,20,2.5,20.2c-1.6,0.2-14.5-32.8-16.3-32.8s16.8,37.3,15,38.3
	s-16.6-24.8-17.5-24.1c-0.9,0.6,9.8,19,11.8,22.3c0.1,0.1-0.1,0.3-0.2,0.2c-2.2-1.2-10.6-5.8-14.4-9.3
	C215.3,154.9,209.1,147.1,213.3,139z M240.2,210.1c-0.9-0.5-4.3,19.9-5.6,20c-1.3,0.1,2.2-27.9,0.9-28.5s-2.3,25.2-3.2,25.2
	c-1,0-2.6-13-3.3-13.2c-0.7-0.2,0.9,15.3,0.9,15.3s-8.9-9.1-12.9-16c-4-6.9-0.6-9.6,3.1-12.7s7.2-3.3,10.7-2.8
	c3.5,0.5,7.2-1.4,11.2,3.1c4,4.5,5.6,8.1,5,13.4c-0.7,5.3-9.2,13.5-9.2,13.5S241.1,210.6,240.2,210.1z M225.2,236.3h1.2
	C226.1,236.4,225.7,236.4,225.2,236.3h-14.4c0,0,4.7,2.4,15.2,1.9c0.1,0,0.2,0.2,0.1,0.3c-1.5,1.1-7.1,5.1-14.9,7.2
	c-9.2,2.4-15.9-3.2-14.1-9.8c1.7-6.6,1.3-3.5,2.6-9.2c1.2-5.7,2.4-8.5,8.6-6.9c5.4,1.4,17.5,8.5,20.5,10.4c0.1,0.1,0.1,0.3-0.1,0.3
	c-2.7-0.5-10.9-1.9-11.4-1.6c-0.6,0.4,11.6,3.1,11.7,4.2c0.2,1.1-21.9-1.9-22-1.2C206.9,232.6,220.1,236,225.2,236.3z M182.8,240
	c-1.8-0.1,11.9-26.1,9.9-29.4c0,0-11.3,27.1-13.4,26.7c-2.1-0.4,5.7-29.6,5.7-29.6s-8.4,18.9-9.1,27.8c0,0-1.4,2.1-1.7-3.3
	c-0.3-5.3-0.6-23.9-2.7-23.9c0,0-0.4,21.1,0.5,28.4c0,0-9.7-16.3-11.5-23.4c-1.9-7.1-2.4-16.8,4.2-21.9s14.8-7.3,17.7-4.4
	c2.9,3-0.8,6.4,4.1,11.4c4.9,5,7.3,6,10.5,5.3c0,0-0.9,5.2,1.3,9.2C198.4,213,184.6,240.1,182.8,240z M181.4,252.4
	c-1.9,1.1-4.8,1.4-6.9,0.2c-0.4-0.2-0.7-0.4-1-0.7c-2.8-2.8-1.5-7.9,0-11.1c1.1-2.4,4.1-2.4,6.1-1c1.1,0.8,2,1.9,2.5,3.2
	c0.6,1.4,1.2,2.9,1.4,4.4C183.8,249.4,183.2,251.3,181.4,252.4z M233.2,171.6c0,0-28-2-28.2-0.3c-0.2,1.7,27.5,2.5,28.1,3.2
	c0.6,0.7-29.4,8.7-29.2,9.9s29.8-7.5,30.4-6.2c0.6,1.3-15.5,9.3-25.4,13.5c-0.3,0.1-0.2,0.6,0.1,0.5c2.6-0.4,7.5-1.5,13.9-4.6
	c9.5-4.5,13-6.2,13.7-5.5c0.7,0.8-5.3,4.7-13.3,9.1c-8,4.4-21.6,11.6-28.3,10.1s-7.8-5.8-7.7-10.7c0-4.9-6.4-7.3-4.7-14.9
	c1.7-7.6,6.6-16.9,15.9-16.9S226.7,166.7,233.2,171.6z M190,153.1c-0.2-0.1-0.1-0.4,0.1-0.4c2.4-0.2,10.8-0.7,13.5-0.3
	c2.7,0.4,4.5,3.7,5,4.8c0.1,0.1-0.1,0.3-0.2,0.3c-1.5-0.2-7.1-1-9.9-1C195.8,156.4,191.5,154,190,153.1z M241.8,186.9
	c-0.4,2.4-1.2,5.3-2.6,7.3c-0.5,0.7-3.9,2.8-3.1,0.7c1-2.4,2.3-4.7,3.6-6.9c0.2-0.3,1.2-2.5,1.9-2c0.1,0,0.1,0.1,0.2,0.2
	C241.9,186.3,241.8,186.6,241.8,186.9z M241.8,195.3c0.3-1.7,1.1-3,1.4-3.6c0-0.1,0.2-0.1,0.2,0c0.1,0.9,0.5,3.9,0.3,5.4
	C243.4,198.8,241.4,197.4,241.8,195.3z M233.4,195.3c0,0-2.7,0.6-4.5,0.2c-0.3-0.1-0.4-0.4-0.2-0.7c1.1-1.5,4.5-6,7.3-7.8
	c0.4-0.2,0.8,0.2,0.6,0.5C235.6,189.6,233.7,193.6,233.4,195.3z M225.6,194.1c0,0-1.8,2.8-2.7,2.3
	C222,195.9,225.6,194.1,225.6,194.1z M213.9,215.7c-2.9,1.3-5.4,1.9-8,0s-6.6-3.8-6.5-6.5c0.1-2.7,0.3-6.3,12.6-8.8
	c0,0-10.5,7.3-10.2,7.8s19.1-11,19.1-11s-7.5,5.7-7.5,9.9S216.8,214.4,213.9,215.7z M204.5,218.3c-0.6,0-1.7,0-2.4,0.2
	c-0.2,0-0.4-0.2-0.3-0.4c0.2-0.7,0.6-1.8,1.5-1.6c0.8,0.2,1.3,0.9,1.5,1.4C204.9,218,204.7,218.3,204.5,218.3z M196.1,226.1
	c1.2-2.3,2.1-3.3,3-3.1c0.8,0.3-0.4,2.1-0.4,2.1s-1,1.7-2.2,3.2C195.3,229.7,194.8,228.4,196.1,226.1z M198.4,246.9
	c-0.1,1.2-7.1,0-7.1,0C196,245,198.5,245.7,198.4,246.9z M196.5,236.8l-8.8,3.3c-0.4,0.1-0.7-0.3-0.5-0.6c2-2.5,8.1-7.8,8.1-7.8
	L196.5,236.8z M196.5,241.6c0.5,1.9-10.7,4.1-10.7,4.1C188,242.5,196,239.7,196.5,241.6z M186.6,250.2l27.2-1.4c0,0-4.6,4.9-5.1,8.3
	l-22.1-5.4V250.2z M215.6,219.4c-0.1-2.2,0.9-2.8,1.9-1.6c0.9,1.2,4.3,5.9,4.3,5.9S215.7,221.6,215.6,219.4z M246,202.2
	c0,0,0.7-16.4,1.7-16.4s5.4,19,6,28.6c0,0-3.2,1.4-4.7,2.1c-0.3,0.1-0.6-0.1-0.6-0.4C248.4,213.8,248.1,206.2,246,202.2z
	 M248.6,181.2c-1,1.7-2,3.2-5.2,2.1c0,0-7.2-2-8-5.4c-0.8-3.4,0.7-4.6,4.1-5.4s6.3-1.2,9,1.4S249.6,179.5,248.6,181.2z M209.4,132.3
	c0.4-2.6,0.3-4,0.3-4s0.9-0.7,1.8,3.1s-2.9,6.6-2.5,11.3s4.9,11.2,3.7,13c-0.9,1.4-2.6-0.9-3.4-2.2c-0.2-0.3-0.3-0.5-0.4-0.7
	c-1.5-2.5-2.9-5.4-2.2-8.4C207.8,140.1,209,134.9,209.4,132.3z M206.6,127.9c-0.8,5.8-2.1,16.5-2.5,19.4c0,0.3-0.4,0.5-0.7,0.3
	c-1.1-1-3.3-3.5-2.9-6.6c0.5-4.1,3.5-17.7,3.5-19.8C204.1,121.3,207.6,121.2,206.6,127.9z M197.1,118.2c0.1-0.5,0.5-0.9,1-0.8
	c1.2,0.1,3.2,0.5,3.3,2.7c0.1,2.9-2.9,16.1-3.3,19.8c0,0.3-0.4,0.5-0.7,0.3c-1.4-0.9-4.4-3.6-3-8.4
	C195.8,126.7,196.8,120.4,197.1,118.2z M188.6,124.5c0.4-3.1,2.3-11.8,2.3-11.8s3.8,2.2,3.4,6.3c-0.4,4.2-3.1,12.4-3.1,12.4
	S188.2,127.6,188.6,124.5z M187.3,111.2c2,0.6-1.4,10.1-1.4,10.1s-3-3.1-2.2-5.2C184.5,114,185.3,110.6,187.3,111.2z M179.8,107.7
	c1-0.9,3.5,1.1,3.9,2s-2,3.1-2,3.1S178.8,108.5,179.8,107.7z M179.4,114.4c1.7,2.3,0.5,3.9,0.5,3.9s-1.2,0.4-2-2.1
	S177.7,112.1,179.4,114.4z M180.3,120.9c1-0.5,2.5,0.8,3.4,2.5c0.9,1.7,2.2,4.2,2.2,4.2s-4.2-0.2-6.1-2.5
	C177.9,122.8,179.3,121.4,180.3,120.9z M182.2,129.3c3.6,0.9,7.4,4.5,7.7,5.5c0.3,1-3.4,0.4-3.4,0.4s-4.5-1.1-6.4-2.7
	C178.1,131,178.6,128.4,182.2,129.3z M180.7,135.9c2.3,0.4,4.6,1,6.8,1.6c2.1,0.6,6.2,1.3,7.3,3.4c0.2,0.4,0.4,0.9,0.3,1.4
	c-0.1,0.8-0.2,0.7-0.9,0.8c-1.2,0.1-2.4,0-3.5,0c-0.9,0-7.4,0.4-9.4-2S178.5,135.5,180.7,135.9z M183.7,146.2
	c-0.5-1.9,11.4-1.2,13.6,0c1.3,0.7,2.4,1.6,3.1,2.3c0.3,0.3,0.1,0.9-0.3,0.9c-2.2,0.2-7,0.7-9.8,0.7
	C186.6,150.1,184.2,148.1,183.7,146.2z M191.8,156.9c0,0-17.2,12-10.4,25.8c0,0-10.3-0.9-16.6,4.7c-6.4,5.6-7.1,7.7-7.1,7.7
	s-2.6-10,3-18.1c5.6-8.1,5.6-11,9.8-14.9C174.6,158.2,182.1,155.3,191.8,156.9z M155.2,164.3c-2.3-1.5,2-3.3,3.2-3.8
	c0.1-0.1,0.3,0.1,0.3,0.2C158.4,161.9,157.5,165.8,155.2,164.3z M160.6,167.1c2.7-2.7,4.1-2.5,2.8,0c-1,2.1-3.5,4.8-4.3,5.7
	c-0.1,0.1-0.3,0.1-0.3-0.1C158.6,171.8,158.4,169.3,160.6,167.1z M167.5,152.7c1.9,0.8,4,1.3,4.9,1.6c0.2,0,0.2,0.3,0,0.4
	c-1.5,0.7-6.1,2.5-7.5,0.4C163.3,152.4,164.9,151.7,167.5,152.7z M168.9,159c0.2,0,0.3,0.2,0.1,0.3c-1.8,1.4-7.5,6-7.7,3.5
	C161.1,160.3,166.9,159.2,168.9,159z M159.7,147c0.6,0,1,0.6,1,1.3s-0.5,1.3-1,1.3s-1-0.6-1-1.3S159.2,147,159.7,147z M154.7,152.8
	c0.7-0.1,5.2-0.4,7.1,0.8c1.7,1.2,0.9,3.1,0.6,3.6c0,0.1-0.1,0.1-0.2,0.1c-0.5-0.1-2.8-0.4-5.3-2.6
	C155.4,153.4,154.9,152.9,154.7,152.8C154.6,152.8,154.6,152.8,154.7,152.8C154.6,152.8,154.5,152.7,154.7,152.8z M143.5,159.8
	c0.7-0.9,3.5-4.2,6.1-5.5s3.7-0.5,4.8,0.8c0.9,1,1.2,2.2,1.3,2.7c0,0.1,0,0.2-0.1,0.2C154,158.2,142.8,160.7,143.5,159.8z
	 M149.8,164.6c-3.6-0.4-4.2-0.8-2.6-1.9c1.4-0.9,4.4-1.7,5.2-1.8c0.1,0,0.2,0,0.2,0.2C152.7,161.9,152.9,165,149.8,164.6z
	 M153,167.6c1.8-1.6,3.3,1.3,3.3,3.3c-0.1,1.6-0.6,3.6-0.9,4.5c0,0.2-0.3,0.2-0.3,0C154.2,174,151.4,168.9,153,167.6z M153.1,193.5
	c0.1-0.4,0.6-0.5,0.8-0.2c0.9,1.3,2.7,4.4,3.1,8.7c0.5,4.5,0.8,8.5,0.9,10.1c0,0.4-0.4,0.6-0.7,0.4c-1.5-1-4.7-3.8-4.6-10.6
	C152.7,196.9,152.9,194.6,153.1,193.5z M156.5,215.6l-1,0.7c-0.1,0.1-0.3,0.1-0.5,0c-1.2-0.7-7.1-3.6-9.8-3.5
	c-3.1,0.1-5.7,0.1-8.4,1.8c-1.9,1.2-5.2,0.4-7.1-0.2c-0.4-0.1-0.4-0.7,0-0.8c2-0.5,5.8-1.5,9.7-2.3c5.4-1.1,10.7-1.4,17.1,3.6
	C156.7,215.1,156.7,215.4,156.5,215.6z M145.8,186.9c1.4,0.3,4.7,1.5,4.7,5.6c0,4.2-0.5,9.3-0.7,11.2c0,0.3-0.4,0.5-0.7,0.3
	c-1-0.7-2.8-2.8-3.1-7.9c-0.2-5-0.6-7.6-0.8-8.7C145.3,187.1,145.5,186.9,145.8,186.9z M136.9,182.7c1.8,0.7,5.7,2.6,6.3,6.3
	c0.6,3.8,0.3,8,0.1,9.7c0,0.4-0.5,0.5-0.7,0.3c-1.1-1-3.4-3.5-4.4-8.5c-0.8-4.1-1.4-6.2-1.8-7.2
	C136.2,182.9,136.5,182.6,136.9,182.7z M134.1,184.5c1.2,2.7,1.6,6.9,1.8,8.6c0,0.3-0.3,0.6-0.6,0.4c-1.4-0.8-4.6-2.8-5.7-6.7
	C128.2,181.8,132.6,181,134.1,184.5z M122.4,182.6c2.2-1.2,4,3,4.8,5.2c0.1,0.4-0.3,0.8-0.7,0.5C124.5,187,120.2,183.9,122.4,182.6z
	 M113.6,181.6c0.6-0.9,5.4,2.3,5.4,2.3S113.1,182.5,113.6,181.6z M108,183.3c1.1-0.6,3.5,0.6,4.5,1.2c0.2,0.1,0.3,0.5,0.1,0.7
	c-0.4,0.5-1.3,1.2-2.5,1.6C108.4,187.3,106.7,184.1,108,183.3z M114,188c2-0.4,4.6-0.1,6.1,0.2c0.4,0.1,0.5,0.7,0.1,0.8
	c-2,0.8-5.7,2.1-7.9,2.1C109.1,191.2,110.9,188.7,114,188z M113.4,194.7c-0.2-0.3-0.1-0.7,0.3-0.7c1.6-0.2,5.5-0.8,8.6-1.5
	c3.1-0.7,6.8,1.1,8.5,2.1c0.3,0.2,0.3,0.7-0.1,0.8c-2.1,0.6-7.2,1.8-10.4,2.6C117.3,198.8,114.5,196,113.4,194.7z M117.7,201.2
	c0.3,0,10.6-1.7,13.7-2.9c2.4-0.9,6.8,1.5,8.9,2.8c0.4,0.2,0.2,0.8-0.2,0.8c-3.1,0.3-11,1.1-14.9,2.5
	C120.3,206.1,117.4,201.2,117.7,201.2z M121.4,208.4c-0.3-0.3-0.1-0.7,0.3-0.7c1.4-0.1,4.5-0.4,7.9-1.7c4.5-1.6,15.3-3.1,18.5,1
	c0.2,0.3,0,0.7-0.3,0.7c-2.6,0.1-11.5,0.6-16.1,2.1C126.8,211.4,123.1,210.2,121.4,208.4z M101,238.4c-0.8-0.5,4.1-3.8,5.2-4.6
	c0.1-0.1,0.3-0.1,0.5,0l3.1,1.6c0.4,0.2,0.3,0.7-0.1,0.8C107.3,237.1,101.7,238.9,101,238.4z M114.2,242.4c-3.3,0.1-6-0.3-7.7-0.7
	c-0.5-0.1-0.5-0.8,0-0.9l11.4-3.1c0.3-0.1,0.5,0.1,0.6,0.4C118.7,239.3,118.6,242.3,114.2,242.4z M118.4,234
	c-0.8,0.8-2.6,1.7-5.4,0.3c-2.4-1.1-3.5-1.8-4-2.2c-0.3-0.2-0.2-0.6,0.1-0.8l1.1-0.6c0.1-0.1,0.3-0.1,0.4,0c1,0.4,5.5,2.1,7.7,2.4
	C118.6,233.2,118.7,233.7,118.4,234z M120.5,231.4l-4.2-1.6c-0.4-0.2-0.4-0.8,0.1-0.9l5.2-0.9c0.4-0.1,0.6,0.3,0.5,0.6l-1,2.5
	C121,231.4,120.7,231.5,120.5,231.4z M140.8,258.8c-12.6,1.3-14.2-1-16.4-7.6c-2.2-6.6-5.1-7.5-2.6-13.3c2.5-5.8,4.5-8.8,5.1-12.6
	c0.6-3.8,6.4-5.7,9.6-6.8c3.2-1.1,5.4-3.1,11.8-1.9c6.4,1.2,13.4,9.1,20.5,21.2c0,0-18.9-11.8-23.4-11.8c0,0,24,14.9,24,18
	c0,3.1-30.1-18.3-38.1-15.3c0,0,30.1,14.6,33.1,16.3c3,1.7-19.4-4.7-20.2-2.2c-0.8,2.5,21.1,5.4,21.1,5.4S153.4,257.5,140.8,258.8z
	 M170.7,297.4c-7.9,3.1-15.3-2.6-19.4-6.4c-4.1-3.8-9.7-5.3-9.8-10.4c-0.1-5.1,1.8-6.8,9.4-14.2c7.6-7.4,13.7-13.3,17.8-15.2
	c0,0-10.5,14.7-9.7,15.5c0.7,0.8,3.7-1.1,6.5-5.7c2.9-4.6,5-7.7,6.1-7.5c1,0.2-8,18.6-10.7,23.2c-2.7,4.6-2.4,7.6,1.1,3.9
	c3.5-3.7,11.4-22.3,12-22.3c0.6,0-8.3,19.6-7.5,19.9c0.8,0.2,7.4-6.6,8.6-11.5c1.3-4.9,0.8-7.5,2.2-7.6c1.4-0.1,2.3,14.1,2.4,19.3
	C179.7,283.6,178.6,294.3,170.7,297.4z M218.2,272.3c-0.5,1.5-1.2,3.9-1.2,6c0.1,3.1-8.9,14-10.2,15.4c-1.3,1.4-3.9,3.9-9.7-0.7
	c-5.9-4.5-6.6-8.4-9.5-15.7c-2.9-7.3-5.7-14.7-5.7-14.7s12.3,12.7,13.2,12.2c0.9-0.5-14.7-18.3-14.7-18.3s11.3,8.7,15.6,13.7
	c4.3,5,8.4,8,9,7.2c0.6-0.8-10.2-11.5-12.4-13.4c-2.2-1.9-10.3-8.9-7.8-10.5c0,0,13.4,7.4,21.1,8.5c0.6,0.1,1,0.6,1,1.2
	c0,1.2,0.7,3.3,4.6,5.2c3.2,1.6,5,2.3,6.1,2.6C218.1,271,218.4,271.7,218.2,272.3z M230.3,265.7c-0.5,3.9-10.2,3.1-13.5,2.2
	c-3.3-0.9-11-3.2-8-8.6s16.1-16.7,16.1-16.7s-5.8,11-4.8,10.8c1-0.1,8.6-13.7,8.9-13.4c0.4,0.3-8.9,20.9-8,21.2
	c0.9,0.3,10.2-19.9,10.2-19.9S230.7,261.8,230.3,265.7z M231.5,239.3c-1.8-1.9-2.7-4.3-0.9-6.4c1.8-2.1,7.2-1.5,8.3-0.4
	c1.2,1.1,1.1,4.6-2.3,6.4C236.6,238.8,233.3,241.2,231.5,239.3z M263.7,263.7c-1.6,1.1-3.1,3.2-3.6,4.9s-1.5,3.9-4.2,3.9
	s-7.5,3.1-11.1,0.9c-3.5-2.3-11.9-10.2-11.6-30c0-0.1,0.2-0.2,0.3-0.1c1.4,2.5,8.2,14.2,8.8,13.8c0.7-0.4-5.2-11.5-4.6-12
	c0.6-0.4,10.4,15,11.3,15s-11.7-18.9-11.3-19.3c0.4-0.4,16.4,17.4,16.7,17.4c0.3-0.1-11.5-15.2-13.6-17.8c-0.1-0.1,0-0.2,0.1-0.2
	c2.4,1.2,13.7,6.8,18.6,12.2C265,258.4,265.3,262.5,263.7,263.7z M267.4,252.5c-1,1.4-4.2,1.4-6.9-1.4c-2.2-2.2-7.1-6-9.1-7.4
	c-0.2-0.2-0.1-0.5,0.2-0.4c3.7,0.7,16.1,3.1,16.5,2.7c0.4-0.4-7.9-1.6-7.1-2.6c0.8-0.9,6.5-1,8.8,1.1
	C272,246.7,268.4,251.1,267.4,252.5z M274.1,231.4c0.4,1.8,1.6,10-8.5,9.8c-10.1-0.1-22.7-2.1-25.6-4c0,0,20.9,0.6,21.2-0.5
	c0.4-1.1-20.2-0.9-20.6-2.2s20.5-2.9,20.5-3.5c0-0.6-20,1.2-20.3,0.4c-0.4-0.8,16.9-6.7,16.7-8.3c-0.2-1.6-17.8,6.4-17.8,6.4
	s7.9-9.9,14.5-14.1c6.6-4.2,11.8-3,14.7-0.4c2.9,2.5,5.7,4,5.6,8.7C274.2,228.3,273.6,229.6,274.1,231.4z M255.3,202.5
	c0.7-0.4,2.9,6.2,3.5,8.3c0.1,0.4,0,0.8-0.3,1c-0.8,0.6-2.4,1.6-2.5-0.1C255.8,209.5,254.5,203,255.3,202.5z M283.4,191.5
	c4.6,2.4,11,9.3,8,13.3c-3,4-15,14.6-19.5,10.5c-3.9-3.6-6.2-5.9-9.3-4.7c-0.8,0.3-1.6-0.1-1.9-0.9c-1.3-4-5-14.7-7.1-19.2
	c-2.7-5.6-4.4-5.6-3.2-6.8c1.3-1.3,4.3,1.9,7.5,6.1c3.2,4.2,15.4,15.6,16.3,14.7s-22.1-23-21.6-24.1c0.5-1.1,18,15,18.6,14.6
	c0.5-0.4-12.1-12.4-11.6-13.1C260.3,181.2,278.8,189.1,283.4,191.5z M265.2,147.4c11.8-11.4,16.5-6,18.5-2.3c2,3.7,5.9,5.7,8.6,10.9
	c2.7,5.2,4.7,11.1,1.2,16.5s-11.3,6.6-17.3,6.7c-5.6,0.1-16.2-1.3-19.9-2c-0.2,0-0.3-0.4,0-0.4c3.5-1.3,18.7-7.4,18.4-9.6
	c-0.3-2.3-13.3,6.3-19,6.4c-0.3,0-0.3-0.3-0.1-0.4c4.2-1.9,23-10.7,22.7-15c0,0-25,15.1-28.6,12.8c-1-0.6,13.6-9.3,13.5-12
	c-0.1-2.8-12.6,9.1-15.8,9.4C247.4,168.4,253.4,158.8,265.2,147.4z M263.1,91.2c0.8,0.3,1.4,1.4,0,4.1c-1.2,2.3-3.9,7.5-4.9,9.4
	c-0.1,0.3-0.6,0.3-0.7,0c-0.4-1.1-0.9-3.4,0.3-5.3C259.5,96.5,262.3,90.8,263.1,91.2z M261,84.2c1.3,0.5,1.4,2.1,0.4,3.7
	c-0.7,1.3-3.4,6-4.5,8c-0.2,0.4-0.7,0.3-0.8-0.1c-0.4-1.2-0.8-3.6,0.4-6.1C258.1,86,259.7,83.7,261,84.2z M258.8,80.8
	c0.4,1.9-4.3,6.2-4.3,6.2L254,76.9C254,76.9,258.4,78.9,258.8,80.8z M248.3,85.7c0.6-1.7,2.2-5.2,2.8-5.2c0.6,0,0.5,7.5,0.5,7.5
	S247.7,87.4,248.3,85.7z M246.9,92c0.4-2.7,2.1-2.6,3.8-1.7c1.6,0.8,2.3,2,2.1,3.5c-0.1,0.8-1.1,0.9-1.8,0.8c-0.4,0-0.9-0.1-1.3-0.1
	c-0.6-0.1-1.2-0.2-1.8-0.4C247,93.7,246.8,92.9,246.9,92z M247.7,99.6c-0.2-1-1.3-4.1,1.5-3.4c2.8,0.7,4.6,0.2,4.8,2.4
	c0.2,2.2-0.5,2.7-2.8,2.2C251.1,100.8,247.9,100.6,247.7,99.6z M249,105.6v-1.6c0-0.6,0.5-1,1.1-0.9c1.4,0.3,3.7,0.7,4.9,1.1
	c0.4,0.1,0.6,0.5,0.6,0.8v1.5c0,0.6-0.5,1-1.1,0.9l-4.7-1C249.3,106.4,249,106,249,105.6z M250.8,109.8c0.1-1.2,2.4-0.7,4.4,0
	c2,0.7,1.9,1.4,1.8,2.3c0,0.6-1.7,0.1-2.5-0.2c-0.2-0.1-0.3-0.1-0.4-0.1C253.2,111.5,250.7,111.1,250.8,109.8z M259.9,120.5
	c-0.4,0.8-3.4-2.3-3.4-2.3s-3.9-3.8-3.8-4.3s4.2-0.1,6,2.1C260.5,118.3,260.3,119.7,259.9,120.5z M259.3,108.3
	c0.8-2,3.6-7.7,4.3-9.2c0.7-1.4,2-0.7,2.5,0c0.4,0.6-1.3,3.3-1.9,4.2c-0.2,0.3-0.3,0.5-0.4,0.8c-0.6,1.2-2.2,4.6-3,6
	C259.9,112,258.5,110.3,259.3,108.3z M261.3,115.5c0.7-1.7,2.9-5.7,4.1-7.9c0.1-0.2,0.5-0.1,0.5,0.2c-0.5,2.2-1.4,6-2.2,8.4
	C262.5,119.6,260.3,117.8,261.3,115.5z M296.2,128.3c-1.1,1.2-4.7-0.8-4.7-0.8s-3-1.6-2.7-2.6c0.3-1,2.5-0.3,5.1,0.9
	C296.5,127,297.3,127,296.2,128.3z M303.5,126.7c-1.1,0.7-2.8,1.4-4.1,0.3c-1.3-1.1-3.8-4.3-3.8-4.3l4.5,0.2
	C300,122.9,304.6,126,303.5,126.7z M306.3,125.9c-1.8-0.6-1.7-3.2-1.7-3.2l9,0.6C313.6,123.3,308.1,126.5,306.3,125.9z M309.1,118.9
	c1.2-1.5,1.9-1.7,3.2-0.6s1.3,2.2,1.3,2.2S307.9,120.4,309.1,118.9z M304.2,114.3c0.6-0.5,1.9,0.1,2.8,0.7c0.7,0.4,0.8,1.3,0.2,1.9
	l-1.7,1.7c-0.9,0.9-2,1.4-3.3,1.4c-0.5,0-0.9-0.1-1.3-0.3C299.6,119,303.1,115.2,304.2,114.3z M293.6,119.3c1.1-1.6,2.9-4,4.5-5.3
	c0.8-0.7,1.7-0.7,2.3-0.5c0.6,0.2,0.8,0.9,0.4,1.3c-1.2,1.5-3.5,4.4-4.1,5.1C295.9,120.9,292.5,120.8,293.6,119.3z M289.8,116.5
	c1.5-1,2.4-0.7,3-0.2s-0.8,2.6-2.7,3.8c0,0-4.2,3.1-5.2,2.5S288.3,117.5,289.8,116.5z M286.1,126.7c2.1,0.3,3.9,1.7,4,2.6
	c0.1,0.9-3.8,0.3-3.8,0.3s-5.6-0.5-5.3-1.4C281.3,127.3,284,126.4,286.1,126.7z M298,77c0.1,0.5-0.1,1.1-0.4,1.7
	c-0.5,1.1-1.4,2.1-2.4,2.8c-1,0.7-2.4,1.6-2.7,1.3c-0.5-0.4,1.6-3.2,2.7-4.8S297.7,75.7,298,77z M292,73.9c2.2-1.5,3.1-1.4,3.5-1.1
	c0.3,0.3-3.1,4-4.2,5.2c-0.2,0.2-0.5,0.1-0.5-0.2C290.6,77,290.4,75,292,73.9z M294.8,84.6c2.8-1.9,3.3-2.4,3.5-1
	c0.1,0.8,0.1,1.6,0.1,2.3c0,0.5-0.3,0.9-0.8,1.1c-2.1,0.9-8.1,3.5-8.6,3C288.3,89.3,292,86.4,294.8,84.6z M284.5,78.6
	c0.4-0.5,0.9-1,1.5-1.4c0.6-0.5,1.5-0.1,1.5,0.7c0.1,1.5,0.4,3.5,1.4,4.9c0.2,0.3,0.2,0.7,0,1c-0.8,1.4-3,5-3.4,5.4
	C285,89.8,283.6,79.9,284.5,78.6z M280.9,86.1c1-0.7,1.7,2.3,2.4,4.2c0.5,1.4-0.4,4.5-0.9,6.1c-0.1,0.3-0.5,0.3-0.6,0
	c-0.5-1.7-1.5-5.5-1.8-6.9C279.8,87.6,279.8,86.8,280.9,86.1z M276.5,109.4l-1.2,1.5c-0.3,0.4-0.9,0.2-1-0.3
	c-0.3-2.1-0.9-6.2-0.9-9.1c0-4,1.3-2.7,2.1,0.6c0.5,2.1,1.1,4.2,1.4,5.3C277.1,108.1,276.9,108.9,276.5,109.4z M276.3,91.4
	c1.2-1.5,2.2,2.7,2.9,5.1c0.7,2.4,1.6,5.5,0.6,7.4c-0.9,1.9-2.1-1.9-2.1-1.9S275.1,92.9,276.3,91.4z M292.7,104.8
	c-1.9,1.4-6.5,4.5-8.7,5.8c-2.9,1.6-6.5,3-5.6,1s2.7-3.2,6.6-4.5c2.8-0.9,5.9-2,7.5-2.5C292.8,104.5,292.9,104.7,292.7,104.8z
	 M291.4,101.9c0,0-9.2,3.5-9.7,2.6s1.9-2.9,6.7-5c4.8-2.1,6.9-2.5,7.7-1.2C297,99.5,291.4,101.9,291.4,101.9z M294.6,95.3
	c0,0-9.4,2.8-9.6,1.7c-0.2-1,2.3-2.2,7.7-4.9c5.5-2.7,6.7-2.9,7.1-1.7C300.4,91.5,299,94.1,294.6,95.3z M422.8,108.8
	c0.5-1.5,1.8-1.9,2.1-1.1c0.3,0.8,0.1,3.1-1.1,3.2C423.8,110.9,422.3,110.3,422.8,108.8z M418.4,114c-1.4-0.2-1.7-0.9-1.4-1.5
	c0.2-0.4,0.3-0.6,0.8-0.6c0.8,0,1.8,0.2,2.3,0.9c0.1,0.1,0.2,0.3,0.2,0.4c0,0.1,0,0.1,0,0.2C420,114,418.8,114.1,418.4,114z
	 M422.2,118.6c-0.8,0.6-2,1-2.4,0.4c-0.6-0.7,0.2-1.9,0.9-2.4c0.8-0.5,1.7-0.7,2.3,0C423.6,117.3,422.7,118.2,422.2,118.6z
	 M421.6,114.8c-0.7-1.2,0.9-2.2,1.9-2.7c1-0.5,2.1-0.3,2.5,0.5c0.3,0.4,0.1,1-0.2,1.3c-0.3,0.3-0.6,0.6-1,0.8
	C423.8,115.5,422.1,115.8,421.6,114.8z M427.1,118.9c-0.2,0.2-0.6,0.2-0.9,0.1c-0.5-0.1-0.8-0.5-1.1-0.9c-0.9-1.3-0.6-1.7,0-2.2
	c0.6-0.4,1.2-0.1,1.8,0.8c0.3,0.4,0.4,1,0.4,1.5C427.3,118.6,427.3,118.8,427.1,118.9z M427.7,113.1c-0.3-0.4-0.8-1.4,0.9-1.9
	c0.4-0.1,1-0.3,1.4,0c0.3,0.2,0.3,0.5,0.5,0.8c0.2,0.4-0.4,0.8-0.7,1c-0.1,0.1-0.2,0.1-0.4,0.2C428.9,113.3,428,113.5,427.7,113.1z
	 M474.9,109.5c-0.6,0.4-1.6,1-2,0.3c-0.6-1,0.4-1.9,1.2-2.3c0.4-0.2,0.9-0.5,1.4-0.5c0.5,0,0.7,0.2,1,0.6
	C477,108.3,475.3,109.2,474.9,109.5z M477.2,104c-0.8-0.7-1.3-3.6,0.5-3.1c0.3,0.1,0.6,0.3,0.8,0.6c0.4,0.4,0.7,1,0.9,1.5
	c0.2,0.4-0.1,0.8-0.3,1.1c-0.1,0.1-0.2,0.2-0.3,0.3C478.3,104.7,477.6,104.3,477.2,104z M480.1,112.7c-0.1,0.4-0.3,0.8-0.5,1.2
	c-0.2,0.3-0.4,0.6-0.7,0.6c-0.7,0.1-1.1-0.6-1.2-1.2c0-0.8,0.3-1.6,0.5-2.3c0.9-2.2,2.2-1.6,2.1-0.4
	C480.4,111.4,480.3,112.1,480.1,112.7z M481.2,108c-0.8,0.7-2.1,1-2.8,0.4c-1-0.9-0.5-2,0.4-2.6c0.9-0.6,2.1-0.6,2.8,0.2
	C482.1,106.7,481.8,107.4,481.2,108z M485.2,112.3c0,0-0.6,1.3-1.9-0.6c-0.5-0.7-1.9-2.3-0.9-3c0.7-0.6,2.1,0.1,2.7,0.9
	C485.8,110.4,485.5,111.8,485.2,112.3z M484.5,104.7c0,0-1.7,1.2-2.6,0.5c-0.6-0.5-0.1-1.1,0.3-1.5c0.4-0.4,0.9-1,1.4-1.3
	c0.6-0.3,1.3-0.1,1.7,0.4C486,103.5,484.5,104.7,484.5,104.7z"/>
</svg>
