<?xml version="1.0" encoding="utf-8"?>
<!-- Generator: Adobe Illustrator 22.0.1, SVG Export Plug-In . SVG Version: 6.00 Build 0)  -->
<svg version="1.1" id="Layer_1" xmlns="http://www.w3.org/2000/svg" xmlns:xlink="http://www.w3.org/1999/xlink" x="0px" y="0px"
	 viewBox="0 0 1000 1000" style="enable-background:new 0 0 1000 1000;" xml:space="preserve">
<style type="text/css">
	.st0{fill:#020202;}
</style>
<path class="st0" d="M929.1,291.3c-3.2-7-4.9-9.1-7.1-9.7s-4.3-1-6.5-3.4s-3.1-5-10.6-7c-7.5-2-19.7,0.8-21.1,0.4
	c-1.4-0.4-15.2-7.4-15.2-7.4s4.9-1.6,7-1.4s12.9,6.1,18.3,6.4s13-0.9,20-3.8s10.3-7.8,11.8-9.5c1.5-1.7,4.7-3.2,1.2-4.8
	c-3.5-1.6-2.6-3-11.3-5.6c-8.6-2.6-15.8-1.3-25.3,2c-9.5,3.3-12.3,10.1-14.2,11.8c-1.9,1.7-3.1,2.1-9.7,2.3s-11.8-4.1-11.8-4.1
	s6.5,0.8,13.5,0.4c7-0.5,8-3.2,9.4-7s3.9-9.6,3.9-9.6s1.7,0.3,6.9,1s10.9-1.6,16.5-3.4c5.6-1.8,0.8-4.6-2.7-6.4
	c-3.5-1.8-4.6-3.4-10.2-7.5c-5.6-4.1-14.7-3.2-14.7-3.2c-0.1-2.6-3.5-5.6-3.5-5.6s14.6-1.4,18.7,0s6.4,5.5,12.8,5.6s17.8,0,20.6,0.2
	s3.2-0.5,0.6-5c-2.5-4.5-6.2-13.7-15.7-13.8c-9.5-0.1-19.5,7.2-23.2,8.7c-3.7,1.5-13.3,1.3-13.3,1.3c11.9-9.4,5.6-7.5,10.6-13.5
	c5-6,4.8-6.8,8.6-14.6c3.8-7.8,7.7-6.7,7.4-9.8s-7.3-2.7-11.5-1.8c-4.2,0.9-6.3,2.6-17.9,2.3c-11.6-0.4-8.1,1.5-15.1,3.7
	c-7,2.2-9.6,5.9-9.6,5.9l-0.7-9.1c0,0,3.5-6,4.8-8.8s5.4-1.9,9.1-1.9s3.8-2.3,0-3.6s-9.1-8.2-9.1-8.2s0.1-3.2-2.5-6.2
	c-2.6-3-7.6-8.2-9.3-11.4c-1.7-3.2-3.3-1.7-3.2,3.2s-2.2,10.6-2.2,10.6c-8.1-0.1-13.3,5-13.3,5l-7.9-0.7c0,0,8.6-14.9,8.6-19.9
	s-0.7-16.4,1.3-20c2-3.6,2.5-11.8,0.9-13.4c-1.6-1.6-2.6-1.2-4.4,1.3s-3.7,3.5-7,5c-3.3,1.4-5.7,2.3-9,5c-3.3,2.8-4.5,3.4-9.7,5.6
	c-5.2,2.2-9,8.6-9,8.6s0.1-5.9,0.3-10.1s2.1-4.8,5.5-12.1c3.4-7.3,5.5-14.5,2.1-20.1s-8.1-7.6-12.9-10s-4.1-0.3-4.1,2.9
	c0,3.2,1.1,4,0.3,14.6s6.2,17.7,6.6,19c0.4,1.4-1.1,16.2-1.1,16.2c-2.5-2.3-5.6-3.2-5.6-3.2c0.6-8.1-0.7-11.6-2.7-14.2
	c-2-2.5-6.9-8.1-8.7-11.4c-1.9-3.2-1.5-4.2-4.1-3.7s-1.5,3.6-3.3,8.6c-1.8,5-1.4,9.8-1.2,14c0.2,4.1-0.3,2.8-10.1,6.9
	c-9.8,4.1-5.8,22.6-5.8,22.6c-6.1-8.9-3-17.8-2.4-20c0.5-2.2,4.9-5.2,9.8-10.7c5-5.5,7.4-19,5.7-26.9c-1.7-7.8-7.7-16.7-9-16.8
	c-1.4-0.1-5.1,5.8-8.4,8.9c-3.3,3.2-6.4,11.4-7.6,22.4s6.9,21.7,6.9,21.7l-1.9,7.5c0,0-4.1-7.9-6-11.9c-2-4-1.1-8.4,0.1-16.4
	s-3.1-14.7-5.2-17.3s-5.3-3.8-5.5-6.4s-1.1-3.7-3.3-5.7s-10.7-4.7-14.7-6.7c-4-2-5,0.6-3.2,3.9c1.9,3.2,2.9,12.3,0.7,16.9
	s1.7,8.1,1.7,8.1s-18.8,11.2-26.9,14.2c-8,3.1-20.7,3.1-27.5,1.1c-6.8-2-19.9-8.9-29.3-14.6c-9.4-5.7-25.2-11.4-42.6-10.7
	c-17.5,0.6-22.1,16.6-23.3,20s-9.2,15-15.5,15.6c-6.3,0.6-7.4-2.1-7.4-2.1c3.2-1.4,3.9-5.2,3.9-5.2s3.3,1.5,5-2.9
	c1.7-4.4-5.3-6.3-5.3-6.3s3.3-4.6-0.6-6.6c-4-2-6.4,3.5-6.4,3.5s-3.6-3.7-6.6-0.3c-3,3.4,1.4,6.7,1.4,6.7s-5.1,3-2.5,6.3
	c2.6,3.3,7,1.1,7,1.1c0.6,2.3,4.1,10,12.6,6.9s14.2-13.3,14.2-13.3c-0.4,9.5,8,20.3,15.5,19.9c7.5-0.4,11.6-5.9,11.6-5.9
	c3.5-0.4,4.7-2.3,4.7-2.3s3.8,4.6,5.9,2c2.1-2.6,0.4-6,0.4-6s4.8-1.2,4-5.1c-0.8-4-6.8-1.1-6.8-1.1c0.7-1.6,0.4-6.1-3.3-6.2
	s-4.3,4.4-4.3,4.4c-3,0.3-5.9,0.6-6.4,3c-0.5,2.3,3.6,4.3,3.6,4.3c-1.9,2.7,1.5,6.3,1.5,6.3c-2.8,2.6-8.2,5.9-12.7,4.6
	c-4.5-1.3-10.8-6.6-11.4-14.8c-0.5-8.2,5.4-18.4,12.8-22.3c7.4-3.9,18.7-3.1,32.2,1.3c13.5,4.3,28.3,12.7,35,16.6s21.8,7.7,36,5.7
	c14.2-2,32.2-16.1,32.2-16.1s1.5,5.8,6,10.2c4.5,4.4,9.3,4.5,15,7.7s9.7,13.8,9.7,13.8c-12.6-4-12.1-10.6-19.8-15.6
	c-7.7-5-13.8-5-20.7-0.9c-6.8,4.1-8.9,10-8.9,10s5,4.5,14,6s12,3.9,18.3,3.2c6.3-0.7,10.1-3.5,15.9,0.4c5.8,3.8,10.9,16,10.9,16
	s-5.6-5.9-11.6-9.9c-6-4-12.6-0.5-13.7,1.8c-1.1,2.3-1.6,4-5.3,7.8c-3.8,3.8-3.3,5-6,9.4c-2.7,4.5-3.3,5.7-0.8,13.8
	c2.6,8,9.4,8.9,13.6,10.1c4.1,1.2,5.7,4.1,5.7,4.1c-8.3,2-14.6,9.9-16.5,13.8s-1.1,7,7.5,13.3s19,6.7,19,6.7s-1.2,8.3,2,10.2
	c3.2,1.9,11.5,2.4,11.5,2.4c-7.6,1.3-11.3,4.5-13.1,4.7c-1.8,0.2-7.3-0.4-9.2-1.8c-1.8-1.4-2.8-4.8-7.4-6.2s-10.7,0-10.7,0
	s6.1,7.8,9.1,9c3,1.2,5.5-0.3,7.8-0.3s6.7,2,6.7,2s-13.6,4.6-20.4,6.7c-6.8,2.2-9,0.3-9,0.3c-0.4-8-7.6-10.8-14.6-10.4
	c-7,0.4-10.4,10.5-10.4,15.9c0,5.4,3,8.1,5.2,9.5c2.1,1.5,12.6,3.8,16.8-0.3c4.2-4.1,4-11.7,4-11.7c7.2,0.7,15.3-3.6,15.3-3.6
	s-0.2,3.9-2.8,5.3s-4.6,1.8-5.5,4.7c-1,2.8,1.3,3.6,3.7,2.1c2.4-1.5,5.9-8.8,7.4-11.3s9.8-5.2,9.8-5.2s-3.2,3.5-1.8,6.6s1,3,1.6,6.3
	s2.8,4.9,5.2,5.8c2.3,1,2.9,1.8,4.2,3.5c1.3,1.8,6.7,0.8,6.7,0.8l-0.7,1.6c0,0-5.1-0.2-7-0.2c-1.9,0-5.4-4-9.4-5.6s-7.9,1.7-9.8,3.2
	c-1.8,1.5-3.4,3,3,3.9c6.4,0.9,17.9,1.6,17.9,1.6s-4,2-6.3,2.7c-2.2,0.7-4.2,0.2-9.2,0.6c-5,0.5-8.5,3.7-10.5,6.2s-9.2,8.5-7.9,9.7
	c1.2,1.1,9.5,1.4,15-0.1c5.5-1.5,9.8-8.2,11.8-12c2.1-3.7,6.3-5,6.3-5l-0.4,1.2c0,0-1.1,0.7-3,3.4c-1.9,2.7-2.6,9.5-2.1,12.6
	c0.5,3.1,0.8,8.2,1.8,8.2c1,0,4.4-1.9,7.5-8.9c3.1-7,0.8-11.8-0.5-14.7c-1.3-3,6-7.9,6-7.9s3,3.9,6.7,6c3.7,2.1,6.6-2.2,7.2-1.8
	c0.6,0.5-2.3,5-3.2,6.3s-1.9,1.4-5.6,1.9c-3.7,0.5-6.1,4.3-4.1,5.9c2,1.5,8.1-3.4,8.1-3.4v7.1c0,0-5.5,1.9-8,4s-2.3,5.3-2.9,8.5
	c-0.6,3.1-4.2,8.5,1.2,11.1s9.8,0,9.8,0c2,5,6.2,8.4,9.5,6c3.3-2.4,5.6-9.2,5.6-9.2s5.3,1.8,7.8-1.1c2.5-3,2.2-9.4-2.1-13.6
	c-4.3-4.2-6.5-4.7-9.4-4.7c-2.9,0.1-3.7,0.5-5.6-0.2c-1.9-0.7-3.5-0.7-3.5-0.7s-0.4-2.7-0.2-5.8s2.1-5.1,2.1-5.1s0.2,2.1,0.6,4.4
	c0.5,2.3,1.8,3.2,3,2.4c1.1-0.8,1.3-2.7-0.9-5.6c-2.2-2.8-0.9-5.2-0.9-5.2s1.6,1.2,4.8,2.8s3.7,0.2,9,0.2c5.3,0.1,8.6-0.2,8.6-0.2
	c1.9,6.9,10.5,18.1,14.3,18.3c3.8,0.2,5.7-1.8,12-6.9c4.9-4,5.9-8,6.1-9.5c0-0.2,0.3-0.3,0.5-0.1c1.3,1.4,3.9,3.3,3.9,3.3
	s0.4,4,1.6,7.6c1.2,3.7,5.7,7.5,9.3,8.1s8.1,1.1,11.4-0.8c3.3-1.8,5.5-2,7.8-3.7c2.3-1.7,3.7-4.4,9.2-7.7c5.5-3.4,5-6.9,4.2-11.5
	c-0.8-4.6-10.1-14-10.1-14s12,5.5,14.7,9.4c2.7,3.9,3.1,11.5,1.8,14.3s-1.2,7.3-0.7,10.8c0.5,3.5,3,7.7,3.2,11.9s1.1,5.7,2.8,8.9
	c1.7,3.1,2.7,4.4,6.5,1.7c3.8-2.7,9.8-8.4,10.1-15.2c0.2-6.8-5.1-14.1-12.1-20c-6.9-5.9-8-11.8-8-11.8c4.4,0.8,13.2,6.3,14.2,10.2
	c1,3.8,6.5,13.9,10.4,16.9c3.9,3,10.9,5.1,10.9,5.1s-1.1,1.6-5.9,7.7c-4.9,6-6.3,11.7-9.9,20.4s-3.1,5.8-2.9,21.2
	c0.2,15.3,4.7,19.3,11.2,31.8s11.3,26.8,12.8,31.2s5.2,22.6-3.5,31.2s-16.9,8.8-20,8.7c-3.2-0.1-14.3-5-14-13.7
	c0.2-8.7,5.2-10.7,5.2-10.7s0.6,0.8,2.4,1.6c1.8,0.7,3.4-0.3,3.4-0.3s2.4,4.6,4.9,3.8c2.4-0.8,2-6.4,2-6.4s4.6,1.2,4.5-3.5
	c-0.1-4.7-6-4.1-6-4.1s2-5.8-1.6-6.6c-3.6-0.8-4.1,4.4-4.1,4.4s-3.6-3.3-5.9,0c-2.3,3.3,1.1,6.3,1.1,6.3c-2.3,0.6-1.6,3.9-1.6,3.9
	c-8.1,5.3-7.7,14.5-1.3,21.1c6.4,6.6,15.1,6,15.1,6c-6.5,4.9-11.9,8.5-13.9,16c-2,7.4,7.3,11.6,7.3,11.6s-2.5,2.8,0.4,5.8
	s7.1-1.5,7.1-1.5s3.2,3.7,6.2,1.2c3-2.4,0.5-6.4,0.5-6.4s3.9-4.1,2.9-6.9c-1.1-2.8-6.6-0.9-6.6-0.9s0.7-5.2-4.6-5.1
	s-4.5,4.9-4.5,4.9c-4.4,0-4.8,3.9-4.8,3.9c-3.5-2.4-3.1-5.6-0.7-10.4c2.4-4.8,7.5-9.2,12.1-11.5s10.4-2.9,14-6.6
	c3.6-3.7,7.2-7.8,7.9-18.5c0.7-10.7-3.6-28.1-10.1-39.7s-9.1-16-12.6-23s-3.9-14.4-4-23.2c-0.1-8.8,2.3-10.3,5.5-19.2
	c3.2-8.9,11.4-20.4,13.6-22.4s9.2-2.9,14.8-2.6c5.6,0.3,9.8,3.5,10.8,1.8C934,300.5,932.3,298.2,929.1,291.3z M892.2,265.8
	c-2.2-0.5-6-1.4-8.4-2.2c-3.5-1.2-1.7-3.3,0.7-2.3c1.7,0.7,5.7,2.9,7.9,4.1C892.7,265.5,892.5,265.9,892.2,265.8z M919.2,258.8
	c-1.9,0.4-6.2-4.3-6.2-4.3l10.1-0.5C923.1,254,921.1,258.4,919.2,258.8z M914.3,248.3c1.7,0.6,5.2,2.2,5.2,2.8
	c0,0.6-7.5,0.5-7.5,0.5S912.6,247.7,914.3,248.3z M905.4,251c0-0.4,0.1-0.9,0.1-1.3c0.1-0.6,0.2-1.2,0.4-1.8c0.4-0.8,1.2-1.1,2.1-1
	c2.7,0.4,2.6,2.1,1.7,3.8c-0.8,1.6-2,2.3-3.5,2.1C905.4,252.6,905.4,251.6,905.4,251z M904.1,256c1.2-0.4,3.6-0.8,6.1,0.4
	c3.8,1.7,6.1,3.3,5.6,4.6s-2.1,1.4-3.7,0.4c-1.3-0.7-6-3.4-8-4.5C903.7,256.7,903.8,256.1,904.1,256z M899.2,251.1
	c0,0,0.3-3.2,1.3-3.4c1-0.2,4.1-1.3,3.4,1.5c-0.7,2.8-0.2,4.6-2.4,4.8C899.2,254.1,898.7,253.5,899.2,251.1z M900.7,257.9
	c2.8,1.6,8.5,4.4,8.1,5.2c-0.3,0.8-1.4,1.4-4.1,0c-2.3-1.2-7.5-3.9-9.4-4.9c-0.3-0.1-0.3-0.6,0-0.7
	C896.5,257.2,898.7,256.8,900.7,257.9z M893.5,249.7c0.1-0.4,0.5-0.7,0.9-0.7h1.6c0.6,0,1,0.5,0.9,1.1c-0.3,1.4-0.7,3.7-1.1,4.9
	c-0.1,0.4-0.5,0.6-0.8,0.6h-1.5c-0.6,0-1-0.5-0.9-1.1L893.5,249.7z M900.8,263.6c1.4,0.7,0.7,2,0,2.5c-0.6,0.4-3.3-1.3-4.2-1.9
	c-0.3-0.2-0.5-0.3-0.8-0.4c-1.2-0.6-4.6-2.2-6-3c-1.7-0.9,0-2.4,1.9-1.6C893.6,260.1,899.4,262.9,900.8,263.6z M888.1,254.5
	c0.1-0.2,0.1-0.3,0.1-0.4c0.3-0.9,0.7-3.4,2-3.3c1.2,0.1,0.7,2.4,0,4.4c-0.7,2-1.4,1.9-2.3,1.8C887.4,257,887.8,255.3,888.1,254.5z
	 M881.8,256.5c0,0,3.8-3.9,4.3-3.8s0.1,4.2-2.1,6c-2.2,1.8-3.6,1.6-4.5,1.2C878.6,259.6,881.8,256.5,881.8,256.5z M912.1,216.9
	c-0.7-0.8-2.3-2.7-3.2-3.7c-0.1-0.2,0-0.4,0.2-0.3c2.3,1,9.1,3.9,9.3,4.9C918.6,218.9,913,218,912.1,216.9z M919.9,211.7
	c1,1,2.1,2.3,2.7,3.1c0.2,0.2,0,0.5-0.3,0.4c-2.2-0.8-7.6-2.9-9-3.6c-1.8-0.8-1.4-1.3,1.2-1.6S918.3,210.1,919.9,211.7z
	 M902.4,207.9c1.6-0.6,5.7-1.9,9.2-1.6c4.5,0.4,3.4,1.5-0.5,2.7c-3.1,0.9-7.1-0.1-8.7-0.6C902.1,208.3,902.1,208,902.4,207.9z
	 M902.2,211.9c0.5-0.4,2.5-0.6,5.1,2.7c2.6,3.3,1,4.3,0,3.6c-1-0.7-3.8-3.6-3.8-3.6S901.6,212.3,902.2,211.9z M894.6,213.3
	c1.3-0.5,4.3-1.4,5.5,0.3c1.5,2.1,1.9,3.4,1.3,3.9c-0.5,0.4-5.2-2.5-6.8-3.6C894.3,213.7,894.3,213.4,894.6,213.3z M851.8,158.7
	c0.7,0,1.3,0.5,1.3,1s-0.6,1-1.3,1s-1.3-0.5-1.3-1S851.1,158.7,851.8,158.7z M526,108.9c0.1-0.2,0.3-0.2,0.5-0.2
	c0.9,0,2,0.7,2.7,1.3c0.5,0.5,0.7,1.1,0.4,1.8c-0.1,0.2-0.2,0.3-0.3,0.4c-0.2,0.1-0.4,0.1-0.6,0c-0.6-0.2-1.2-0.6-1.7-1.1
	c-0.5-0.5-0.8-1-1-1.6C525.9,109.3,525.9,109,526,108.9z M522.8,103.9c0.2-0.5,0.5-1.2,1.1-1.4c0.3-0.2,0.8-0.2,1.1,0
	c0.2,0.1,0.3,0.4,0.4,0.6c0.1,0.5,0.1,1.1,0,1.6c-0.1,0.4-0.3,0.9-0.6,1.2c-0.2,0.2-0.4,0.4-0.7,0.5c-0.6,0.2-1.3-0.2-1.5-0.8
	C522.4,105.1,522.6,104.4,522.8,103.9z M519.7,112.4c-0.4,0.8-1.1,1.7-2,1.6c-0.3,0-0.6-0.1-0.9-0.2c-0.2-0.1-0.3-0.1-0.4-0.3
	c-0.5-0.6,0.1-1.6,0.5-2.1c0.4-0.7,1.1-1.6,2-1.6C520.2,109.9,520.1,111.4,519.7,112.4z M519.6,107.5c-0.2,0-0.4-0.1-0.6-0.1
	c-0.5-0.2-0.9-0.4-1.4-0.7c-0.1,0-0.1-0.1-0.2-0.1c-0.6-0.5-1.4-1.6-0.8-2.3c0.5-0.5,1.3-0.3,1.8,0c0.7,0.4,2.5,1.3,2.1,2.3
	C520.5,106.9,520,107.5,519.6,107.5z M520.9,110.2c-0.5-0.8-0.6-2,0-2.7c0.8-0.9,1.8-0.5,2.6,0.2c0.5,0.4,0.7,0.9,0.6,1.6
	c-0.1,0.7-0.5,1.3-1.1,1.6C522.3,111.2,521.4,110.9,520.9,110.2z M523.4,116.2c-0.4,0.1-1-0.8-1.2-1.1c-0.3-0.5-0.5-1.1-0.5-1.7
	c-0.1-0.9,0.4-1.8,1.4-1.8c0.8,0,1.3,1.1,1.4,1.7c0.2,0.9-0.1,1.9-0.8,2.6C523.5,116.1,523.5,116.2,523.4,116.2z M583.1,113.5
	c0.9-0.2,1.8,0,1.9,0.6c0.1,0.5-0.5,1.2-1.4,1.4c-0.9,0.2-1.8,0-1.9-0.6C581.6,114.3,582.2,113.7,583.1,113.5z M581.7,118.7
	c0.5,0.7,0.5,1.5,0.1,1.8s-1.2,0-1.6-0.7c-0.5-0.7-0.5-1.5-0.1-1.8S581.2,118,581.7,118.7z M578.1,109c0.6,0,1.1,0.8,1.1,1.9
	c0,1-0.5,1.9-1.1,1.9c-0.6,0-1.1-0.8-1.1-1.9C577,109.8,577.5,109,578.1,109z M576.8,114.9c0.3-0.6,1.2-0.7,2.1-0.3s1.3,1.3,1,1.8
	c-0.3,0.6-1.2,0.7-2.1,0.3S576.5,115.5,576.8,114.9z M576.8,117.6c0.4,0.2,0.4,1,0,1.9s-1.1,1.4-1.5,1.2c-0.4-0.2-0.4-1,0-1.9
	C575.7,117.9,576.4,117.4,576.8,117.6z M571.5,113.6c0.1-0.4,1.1-0.4,2.2-0.2s2,0.7,1.9,1.1c-0.1,0.4-1.1,0.4-2.2,0.2
	S571.4,114,571.5,113.6z M713.1,91.4c1.3-2.9,1.2-6.1,2.3-5.3c1.1,0.8,1.3,3.4,0.5,5.6c-0.6,1.7-1.5,4.1-2,5.2
	c-0.1,0.2-0.4,0.2-0.5,0C713,95.9,712.1,93.6,713.1,91.4z M708.2,82.7c0.6-2.9,1.1-5.1,1.3-6c0-0.2,0.3-0.3,0.4-0.1
	c1,0.8,3.5,3.3,2.4,6.2c-1,2.7-1.6,5.2-1.8,6.2c0,0.2-0.3,0.3-0.5,0.1C709.3,88.1,707.6,85.7,708.2,82.7z M707,90.2
	c-1.9-0.8-5.7-2.3-7.1-2.7c-2-0.5-2-2.8-1.4-4.3c0.6-1.5,3.6,0.9,5.4,2.8c1.1,1.2,2.6,2.8,3.5,3.8C707.5,90,707.3,90.3,707,90.2z
	 M701.4,73.2l4.3,2.4c0.1,0,0.1,0.1,0.1,0.2v2.7c0,0.3-0.3,0.4-0.5,0.2l-4.3-5.1C700.8,73.4,701.1,73,701.4,73.2z M700.1,76.7
	c1,1.7,2.6,4.6,3.5,6c0.1,0.2-0.1,0.5-0.4,0.4c-1.6-1-5-3.2-5.1-4.5C698,76.7,698.8,74.3,700.1,76.7z M696.9,91.7
	c-0.8-1.7,1.2-2.3,3.4-1c2.1,1.3,10.3,3.6,11.2,7.5c0,0.2-0.1,0.4-0.4,0.3c-1.7-0.6-8-2.8-10.5-3.4
	C697.9,94.4,697.7,93.3,696.9,91.7z M702.1,100.9c-1.5-0.6-1.4-2.4-1.3-3.1c0-0.2,0.2-0.3,0.4-0.2c1.6,0.5,9.5,3.2,11.3,4.2
	c1.4,0.8,1.9,2,2.1,2.6c0.1,0.2-0.1,0.4-0.3,0.3C712.1,104.1,703.8,101.6,702.1,100.9z M717.6,113c-2.8-1.3-12.4-6-14-7.6
	c-1.9-1.8,6.3,1.4,9.3,2.1c2.3,0.5,4.3,3.6,5.1,5.1C718.1,112.8,717.9,113.1,717.6,113z M717.8,104.7c-0.1,0.3-0.4,0.3-0.5,0.1
	c-0.5-1.1-1.4-3.4-0.9-6.1c0.7-3.7,2.8-8.6,3.6-7.9c0.8,0.7,0.4,3.8-0.4,6.7C719,99.7,718.2,103.2,717.8,104.7z M722.7,107
	c-0.3,1.9-0.9,4.3-1.1,5.3c-0.1,0.2-0.4,0.3-0.5,0.1c-0.6-0.8-1.5-2.8-0.9-5.7c0.9-3.9,1.9-7.1,2.5-6.8
	C723.3,100.3,723.1,104.4,722.7,107z M703.7,116.7c0.8-0.6,2.6,0.5,5.4,3.2c0.7,0.7,1.4,1.4,2.1,2.2c0.2,0.3,1.3,1.9,0.3,1.5
	c-1.2-0.5-2.2-1.1-3.2-1.8c-0.8-0.6-1.5-1.2-2.2-1.8C705.8,119.6,703.1,117.2,703.7,116.7z M695.8,113.9c0.6-0.2,1.4,0,2,0.2
	c1.5,0.6,2.8,2.9,4.2,4.6c0.4,0.5,1.2,1.5,0.9,2.2c-0.3,0.6-1.3,0.2-1.7,0c-0.8-0.4-1.4-0.9-1.9-1.5c-0.1-0.2-0.3-0.3-0.4-0.5
	c-1-1.3-2-2.6-3-3.9C695.3,114.5,695.1,114.1,695.8,113.9z M686.1,118.2c1.5,0.4,2.7,3,0.8,3c-1.9,0-4.1-0.3-4.1-0.3
	S684.5,117.7,686.1,118.2z M688.8,126.6c-1.7-0.1-3.6-1.6-4.6-2.4c-0.2-0.2-0.1-0.6,0.2-0.6h7.6C692,123.6,691.2,126.7,688.8,126.6z
	 M691.4,119.6c-1.1-0.7-2-2-2.5-2.8c-0.2-0.4-0.1-0.9,0.2-1.2l1.9-1.2c0.4-0.2,0.8-0.2,1.1,0.2l4.1,4.7c0.3,0.3,0.1,0.8-0.3,0.8
	C694.7,120.3,692.6,120.4,691.4,119.6z M695.7,127.7c-0.5,0.2-1.1,0.3-1.6,0.1c-0.5-0.1-1.1-0.4-1.2-0.9c-0.1-0.7,0.6-1.3,1.1-1.7
	c0.2-0.2,0.5-0.4,0.8-0.6c1.4-0.9,3.5-1.6,5.2-1.1c0.1,0,0.2,0.1,0.3,0.2C701.4,124.7,696.5,127.4,695.7,127.7z M700.4,129
	c-1.6-0.3,1.6-2.5,1.6-2.5s2.6-2,5-1.6c2.4,0.4-0.7,1.8-2.4,3C703.1,129,701.9,129.4,700.4,129z M715.4,129l-9.2,1
	c-0.2,0-0.3-0.2-0.2-0.3c0.8-1,3.2-3.7,6-3c2.5,0.6,3.3,1.5,3.6,2C715.6,128.8,715.5,129,715.4,129z M743.4,114.6
	c-0.9,1-4.3,4.7-6.5,6.5c-0.1,0.1-0.2,0-0.2-0.1c0-1,0.3-2.1,0.7-3c0.2-0.4,0.4-0.9,0.7-1.2c0.2-0.3,0.4-0.6,0.7-0.8
	c1.2-1,3-1.4,4.4-1.6C743.4,114.4,743.5,114.5,743.4,114.6z M740.9,112.5c-2.4,1-3-0.2,0-2c0,0,4.4-1.4,4.7-0.5
	C746,110.9,743.3,111.6,740.9,112.5z M740.9,107.9c0,0,0.5-4.8,7.1-4.4C747.9,103.4,749.3,107.8,740.9,107.9z M745.3,81.3
	c0-0.2,0.2-0.2,0.3-0.1c0.7,1.1,2.4,3.8,2.3,5.2c-0.1,1.6-2.2,1.7-2.9,1.7c-0.1,0-0.2-0.1-0.2-0.2L745.3,81.3z M746.7,90.6
	c1.8-0.6,3-0.1,3.2,1.9c0.2,2.5-5.8,4.2-6.3,1.8c0-0.1,0-0.1,0-0.2C743.6,92.3,745.2,91.1,746.7,90.6z M742.9,98.7
	c0.9-1.2,2.4-1.7,3.7-2c0.9-0.2,2.6-0.4,2.9,0.8c0.4,1.3-1.6,3-4.8,4.5c-0.8,0.4-1.7,0.6-2.2-0.3c-0.4-0.7-0.4-1.5-0.2-2.2
	C742.6,99.3,742.7,99,742.9,98.7z M738.2,80.8c0.2-1.4,3-2.8,3.8-3.2c0.1-0.1,0.3,0,0.3,0.2l-0.2,9.4c0,0.2-0.2,0.2-0.3,0.1
	C740.8,86,738,82.2,738.2,80.8z M735.6,84.2c0.1-0.1,0.2-0.1,0.3,0c0.6,0.8,3,3.8,4.3,6c1.3,2.1,0.5,5.1,0.1,6.1
	c0,0.1-0.2,0.2-0.3,0c-0.8-1.4-4-6.7-5.2-7.9C733.6,87.2,735.1,84.9,735.6,84.2z M732.5,92.8c0.4-1.4,0.7-1.9,2.2,0.6
	c1.5,2.5,3.3,5.3,4.1,7c0.4,0.8,0.7,1.8,0.7,2.7c0,0.5,0,1-0.1,1.4c0,0.1-0.5,1.1-0.7,0.9c-0.9-1.2-1.4-2.6-2.1-3.9
	c-0.8-1.4-1.6-2.8-2.6-4.1C733.2,96.1,732,94.5,732.5,92.8z M730.7,100c0.1-0.7,0.3-1.5,0.6-2.2c0,0,2.9,4.4,4.7,8
	c1.8,3.6,1.9,4.9,1.2,5.8c-0.7,1-3.1-3.9-3.1-3.9c-0.8-1.6-1.8-3-2.8-4.5C730.8,102.3,730.5,101.1,730.7,100z M733.5,118.5
	c-1.5-2.9-2.1-6-2.1-6s-1.6-5.7-0.8-6.3c0.7-0.6,2.3,4.6,3.5,8.3C735.2,118.3,735,121.4,733.5,118.5z M710.4,235.6
	c-0.7-0.1-2-0.8-2.4-1.5c-0.1-0.2,0-0.5,0.3-0.6c0.5-0.1,1.2-0.2,2.2,0.4C711.8,234.7,711.2,235.7,710.4,235.6z M713.5,237.4
	c-2,0-2.5-0.4-1.5-1.3c0.5-0.4,1.2-0.5,1.8-0.5c0.1,0,0.2,0,0.3,0c0.8-0.1,2.2-0.1,2.4,0.8C716.8,237.7,715.5,237.4,713.5,237.4z
	 M717.5,234.9c-1.8-0.7-6.4-2.3-9.3-3c-0.3-0.1-0.2-0.5,0-0.5c2.6-0.2,8.1-0.3,9.7,3C718.1,234.7,717.8,235,717.5,234.9z
	 M685.3,247.6c2.6,0.3,3,5,2.8,6.9c-0.1,1.9-3.8,2.6-4.9-2.3C683.3,252.3,682.7,247.3,685.3,247.6z M684.6,239
	c0.2,0,0.3,0.2,0.3,0.3v4.7c0,0.3-0.3,0.4-0.5,0.3c-1.4-0.8-5.1-2.8-5.9-3C677.4,241.2,682,238.4,684.6,239z M676.7,244
	c0.9-1,1.5-1,3.1,0c1.2,0.7,2.8,1.7,3.6,2.2c0.2,0.1,0.2,0.4,0,0.5c-0.8,0.6-2.5,2.4-2.2,6c0,0.3-0.4,0.5-0.6,0.3
	c-1.2-1.4-3.6-4.2-5.2-4.8C673.3,247.3,675.8,245,676.7,244z M683.9,262.3c-1.4-0.1-7-0.6-9.3-5.6c-2.6-5.8,0.6-7.9,2.5-5.6
	c1.9,2.3,3.6,5.5,8.8,6.2c0.4,0.1-1.6,3.3-1.7,4.8C684.2,262.2,684,262.3,683.9,262.3z M693.5,260.2c-1,1.1-2.4,1.8-3.8,2.1
	c-1,0.2-3.2,0.4-3.7-0.8c-0.2-0.4,0-0.9,0.3-1.3c0.5-0.7,1.1-1.2,1.7-1.8c0.6-0.5,1.2-1.1,1.6-1.9c0.7-1.6,0.8-3.5,0.1-5.1
	c-1.3-3-3.2-5.5-3.3-8.9c-0.1-3.4,1.3-4.6,4.4-2C696.1,244.9,698.4,254.6,693.5,260.2z M708.8,256.4c-0.5,0.5-1.1,0.7-1.4,0.5
	c-0.3-0.3-0.2-0.9,0.3-1.4c0.5-0.5,1.1-0.7,1.4-0.5C709.4,255.3,709.2,255.9,708.8,256.4z M726.7,267.9c-0.1,0.1-0.6,0-0.8,0
	c-0.7,0-1.3-0.1-2-0.2c-1.4-0.1-2.9-0.2-4.2-0.7c-0.2-0.1-0.6-0.2-0.6-0.4c-0.1-1,4.8-0.4,6.2,0c0.5,0.1,0.9,0.4,1.2,0.8
	C726.6,267.4,726.7,267.6,726.7,267.9C726.7,267.8,726.7,267.8,726.7,267.9z M728,266.1c-0.9-0.4-4.2-1.6-10.3-1.3
	c-0.1,0-0.2-0.1-0.1-0.2c0.6-0.7,2.7-2.7,6.2-2c3.3,0.8,4.2,2.6,4.4,3.3C728.2,266,728.1,266.1,728,266.1z M710.7,281.2
	c0.1-0.1,0.2-0.2,0.2-0.2c0.2-0.2,0.3-0.3,0.5-0.4c0.4-0.2,0.8-0.3,1,0.1c0.6,0.9-1,2.1-1.5,2.5c-0.4,0.4-1.1,0.5-1.6,0.1
	c-0.1-0.1-0.1-0.1-0.2-0.2c0-0.1,0-0.1,0-0.2C709.4,282.2,710.2,281.7,710.7,281.2z M714,286.9c-0.8,0.8-8.1,1.2-8.1,1.2l8.7-5.5
	C714.5,282.6,714.8,286.1,714,286.9z M714.4,280.4c-0.4-0.1-0.7-0.4-1-0.8c-0.4-0.6-0.4-1.1,0.2-1.5c0.4-0.3,0.8-0.5,1.3-0.7
	c0.7-0.3,1.5-0.4,2.2-0.3c0.4,0,0.9,0.1,1,0.6c0.2,0.6-0.6,1.2-0.9,1.5c-0.6,0.5-1.3,0.9-2.1,1.1
	C714.9,280.4,714.6,280.5,714.4,280.4z M716.3,287.5c-1.3,0.3-0.6-5.1,0-5.9c0.6-0.9,3-2.2,3-2.2S717.7,287.1,716.3,287.5z
	 M718.2,276.1c-0.1-0.4-0.1-0.8,0.3-1c0.2-0.1,0.4-0.2,0.5-0.2c0.5-0.1,1.1-0.1,1.7-0.1c0.4,0,0.7,0,1.1,0.1c0.2,0,0.4,0.1,0.5,0.2
	c0.2,0.3-0.1,0.9-0.4,1.1c-0.6,0.4-1.5,0.4-2.2,0.4C719.3,276.7,718.4,276.8,718.2,276.1z M723,282.1c-1,1.4-2.9,2.4-2.4,0s1-4,1-4
	c0.2-0.1,2.8-2.1,3.7-2.1C726.3,276.1,724,280.7,723,282.1z M732,291.5c-0.5-0.3-1.2-5.5-0.8-8.5c0.3-3,4.4-8.6,4.4-8.6
	C735.9,277.7,732.5,291.7,732,291.5z M738.1,285c-1.4,4-3.5,5.9-3.5,5.9s2.7-11.9,2.6-13.3S739.5,281,738.1,285z M750.3,281.2
	c-1.1,0.6-2.3,1.5-3.6,1.7c-0.2,0-0.3,0-0.5,0c-1.1-0.3,0.6-1.5,0.9-1.7c0.3-0.2,0.6-0.5,0.9-0.7c0.3-0.2,0.7-0.4,1.1-0.5
	c0.5-0.2,1.7-0.6,2.1-0.1C751.7,280.4,750.7,280.9,750.3,281.2z M752.1,306.3c0.1,2.8-1.4,4.4-4.7,4.3c-3.2-0.1-4.4-1.5-4.3-5.3
	c0.1-3.8,2.4-6.7,4.3-7.5c1.8-0.9,3.9,0,2.4,1.4c-1.5,1.4-2.6,2.3-1.7,3.1c0.9,0.8,5-3.5,5-3.5S751.9,303.6,752.1,306.3z
	 M764.3,312.3c-2.6,3.5-8.1,4.8-9.6-0.5c-1.6-5.2-0.7-7.3,0-10c0.7-2.8,3.5-3.1,3.9-1s-0.8,4.4,0.6,4.4c1.4,0,0-5.4,2.2-5.4
	c2.2,0.1,2.6,2,2.6,2S766.9,308.7,764.3,312.3z M775.5,303.5c-1.4,2.9-6,4.6-8.5,1.1l-2.5-4.4c0,0-0.7-0.7,0.9-2.2s2.7-1.1,5.2,0.4
	C773.2,299.8,777,300.6,775.5,303.5z M766.7,290.4c2.1,1.1,8.1,4.5,8.2,7.8c0,0.1-0.1,0.1-0.1,0.1c-0.9-0.2-5.3-1-5.8-2.7
	c-0.4-1.4-1.8-3.8-2.6-5C766.3,290.6,766.5,290.3,766.7,290.4z M757.7,291.5c1.2,2.2,0.5,4.1,1.9,3.8s-1.3-3.7,2.1-3.1
	c3.4,0.6,5.7,0.8,3.4,3.1s-4.7,4.1-8.6,2.4c-3.1-1.3-8.4-1.2-10.5-1c-0.4,0-0.6-0.4-0.4-0.7c0.8-1.4,2.7-4.1,4.6-5.1
	c2.5-1.3,3.5-0.9,3.2,0.6s0.5,1.5,1.3,0.4C755.4,290.8,756.5,289.3,757.7,291.5z M883.5,238.5c-0.9-0.2-2-3.8-1.7-4.5
	c0.3-0.7,13.7,4.1,13.7,4.1S884.4,238.7,883.5,238.5z M893.9,229.9c0,0,5.8,4.1,5.5,5.1c-0.3,1-9.7-2.7-9.7-2.7L893.9,229.9z
	 M889.7,230.2c-2.3,1.5-5.9,0.8-7.6,0.3c-0.3-0.1-0.3-0.5,0-0.6c1.6-0.5,4.9-1.6,6-2.1C889.5,227.2,892.9,228.2,889.7,230.2z
	 M878.1,224.8c1.1-0.7,7.4,0.3,7.4,1.3c0,0.9-3.3,0.1-5.6,1.9c-0.3,0.2-0.6,0.1-0.8-0.1C878.4,227,877.3,225.3,878.1,224.8z
	 M879.9,201.4c-2.9,0.1-16.1-2.9-19.8-3.3c-0.3,0-0.5-0.4-0.3-0.7c0.9-1.4,3.6-4.4,8.4-3c5,1.4,11.3,2.4,13.6,2.8
	c0.5,0.1,0.9,0.5,0.8,1C882.6,199.3,882.1,201.3,879.9,201.4z M888.8,187.3c-0.6,2-10.1-1.4-10.1-1.4s3.1-3,5.2-2.2
	C886,184.5,889.4,185.3,888.8,187.3z M892.3,179.8c0.9,1-1.1,3.5-2,3.9s-3.1-2-3.1-2S891.5,178.8,892.3,179.8z M883.8,177.9
	c2.6-0.7,4.1-0.2,1.8,1.5c-2.3,1.7-3.9,0.5-3.9,0.5S881.3,178.7,883.8,177.9z M874.9,179.8c2.3-1.9,3.7-0.5,4.2,0.5
	s-0.8,2.5-2.5,3.4c-1.7,0.9-4.2,2.2-4.2,2.2S872.6,181.7,874.9,179.8z M875.5,188.6c3.1,0.4,11.8,2.3,11.8,2.3s-2.2,3.8-6.3,3.4
	c-4.2-0.4-12.4-3.1-12.4-3.1S872.4,188.2,875.5,188.6z M864.7,186.5c0,0,1.1-4.5,2.7-6.4c1.6-2,4.2-1.5,3.3,2.2
	c-0.9,3.6-4.5,7.4-5.5,7.7C864.1,190.2,864.7,186.5,864.7,186.5z M858.9,181.4c2.4-2,5.5-2.8,5.2-0.7c-0.4,2.3-1,4.6-1.6,6.8
	c-0.6,2.1-1.3,6.2-3.4,7.3c-0.4,0.2-0.9,0.4-1.4,0.3c-0.8-0.1-0.7-0.2-0.8-0.9c-0.1-1.2,0-2.4,0-3.5
	C856.9,189.8,856.5,183.3,858.9,181.4z M858.9,200.5c4.1,0.5,17.7,3.5,19.8,3.5c0,0,0.1,3.5-6.6,2.6c-5.8-0.8-16.5-2.1-19.4-2.5
	c-0.3,0-0.5-0.4-0.3-0.7C853.4,202.4,855.8,200.2,858.9,200.5z M868.6,211.5c-3.9,0.9-6.6-2.9-11.3-2.5s-11.2,4.9-13,3.7
	c-1.4-0.9,0.9-2.6,2.2-3.4c0.3-0.2,0.5-0.3,0.7-0.4c2.5-1.5,5.4-2.9,8.4-2.2c4.3,1,9.5,2.2,12.1,2.6c2.6,0.4,4,0.3,4,0.3
	S872.4,210.6,868.6,211.5z M853.8,183.7c1.9-0.5,1.2,11.4,0,13.6c-0.7,1.3-1.6,2.4-2.3,3.1c-0.3,0.3-0.9,0.1-0.9-0.3
	c-0.2-2.2-0.7-7-0.7-9.8C849.9,186.6,851.9,184.2,853.8,183.7z M846.9,190c0.1-0.2,0.4-0.1,0.4,0.1c0.2,2.4,0.7,10.8,0.3,13.5
	c-0.4,2.7-3.7,4.5-4.8,5c-0.1,0.1-0.3-0.1-0.3-0.2c0.2-1.5,1-7.1,1-9.9C843.6,195.8,846,191.5,846.9,190z M847.3,167.5
	c-0.8,1.9-1.3,4-1.6,4.9c0,0.2-0.3,0.2-0.4,0c-0.7-1.5-2.5-6.1-0.4-7.5C847.6,163.3,848.3,164.9,847.3,167.5z M847.2,154.7
	c0.1,0.7,0.4,5.2-0.8,7.1c-1.2,1.7-3.1,0.9-3.6,0.6c-0.1,0-0.1-0.1-0.1-0.2c0.1-0.5,0.4-2.8,2.6-5.3
	C846.6,155.4,847.1,154.9,847.2,154.7C847.2,154.6,847.2,154.6,847.2,154.7C847.2,154.6,847.3,154.5,847.2,154.7z M840.2,143.5
	c0.9,0.7,4.2,3.5,5.5,6.1s0.5,3.7-0.8,4.8c-1,0.9-2.2,1.2-2.7,1.3c-0.1,0-0.2,0-0.2-0.1C841.8,154,839.3,142.8,840.2,143.5z
	 M841,168.9c0,0.2-0.2,0.3-0.3,0.1c-1.4-1.8-6-7.5-3.5-7.7C839.7,161.1,840.8,166.9,841,168.9z M839.3,158.7
	c-1.2-0.2-5.1-1.2-3.6-3.4c1.5-2.3,3.3,2,3.8,3.2C839.6,158.5,839.4,158.7,839.3,158.7z M835.4,149.8c0.4-3.6,0.8-4.2,1.9-2.6
	c0.9,1.4,1.7,4.4,1.8,5.2c0,0.1,0,0.2-0.2,0.2C838.1,152.7,835,152.9,835.4,149.8z M832.9,163.4c-2.1-1-4.8-3.5-5.7-4.3
	c-0.1-0.1-0.1-0.3,0.1-0.3c0.9-0.2,3.4-0.4,5.6,1.8C835.6,163.2,835.4,164.7,832.9,163.4z M824.6,155c1.4-0.8,6.5-3.6,7.9-2
	c1.6,1.8-1.3,3.3-3.3,3.3c-1.6-0.1-3.6-0.6-4.5-0.9C824.4,155.3,824.4,155.1,824.6,155z M822.9,160.5c8.1,5.6,11,5.6,14.9,9.8
	c3.9,4.3,6.9,11.8,5.2,21.4c0,0-12-17.2-25.8-10.4c0,0,0.9-10.3-4.7-16.6c-5.6-6.4-7.7-7.1-7.7-7.1S814.8,155,822.9,160.5z
	 M828.6,205c-1.7-0.2-2.5,27.5-3.2,28.1c-0.7,0.6-8.7-29.4-9.9-29.2s7.5,29.8,6.2,30.4c-1.3,0.6-9.3-15.5-13.5-25.4
	c-0.1-0.3-0.6-0.2-0.5,0.1c0.4,2.6,1.5,7.5,4.6,13.9c4.5,9.5,6.2,13,5.5,13.7c-0.8,0.7-4.7-5.3-9.1-13.3c-4.4-8-11.6-21.6-10.1-28.3
	s5.8-7.8,10.7-7.7c4.9,0,7.3-6.4,14.9-4.7c7.6,1.7,16.9,6.6,16.9,15.9s-7.8,28.3-12.8,34.7C828.4,233.2,830.3,205.2,828.6,205z
	 M785.5,253.7c0,0-1.4-3.2-2.1-4.7c-0.1-0.3,0.1-0.6,0.4-0.6c2.3,0,10-0.2,13.9-2.3c0,0,16.4,0.7,16.4,1.7S795.1,253.1,785.5,253.7z
	 M797.5,255.3c0.4,0.7-6.2,2.9-8.3,3.5c-0.4,0.1-0.8,0-1-0.3c-0.6-0.8-1.6-2.4,0.1-2.5C790.5,255.8,797,254.5,797.5,255.3z
	 M769.9,234.6c-0.1-1.3,27.9,2.2,28.5,0.9s-25.2-2.3-25.2-3.2c0-1,13-2.6,13.2-3.3c0.2-0.7-15.3,0.9-15.3,0.9s9.1-8.9,16-12.9
	c6.9-4,9.6-0.6,12.7,3.1s3.3,7.2,2.8,10.7c-0.5,3.5,1.4,7.2-3.1,11.2c-4.5,4-8.1,5.6-13.4,5c-5.3-0.7-13.5-9.2-13.5-9.2
	s16.8,3.3,17.3,2.4C790.5,239.3,770,235.9,769.9,234.6z M771.1,217.2c-0.4-0.6-3.1,11.6-4.2,11.7c-1.1,0.2,1.9-21.9,1.2-22
	c-0.6-0.1-4.1,13.1-4.4,18.2v1.2c0-0.3,0-0.7,0-1.2v-14.4c0,0-2.4,4.7-1.9,15.2c0,0.1-0.2,0.2-0.3,0.1c-1.1-1.5-5.1-7.1-7.2-14.9
	c-2.4-9.2,3.2-15.9,9.8-14.1c6.6,1.7,3.5,1.3,9.2,2.6c5.7,1.2,8.5,2.4,6.9,8.6c-1.4,5.4-8.5,17.5-10.4,20.5
	c-0.1,0.1-0.3,0.1-0.3-0.1C770,225.9,771.5,217.7,771.1,217.2z M767.6,238.9c-1.1,1.2-4.6,1.1-6.4-2.3c0,0-2.4-3.3-0.4-5.2
	c1.9-1.8,4.3-2.7,6.4-0.9C769.3,232.4,768.7,237.7,767.6,238.9z M747.6,181.4c-1.1-1.9-1.4-4.8-0.2-6.9c0.2-0.4,0.4-0.7,0.7-1
	c2.8-2.8,7.9-1.5,11.1,0c2.4,1.1,2.4,4.1,1,6.1c-0.8,1.1-1.9,2-3.2,2.5c-1.4,0.6-2.9,1.2-4.4,1.4
	C750.6,183.8,748.7,183.2,747.6,181.4z M751.3,213.9c0,0-4.9-4.6-8.3-5.1l5.4-22.1h1.4L751.3,213.9z M762.7,179.4
	c0.4-2.1,29.6,5.7,29.6,5.7s-18.9-8.4-27.8-9.1c0,0-2.1-1.4,3.3-1.7c5.3-0.3,23.9-0.6,23.9-2.7c0,0-21.1-0.4-28.4,0.5
	c0,0,16.3-9.7,23.4-11.5c7.1-1.9,16.8-2.4,21.9,4.2s7.3,14.8,4.4,17.7c-3,2.9-6.4-0.8-11.4,4.1c-5,4.9-6,7.3-5.3,10.5
	c0,0-5.2-0.9-9.2,1.3c0,0-27.1-13.8-27-15.6c0.1-1.8,26.1,11.9,29.4,9.9C789.4,192.8,762.3,181.5,762.7,179.4z M787.6,157.1
	c1-1.5,3.8-4.7,10.6-4.6c4.9,0.1,7.3,0.3,8.4,0.5c0.4,0.1,0.5,0.6,0.2,0.8c-1.3,0.9-4.4,2.7-8.7,3.1c-4.5,0.5-8.5,0.8-10.1,0.9
	C787.6,157.8,787.4,157.4,787.6,157.1z M802.9,220.9c0,0-5.7-7.5-9.9-7.5s-7.4,3.4-8.7,0.5c-1.3-2.9-1.9-5.4,0-8s3.8-6.6,6.5-6.5
	c2.7,0.1,6.3,0.3,8.8,12.6c0,0-7.3-10.5-7.8-10.2S802.9,220.9,802.9,220.9z M803.6,222.9c0.5-0.9,2.3,2.7,2.3,2.7
	S803.2,223.8,803.6,222.9z M813,236c0.2,0.4-0.2,0.8-0.5,0.6c-2-0.9-6.1-2.8-7.7-3.2c0,0-0.6-2.7-0.2-4.5c0.1-0.3,0.4-0.4,0.7-0.2
	C806.7,229.8,811.2,233.2,813,236z M782.1,204.8c-0.2,0.1-0.4-0.1-0.4-0.3c0-0.6,0-1.7-0.2-2.4c0-0.2,0.2-0.4,0.4-0.3
	c0.7,0.2,1.8,0.6,1.6,1.5C783.4,204.1,782.6,204.6,782.1,204.8z M782.1,217.5c-1.2,0.9-5.9,4.3-5.9,4.3s2.1-6.1,4.3-6.1
	S783.4,216.5,782.1,217.5z M777,199c-0.3,0.8-2.1-0.4-2.1-0.4s-1.7-1-3.2-2.2c-1.4-1.2-0.1-1.7,2.2-0.4
	C776.3,197.3,777.3,198.2,777,199z M768.3,195.4l-5.1,1.1l-3.3-8.8c-0.1-0.4,0.3-0.7,0.6-0.5C763,189.3,768.3,195.4,768.3,195.4z
	 M758.4,196.5c-1.9,0.5-4.1-10.7-4.1-10.7C757.5,188,760.3,196,758.4,196.5z M753.1,191.4c1.9,4.6,1.2,7.1,0,7.1
	C752,198.4,753.1,191.4,753.1,191.4z M804.7,241.8c1.7,0.3,3,1.1,3.6,1.4c0.1,0,0.1,0.2,0,0.2c-0.9,0.1-3.9,0.5-5.4,0.3
	C801.2,243.4,802.6,241.4,804.7,241.8z M814.1,241.6c0,0.1-0.1,0.1-0.2,0.2c-0.2,0.1-0.5,0.1-0.8,0.1c-2.4-0.4-5.3-1.2-7.3-2.6
	c-0.7-0.5-2.8-3.9-0.7-3.1c2.4,1,4.7,2.3,6.9,3.6C812.4,239.9,814.6,240.9,814.1,241.6z M807.5,150.6c-4.2,0-9.3-0.5-11.2-0.7
	c-0.3,0-0.5-0.4-0.3-0.7c0.7-1,2.8-2.8,7.9-3.1c5-0.2,7.6-0.6,8.7-0.8c0.3,0,0.6,0.2,0.5,0.5C812.7,147.3,811.5,150.6,807.5,150.6z
	 M817.3,136.9c-0.7,1.8-2.6,5.7-6.3,6.3c-3.8,0.6-8,0.3-9.7,0.1c-0.4,0-0.5-0.5-0.3-0.7c1-1.1,3.5-3.4,8.5-4.4
	c4.1-0.8,6.2-1.4,7.2-1.8C817.1,136.2,817.4,136.5,817.3,136.9z M818.4,113.6c0.9,0.6-2.3,5.4-2.3,5.4S817.5,113.1,818.4,113.6z
	 M812.2,127.2c-0.4,0.1-0.8-0.3-0.5-0.7c1.4-2.1,4.5-6.4,5.7-4.2C818.6,124.5,814.3,126.4,812.2,127.2z M816.7,108
	c0.6,1.1-0.6,3.5-1.2,4.5c-0.1,0.2-0.5,0.3-0.7,0.1c-0.5-0.4-1.2-1.3-1.6-2.5C812.7,108.4,815.9,106.7,816.7,108z M812,114
	c0.4,2,0.1,4.6-0.2,6.1c-0.1,0.4-0.7,0.5-0.8,0.1c-0.8-2-2.1-5.7-2.1-7.9C808.8,109.1,811.3,110.9,812,114z M813.2,129.6
	c5-1.4,5.8,3,2.3,4.6c-2.7,1.2-6.9,1.6-8.6,1.8c-0.3,0-0.6-0.3-0.4-0.6C807.2,133.8,809.3,130.6,813.2,129.6z M805.3,113.4
	c0.3-0.2,0.7-0.1,0.7,0.3c0.2,1.6,0.8,5.5,1.5,8.6c0.7,3.1-1.1,6.8-2.1,8.5c-0.2,0.3-0.7,0.3-0.8-0.1c-0.6-2.1-1.8-7.2-2.6-10.4
	C801.2,117.3,804,114.5,805.3,113.4z M798.8,117.7c0,0.3,1.7,10.6,2.9,13.7c0.9,2.4-1.5,6.8-2.8,8.9c-0.2,0.4-0.8,0.2-0.8-0.2
	c-0.3-3.1-1.1-11-2.5-14.9C793.9,120.3,798.8,117.4,798.8,117.7z M791.6,121.4c0.3-0.3,0.7-0.1,0.7,0.3c0.1,1.4,0.4,4.5,1.7,7.9
	c1.6,4.5,3.1,15.3-1,18.5c-0.3,0.2-0.7,0-0.7-0.3c-0.1-2.6-0.6-11.5-2.1-16.1C788.6,126.8,789.8,123.1,791.6,121.4z M785.5,129.7
	c0.1-0.4,0.7-0.4,0.8,0c0.5,2,1.5,5.8,2.3,9.7c1.1,5.4,1.4,10.7-3.6,17.1c-0.2,0.2-0.5,0.2-0.7,0l-0.7-1c-0.1-0.1-0.1-0.3,0-0.5
	c0.7-1.2,3.6-7.1,3.5-9.8c-0.1-3.1-0.1-5.7-1.8-8.4C784.2,134.9,784.9,131.6,785.5,129.7z M787.8,89c0.5-1.8,1.2-3.8,1.8-3.5
	c1.1,0.5,0.9,5.7,0.2,9.2c-0.7,3.5-1.3,4.3-2.2,4.3c-0.5,0-0.6-2.2-0.6-4.2C787,92.8,787.2,90.9,787.8,89z M781.1,77.8
	c0.4-0.9,5.6,3.8,5.5,5.9c0,1.4-0.3,3-0.6,4c-0.1,0.3-0.5,0.4-0.6,0.1C784.2,85.4,780.7,78.5,781.1,77.8z M778.5,82.3
	c0.1-0.3,0.5-0.3,0.6-0.1l4.5,8.7c0.2,0.3-0.2,0.6-0.5,0.4c-1.3-1-3.5-2.7-4.4-3.7C777.6,86.5,778.1,83.7,778.5,82.3z M778.5,94.2
	c-1.1-1.5-1.5-3.5,1.8-1.3c3.1,2.1,4.7,2.3,4.7,5.9c0,0.3-0.3,0.5-0.6,0.3C783,98.1,779.3,95.4,778.5,94.2z M779.2,98.5
	c0.6-0.8,4.3,2.4,4.3,3.9c0,0.9-0.3,2.1-0.5,2.9c-0.1,0.3-0.6,0.4-0.7,0.1C781.2,103.5,778.7,99.1,779.2,98.5z M771.1,116.3l0.9,5.2
	c0.1,0.4-0.3,0.6-0.6,0.5l-2.5-1c-0.2-0.1-0.3-0.4-0.3-0.6l1.6-4.2C770.4,115.8,771,115.9,771.1,116.3z M768.6,109l0.6,1.1
	c0.1,0.1,0.1,0.3,0,0.4c-0.4,1-2.1,5.5-2.4,7.7c-0.1,0.4-0.5,0.5-0.8,0.2c-0.8-0.8-1.7-2.6-0.3-5.4c1.1-2.4,1.8-3.5,2.2-4
	C768.1,108.7,768.5,108.7,768.6,109z M761.6,101c0.5-0.8,3.8,4.1,4.6,5.2c0.1,0.1,0.1,0.3,0,0.5l-1.6,3.1c-0.2,0.4-0.7,0.3-0.8-0.1
	C762.9,107.3,761.1,101.7,761.6,101z M758.3,106.5c0.1-0.5,0.8-0.5,0.9,0l3.1,11.4c0.1,0.3-0.1,0.5-0.4,0.6
	c-1.2,0.2-4.2,0.1-4.3-4.3C757.6,110.9,758,108.2,758.3,106.5z M748.8,124.5c6.6-2.2,7.5-5.1,13.3-2.6c5.8,2.5,8.8,4.5,12.6,5.1
	c3.8,0.6,5.7,6.4,6.8,9.6c1.1,3.2,3.1,5.4,1.9,11.8c-1.2,6.4-9.1,13.4-21.2,20.5c0,0,11.8-18.9,11.8-23.4c0,0-14.9,24-18,24
	c-3.1,0,18.3-30.1,15.3-38.1c0,0-14.6,30.1-16.3,33.1c-1.7,3,4.7-19.4,2.2-20.2c-2.5-0.8-5.4,21.1-5.4,21.1s-9.5-12-10.8-24.6
	C739.9,128.2,742.2,126.7,748.8,124.5z M702.6,170.7c-3.1-7.9,2.6-15.3,6.4-19.4c3.8-4.1,5.3-9.7,10.4-9.8c5.1-0.1,6.8,1.8,14.2,9.4
	c7.4,7.6,13.3,13.7,15.2,17.8c0,0-14.7-10.5-15.5-9.7c-0.8,0.7,1.1,3.7,5.7,6.5c4.6,2.9,7.7,5,7.5,6.1c-0.2,1-18.6-8-23.2-10.7
	c-4.6-2.7-7.6-2.4-3.9,1.1c3.7,3.5,22.3,11.4,22.3,12c0,0.6-19.6-8.3-19.9-7.5c-0.2,0.8,6.6,7.4,11.5,8.6c4.9,1.3,7.5,0.8,7.6,2.2
	c0.1,1.4-14.1,2.3-19.3,2.4C716.4,179.7,705.7,178.6,702.6,170.7z M729.2,217.5c-0.2,0.6-0.9,1-1.5,0.8c-1.5-0.5-3.9-1.2-6-1.2
	c-3.1,0.1-14-8.9-15.4-10.2c-1.4-1.3-3.9-3.9,0.7-9.7c4.5-5.9,8.4-6.6,15.7-9.5c7.3-2.9,14.7-5.7,14.7-5.7s-12.7,12.3-12.2,13.2
	c0.5,0.9,18.3-14.7,18.3-14.7s-8.7,11.3-13.7,15.6c-5,4.3-8,8.4-7.2,9c0.8,0.6,11.5-10.2,13.4-12.4c1.9-2.2,8.9-10.3,10.5-7.8
	c0,0-7.4,13.4-8.5,21.1c-0.1,0.6-0.6,1-1.2,1c-1.2,0-3.3,0.7-5.2,4.6C730.2,214.5,729.5,216.4,729.2,217.5z M734.3,230.3
	c-3.9-0.5-3.1-10.2-2.2-13.5c0.9-3.3,3.2-11,8.6-8s16.7,16.1,16.7,16.1s-11-5.8-10.8-4.8c0.1,1,13.7,8.6,13.4,8.9
	c-0.3,0.4-20.9-8.9-21.2-8c-0.3,0.9,19.9,10.2,19.9,10.2S738.2,230.7,734.3,230.3z M755.4,269.7c-2.1,2.3-6.6-1.2-7.9-2.3
	c-1.4-1-1.4-4.2,1.4-6.9c2.2-2.2,6-7.1,7.4-9.1c0.2-0.2,0.5-0.1,0.4,0.2c-0.7,3.7-3.1,16.1-2.7,16.5c0.4,0.4,1.6-7.9,2.6-7.1
	C757.4,261.7,757.5,267.4,755.4,269.7z M747.6,259.4c-6,5.6-10.1,5.9-11.2,4.2c-1.1-1.6-3.2-3.1-4.9-3.6s-3.9-1.5-3.9-4.2
	s-3.1-7.5-0.9-11.1c2.3-3.5,10.2-11.9,30-11.6c0.1,0,0.2,0.2,0.1,0.3c-2.5,1.4-14.2,8.2-13.8,8.8c0.4,0.7,11.5-5.2,12-4.6
	c0.4,0.6-15,10.4-15,11.3s18.9-11.7,19.3-11.3c0.4,0.4-17.4,16.4-17.4,16.7c0.1,0.3,15.2-11.5,17.8-13.6c0.1-0.1,0.2,0,0.2,0.1
	C758.6,243.2,752.9,254.5,747.6,259.4z M776.4,274.4c-4.7-0.1-6-0.7-7.8-0.3c-1.8,0.4-10,1.6-9.8-8.5c0.1-10.1,2.1-22.7,4-25.6
	c0,0-0.6,20.9,0.5,21.2c1.1,0.4,0.9-20.2,2.2-20.6s2.9,20.5,3.5,20.5c0.6,0-1.2-20-0.4-20.3c0.8-0.4,6.7,16.9,8.3,16.7
	c1.6-0.2-6.4-17.8-6.4-17.8s9.9,7.9,14.1,14.5c4.2,6.6,3,11.8,0.4,14.7C782.5,271.7,781,274.5,776.4,274.4z M805,271.3
	c0.4,0.5,12.4-12.1,13.1-11.6c0.7,0.6-7.2,19-9.6,23.7c-2.4,4.6-9.3,11-13.3,8c-4-3-14.6-15-10.5-19.5c3.6-3.9,5.9-6.2,4.7-9.3
	c-0.3-0.8,0.1-1.6,0.9-1.9c4-1.3,14.7-5,19.2-7.1c5.6-2.7,5.6-4.4,6.8-3.2c1.3,1.3-1.9,4.3-6.1,7.5c-4.2,3.2-15.6,15.4-14.7,16.3
	s23-22.1,24.1-21.6C820.8,253.3,804.6,270.8,805,271.3z M818.8,248.6c-1.7-1-3.2-2-2.1-5.2c0,0,2-7.2,5.4-8c3.4-0.8,4.6,0.7,5.4,4.1
	s1.2,6.3-1.4,9S820.5,249.6,818.8,248.6z M852.6,265.2c11.4,11.8,6,16.5,2.3,18.5c-3.7,2-5.7,5.9-10.9,8.6
	c-5.2,2.7-11.1,4.7-16.5,1.2s-6.6-11.3-6.7-17.3c-0.1-5.6,1.3-16.2,2-19.9c0-0.2,0.4-0.3,0.4,0c1.3,3.5,7.4,18.7,9.6,18.4
	c2.3-0.3-6.3-13.3-6.4-19c0-0.3,0.3-0.3,0.4-0.1c1.9,4.2,10.7,23,15,22.7c0,0-15.1-25-12.8-28.6c0.6-1,9.3,13.6,12,13.5
	c2.8-0.1-9.1-12.6-9.4-15.8C831.6,247.4,841.2,253.4,852.6,265.2z M834.6,245.7c-0.1-0.1-0.1-0.3,0-0.3c3-0.7,21.3-5.1,21.3-6.5
	c0-1.6-20,4.1-20.2,2.5c-0.2-1.6,32.8-14.5,32.8-16.3s-37.3,16.8-38.3,15s24.8-16.6,24.1-17.5c-0.6-0.9-19,9.8-22.3,11.8
	c-0.1,0.1-0.3-0.1-0.2-0.2c1.2-2.2,5.8-10.6,9.3-14.4c4-4.4,11.8-10.6,19.9-6.4c8.1,4.2,10.7,3.4,12.2,6.8c1.6,3.4,0,3.7,3.6,10
	c3.6,6.2,3.3,9,0.8,13.8s-0.3,8.2-5.4,10.4C867.2,256.5,854.2,256.8,834.6,245.7z M876.7,313.6c0,0-3.2-5.5-2.6-7.3
	c0.6-1.8,3.2-1.7,3.2-1.7L876.7,313.6z M881.6,312.3c-1.2,1.3-2.2,1.3-2.2,1.3s0.1-5.7,1.6-4.5S882.8,311,881.6,312.3z M885.1,307
	c-0.4,0.7-1.3,0.8-1.9,0.2l-1.7-1.7c-0.9-0.9-1.4-2-1.4-3.3c0-0.5,0.1-0.9,0.3-1.3c0.7-1.3,4.5,2.1,5.4,3.2
	C886.3,304.8,885.7,306,885.1,307z M886.1,298.1c0.7,0.8,0.7,1.7,0.5,2.3c-0.2,0.6-0.9,0.8-1.3,0.4c-1.5-1.2-4.4-3.5-5.1-4.1
	c-1-0.8-1-4.2,0.6-3.1S884.7,296.5,886.1,298.1z M877.4,284.9c0.6-1,5.1,3.5,6.2,4.9c1,1.5,0.7,2.4,0.2,3s-2.6-0.8-3.8-2.7
	C879.9,290.1,876.8,285.9,877.4,284.9z M877.3,295.6l-0.2,4.5c0,0-3.1,4.6-3.8,3.5c-0.7-1.1-1.4-2.8-0.3-4.1
	C874.2,298.1,877.3,295.6,877.3,295.6z M875.2,288.8c1,0.3,0.3,2.5-0.9,5.1c-1.2,2.6-1.3,3.4-2.5,2.3s0.8-4.7,0.8-4.7
	S874.2,288.5,875.2,288.8z M870.4,286.3c0,0,0.5-5.6,1.4-5.3c0.9,0.3,1.8,3,1.5,5.1c-0.3,2.1-1.7,3.9-2.6,4
	C869.8,290.2,870.4,286.3,870.4,286.3z M891.2,422.8c1.5,0.5,1.9,1.8,1.1,2.1c-0.8,0.3-3.1,0.1-3.2-1.1
	C889.1,423.8,889.7,422.3,891.2,422.8z M888.9,428.6c0.1,0.4,0.3,1,0,1.4c-0.2,0.3-0.5,0.3-0.8,0.5c-0.4,0.2-0.8-0.4-1-0.7
	c-0.1-0.1-0.1-0.2-0.2-0.4c-0.2-0.6-0.5-1.4,0-1.7C887.4,427.4,888.4,426.9,888.9,428.6z M886,418.4c0.2-1.4,0.9-1.7,1.5-1.4
	c0.4,0.2,0.6,0.3,0.6,0.8c0,0.8-0.2,1.8-0.9,2.3c-0.1,0.1-0.3,0.2-0.4,0.2c-0.1,0-0.1,0-0.2,0C886,420,885.9,418.8,886,418.4z
	 M885.2,421.6c1.2-0.7,2.2,0.9,2.7,1.9c0.5,1,0.3,2.1-0.5,2.5c-0.4,0.3-1,0.1-1.3-0.2c-0.3-0.3-0.6-0.6-0.8-1
	C884.5,423.8,884.2,422.1,885.2,421.6z M883.2,426.9c-0.4,0.3-1,0.4-1.5,0.4c-0.3,0-0.5-0.1-0.6-0.2c-0.2-0.2-0.2-0.6-0.1-0.9
	c0.1-0.5,0.5-0.8,0.9-1.1c1.3-0.9,1.7-0.6,2.2,0C884.4,425.7,884.1,426.3,883.2,426.9z M881,419.8c0.7-0.6,1.9,0.2,2.4,0.9
	c0.5,0.8,0.7,1.7,0,2.3c-0.7,0.6-1.6-0.3-1.9-0.8C880.8,421.3,880.4,420.2,881,419.8z M890.4,485.2c-0.8,0.6-2.2,0.3-2.7,0
	c0,0-1.3-0.6,0.6-1.9c0.7-0.5,2.3-1.9,3-0.9C891.9,483.2,891.2,484.6,890.4,485.2z M896,477.2c0.7-0.8,3.6-1.3,3.1,0.5
	c-0.1,0.3-0.3,0.6-0.6,0.8c-0.4,0.4-1,0.7-1.5,0.9c-0.4,0.2-0.8-0.1-1.1-0.3c-0.1-0.1-0.2-0.2-0.3-0.3
	C895.3,478.3,895.7,477.6,896,477.2z M896.3,482.3c0.4,0.4,1,0.9,1.3,1.4c0.3,0.6,0.1,1.3-0.4,1.7c-0.7,0.6-1.9-0.9-1.9-0.9
	s-1.2-1.7-0.5-2.6C895.3,481.4,895.9,481.9,896.3,482.3z M894.2,478.7c0.6,0.9,0.6,2.1-0.2,2.8c-0.7,0.6-1.4,0.3-2-0.4
	c-0.7-0.8-1-2.1-0.4-2.8C892.5,477.3,893.6,477.8,894.2,478.7z M890.2,472.9c1-0.6,1.9,0.4,2.3,1.2c0.2,0.4,0.5,0.9,0.5,1.4
	c0,0.5-0.2,0.7-0.6,1c-0.7,0.5-1.7-1.1-2-1.6C890,474.3,889.4,473.3,890.2,472.9z M886.6,477.7c0.8,0,1.6,0.3,2.3,0.5
	c2.2,0.9,1.6,2.2,0.4,2.1c-0.7,0-1.3-0.1-2-0.3c-0.4-0.1-0.8-0.3-1.2-0.5c-0.3-0.2-0.6-0.4-0.6-0.7
	C885.3,478.2,886,477.8,886.6,477.7z M921.4,284.5c0.5,0.4,1,0.9,1.4,1.5c0.5,0.6,0.1,1.5-0.7,1.5c-1.5,0.1-3.5,0.4-4.9,1.4
	c-0.3,0.2-0.7,0.2-1,0c-1.4-0.8-5-3-5.4-3.4C910.2,285,920.1,283.6,921.4,284.5z M913.9,280.9c0.7,1-2.3,1.7-4.2,2.4
	c-1.4,0.5-4.5-0.4-6.1-0.9c-0.3-0.1-0.3-0.5,0-0.6c1.7-0.5,5.5-1.5,6.9-1.8C912.4,279.8,913.2,279.8,913.9,280.9z M908.6,276.3
	c1.5,1.2-2.7,2.2-5.1,2.9c-2.4,0.7-5.5,1.6-7.4,0.6c-1.9-0.9,1.9-2.1,1.9-2.1S907.1,275.1,908.6,276.3z M889.4,274.3
	c2.1-0.3,6.2-0.9,9.1-0.9c4,0,2.7,1.3-0.6,2.1c-2.1,0.5-4.2,1.1-5.3,1.4c-0.7,0.2-1.4,0.1-1.9-0.4l-1.5-1.2
	C888.7,274.9,888.9,274.3,889.4,274.3z M895.2,292.7c-1.4-1.9-4.5-6.5-5.8-8.7c-1.6-2.9-3-6.5-1-5.6s3.2,2.7,4.5,6.6
	c0.9,2.8,2,5.9,2.5,7.5C895.5,292.8,895.3,292.9,895.2,292.7z M901.7,296.1c-1.3,0.9-3.6-4.7-3.6-4.7s-3.5-9.2-2.6-9.7
	s2.9,1.9,5,6.7C902.6,293.2,903,295.3,901.7,296.1z M909.6,299.9c-1.2,0.5-3.7-0.9-4.9-5.3c0,0-2.8-9.4-1.7-9.6
	c1-0.2,2.2,2.3,4.9,7.7C910.6,298.3,910.8,299.5,909.6,299.9z M916.5,298.2c-0.8,0.1-1.6,0.1-2.3,0.1c-0.5,0-0.9-0.3-1.1-0.8
	c-0.9-2.1-3.5-8.1-3-8.6c0.6-0.6,3.5,3.1,5.3,5.8C917.3,297.5,917.8,298.1,916.5,298.2z M923,298c-0.5,0.1-1.1-0.1-1.7-0.4
	c-1.1-0.5-2.1-1.4-2.8-2.4c-0.7-1-1.6-2.4-1.3-2.7c0.4-0.5,3.2,1.6,4.8,2.7S924.3,297.7,923,298z M927.2,295.5
	c-0.3,0.3-4-3.1-5.2-4.2c-0.2-0.2-0.1-0.5,0.2-0.5c1-0.2,2.9-0.3,4,1.3C927.6,294.2,927.5,295.2,927.2,295.5z"/>
</svg>
